<svg xmlns="http://www.w3.org/2000/svg" width="247" height="89" viewBox="0 0 247 89">
  <g id="Group_513" data-name="Group 513" transform="translate(-0.259 0.155)">
    <g id="Rectangle_1549" data-name="Rectangle 1549" transform="translate(0.259 -0.155)" fill="none" stroke="#1f3689" stroke-width="1">
      <rect width="247" height="89" rx="5" stroke="none"/>
      <rect x="0.5" y="0.5" width="246" height="88" rx="4.5" fill="none"/>
    </g>
    <text id="Full_Name" data-name="Full Name" transform="translate(88.259 61.845)" fill="#1f3689" font-size="52" font-family="SourceSansPro-Bold, Source Sans Pro" font-weight="700"><tspan x="0" y="0">Seller</tspan></text>
    <g id="Group_236" data-name="Group 236" transform="translate(25.41 24.228)">
      <g id="Group_171" data-name="Group 171" transform="translate(0 0)">
        <path id="Subtraction_9" data-name="Subtraction 9" d="M34.244,26.161H1.157a1.115,1.115,0,0,0-.171-.068,1.1,1.1,0,0,1-.177-.071,1.446,1.446,0,0,1-.8-1.326C0,17.809,0,10.814,0,4.049V.405A1.683,1.683,0,0,1,.01.2.2.2,0,0,1,.2.009,1.721,1.721,0,0,1,.407,0H34.938c.45,0,.463.013.463.477q0,10.218,0,20.437v3.6a1.6,1.6,0,0,1-1.157,1.645ZM17.62,3.929a9.256,9.256,0,0,0-9.054,9.288,9.211,9.211,0,0,0,9.063,9h.047A9.145,9.145,0,1,0,17.62,3.929Z" transform="translate(1.758 14.886)" fill="none" stroke="#1f3689" stroke-width="0.5"/>
        <path id="Path_1964" data-name="Path 1964" d="M-1497.136,2492.815a2.582,2.582,0,0,1-1.98,1.253,7.942,7.942,0,0,1-2.479.062,5.648,5.648,0,0,1-2.593-.853,1.729,1.729,0,0,1-.827-1.128c-.31-1.3-.544-2.618-.79-3.932-.372-1.979-.738-3.958-1.114-5.934a.5.5,0,0,1,.108-.458,1.951,1.951,0,0,1,.91-.567,6.388,6.388,0,0,1,2.913-.23,5.622,5.622,0,0,1,1.879.531,1.532,1.532,0,0,1,.822.921c1.029,3.146,2.066,6.289,2.993,9.467.056.191.105.383.157.574Z" transform="translate(1536.07 -2480.959)" fill="#1f3689" stroke="#1f3689" stroke-width="0.5"/>
        <path id="Path_1966" data-name="Path 1966" d="M-1835,2487.341c-.044,1.6-.1,3.194-.143,4.792a1.593,1.593,0,0,1-.772,1.374,4.711,4.711,0,0,1-1.962.721,8.5,8.5,0,0,1-2.874-.017,4.023,4.023,0,0,1-1.678-.706,1.274,1.274,0,0,1-.533-1.273c.3-2.311.669-4.608,1.021-6.909.143-.929.3-1.857.466-2.783a1.1,1.1,0,0,1,.6-.825,4.521,4.521,0,0,1,1.5-.5,7.125,7.125,0,0,1,3.488.262c.085.03.168.067.25.1a1.072,1.072,0,0,1,.7,1.052c0,1.328-.041,2.652-.055,3.978C-1835,2486.851-1835,2487.1-1835,2487.341Z" transform="translate(1853.344 -2481.101)" fill="#1f3689" stroke="#1f3689" stroke-width="0.5"/>
        <path id="Path_1967" data-name="Path 1967" d="M-1661.316,2487.471q-.027-2.073-.052-4.143a5.93,5.93,0,0,1,.069-1.023.636.636,0,0,1,.328-.48,4.6,4.6,0,0,1,1.982-.6,7.272,7.272,0,0,1,2.912.293,4.532,4.532,0,0,1,.715.338,1.029,1.029,0,0,1,.524.758c.262,1.368.459,2.748.665,4.125.225,1.509.439,3.02.654,4.53.056.393.1.789.15,1.183a1.078,1.078,0,0,1-.342.944,3.1,3.1,0,0,1-1.6.818,7.3,7.3,0,0,1-4.394-.256,3.975,3.975,0,0,1-.784-.433,1.535,1.535,0,0,1-.721-1.331c-.009-1.423-.057-2.845-.089-4.269,0-.153,0-.306,0-.46Z" transform="translate(1681.881 -2481.187)" fill="#1f3689" stroke="#1f3689" stroke-width="0.5"/>
        <path id="Path_1968" data-name="Path 1968" d="M-2025.24,2494.321a5.256,5.256,0,0,1-2.5-.459,1.961,1.961,0,0,1-.594-.385.986.986,0,0,1-.312-1.052c.416-1.531.923-3.034,1.4-4.545.581-1.815,1.166-3.628,1.792-5.428a1.132,1.132,0,0,1,.482-.6,4.893,4.893,0,0,1,2.123-.7,7.856,7.856,0,0,1,2.662.155,2.3,2.3,0,0,1,1.062.555.605.605,0,0,1,.194.6c-.587,3.234-1.222,6.46-1.854,9.686a1.774,1.774,0,0,1-.766,1.168,5.276,5.276,0,0,1-2.54.929C-2024.473,2494.278-2024.857,2494.295-2025.24,2494.321Z" transform="translate(2028.695 -2481.088)" fill="#1f3689" stroke="#1f3689" stroke-width="0.5"/>
        <path id="Path_1969" data-name="Path 1969" d="M-1786.621,3030.4a7.939,7.939,0,0,1-4.1-1.1,9.245,9.245,0,0,1-2.008-1.693.423.423,0,0,1-.061-.551,3.25,3.25,0,0,1,1.3-1.273,23.48,23.48,0,0,1,2.4-1.063c.148-.059.22,0,.3.1a2.987,2.987,0,0,0,1.544,1.057,2.517,2.517,0,0,0,2.446-.6c.185-.157.347-.343.517-.518.05-.052.092-.1.176-.065a16.579,16.579,0,0,1,2.684,1.24,4.4,4.4,0,0,1,.958.928.507.507,0,0,1-.018.809,7.872,7.872,0,0,1-2.757,2.023A8.489,8.489,0,0,1-1786.621,3030.4Z" transform="translate(1806.037 -2994.323)" fill="#1f3689"/>
        <path id="Path_1970" data-name="Path 1970" d="M-1736.255,2894.107a2.442,2.442,0,0,1-2.018-1.225c-.35-.585-.658-1.192-1.011-1.777a2.179,2.179,0,0,1-.293-1.244.869.869,0,0,1,.183-.543.613.613,0,0,0,.113-.373,11.555,11.555,0,0,1,.094-1.377,2.357,2.357,0,0,1,1.428-1.808,3.564,3.564,0,0,1,3.072.037,1.5,1.5,0,0,1,.888,1.019.784.784,0,0,0,.161.313,1.62,1.62,0,0,1,.344.968c.016.222.023.445.029.669a1.2,1.2,0,0,0,.183.648,1.382,1.382,0,0,1,.069,1.057,1.928,1.928,0,0,1-.257.68c-.359.547-.643,1.138-.973,1.7A2.457,2.457,0,0,1-1736.255,2894.107Z" transform="translate(1755.725 -2862.844)" fill="#1f3689"/>
      </g>
    </g>
  </g>
</svg>
