<svg xmlns="http://www.w3.org/2000/svg" width="512" height="512" viewBox="0 0 512 512">
  <g id="Group_1" data-name="Group 1" transform="translate(-473 -150)">
    <path id="Path_1" data-name="Path 1" d="M256,512a254.876,254.876,0,0,1-135.656-39.052L29.25,495.688a10.675,10.675,0,0,1-12.864-13.209l24.427-87.792A254.676,254.676,0,0,1,0,256C0,114.844,114.844,0,256,0S512,114.844,512,256,397.156,512,256,512Z" transform="translate(473 150)" fill="#cecece"/>
    <path id="Path_2" data-name="Path 2" d="M122.219,450.823a10.671,10.671,0,0,1,5.823,1.729A233.645,233.645,0,0,0,256,490.667C385.4,490.667,490.667,385.4,490.667,256S385.4,21.333,256,21.333,21.333,126.6,21.333,256a233.526,233.526,0,0,0,39.9,130.906,10.649,10.649,0,0,1,1.438,8.813L41.854,470.552l77.781-19.417A10.91,10.91,0,0,1,122.219,450.823Z" transform="translate(473 150)" fill="#f5f5f5"/>
    <g id="Group_1-2" data-name="Group 1" transform="translate(-731.033 53.901)">
      <path id="Path_32" data-name="Path 32" d="M1629.894,225.182a18.242,18.242,0,0,1-36.485.031h0a18.242,18.242,0,0,1,18.227-18.258h.016a18.228,18.228,0,0,1,18.243,18.211Z" transform="translate(-148.081 0)" fill="#f15822"/>
      <path id="Path_33" data-name="Path 33" d="M1578.9,756.928l.485.281a87.527,87.527,0,0,0,33.494,2.57l-.313-.281A87.818,87.818,0,0,1,1578.9,756.928Z" transform="translate(-140.479 -288.192)" fill="#197139"/>
      <path id="Path_34" data-name="Path 34" d="M1825.234,639.826c-.2.594-.407,1.19-.627,1.785C1825.093,640.327,1825.595,638.918,1825.234,639.826Z" transform="translate(-269.232 -226.678)" fill="#197139"/>
      <path id="Path_35" data-name="Path 35" d="M1572.012,754.9l1.832.579-.486-.313c-1.095-.329-2.176-.689-3.241-1.065Z" transform="translate(-135.876 -286.709)" fill="#197139"/>
      <path id="Path_36" data-name="Path 36" d="M1478.211,670.7a17.448,17.448,0,0,0,3.539,6.264c-.1-.235.548-.25.454-.485-1.957-2.02-2.428-4.009-3.977-6.561C1478.478,670.338,1477.929,670.213,1478.211,670.7Z" transform="translate(-87.673 -242.596)" fill="#197139"/>
      <path id="Path_37" data-name="Path 37" d="M1464.322,645.012l.61,1.566a.329.329,0,0,0,.11.3c-.078-.188-.143-.392-.219-.579C1464.651,645.872,1464.477,645.45,1464.322,645.012Z" transform="translate(-80.438 -229.547)" fill="#197139"/>
      <path id="Path_38" data-name="Path 38" d="M1456.591,559.809a2.372,2.372,0,0,1,.219-.72,48.15,48.15,0,0,1-.517-8.753l-.235,1.738A47.5,47.5,0,0,0,1456.591,559.809Z" transform="translate(-76.106 -179.935)" fill="#197139"/>
      <path id="Path_39" data-name="Path 39" d="M1461.68,516.189l-.2.564c-.376,1.065-.7,2.145-1,3.21a1.708,1.708,0,0,1,.2-.579C1460.975,518.35,1461.3,517.285,1461.68,516.189Z" transform="translate(-78.424 -162.042)" fill="#197139"/>
      <path id="Path_40" data-name="Path 40" d="M1720.452,403.3l-1.738-.736a60.918,60.918,0,0,1,6.342,3.132c.579.3,1.158.6,1.722.908A58.537,58.537,0,0,0,1720.452,403.3Z" transform="translate(-213.742 -102.5)" fill="#197139"/>
      <path id="Path_41" data-name="Path 41" d="M1459.2,524.643l-.22.595c-.36,1.378-.673,2.756-.939,4.15.143-.627.3-1.253.47-1.863C1458.7,526.554,1458.916,525.6,1459.2,524.643Z" transform="translate(-77.146 -166.472)" fill="#197139"/>
      <path id="Path_42" data-name="Path 42" d="M1463.006,514.774l.455-1.285A9.571,9.571,0,0,1,1463.006,514.774Z" transform="translate(-79.749 -160.627)" fill="#197139"/>
      <path id="Path_43" data-name="Path 43" d="M1484.159,622.534a58.493,58.493,0,0,0,24.6,14.218v-.97a57.938,57.938,0,0,1-24.443-14.093Z" transform="translate(-90.833 -217.325)" fill="#197139" stroke="#197139" stroke-width="0.8"/>
      <path id="Path_44" data-name="Path 44" d="M1457.446,571.32a44.892,44.892,0,0,0,12.167,23.973l.143-.877a44.534,44.534,0,0,1-12.09-23.817A4.054,4.054,0,0,0,1457.446,571.32Z" transform="translate(-76.835 -190.553)" fill="#197139" stroke="#197139" stroke-width="0.8"/>
      <path id="Path_45" data-name="Path 45" d="M1759.781,533.756a76.727,76.727,0,0,1-16.395,26.4l.626.783a77.106,77.106,0,0,0,16.535-26.621Z" transform="translate(-226.671 -171.247)" fill="#197139" stroke="#197139" stroke-width="0.8"/>
      <path id="Path_46" data-name="Path 46" d="M1537.55,651.822v.971a85.41,85.41,0,0,0,32.726,2.506,5.547,5.547,0,0,0-.219-.986A84.957,84.957,0,0,1,1537.55,651.822Z" transform="translate(-118.811 -233.115)" fill="#197139" stroke="#197139" stroke-width="0.8"/>
      <path id="Path_47" data-name="Path 47" d="M1607.982,645.239l.235.986a105.791,105.791,0,0,0,15.143-2.959,109.851,109.851,0,0,0,20.121-7.625l-.454-.924a108.077,108.077,0,0,1-20,7.579A102.031,102.031,0,0,1,1607.982,645.239Z" transform="translate(-155.718 -224.152)" fill="#197139" stroke="#197139" stroke-width="0.8"/>
      <path id="Path_48" data-name="Path 48" d="M1778.388,501.03l.736.611a52.677,52.677,0,0,0,2.442-24.772c-.187-1.238-.407-2.442-.689-3.633l-.736-.438c.266,1.174.5,2.38.689,3.6A52.307,52.307,0,0,1,1778.388,501.03Z" transform="translate(-245.012 -139.305)" fill="#197139" stroke="#197139" stroke-width="0.8"/>
      <path id="Path_49" data-name="Path 49" d="M1683.547,611.18l.454.908a102.864,102.864,0,0,0,28.03-20.638l-.627-.783A102.321,102.321,0,0,1,1683.547,611.18Z" transform="translate(-195.314 -201.069)" fill="#197139" stroke="#197139" stroke-width="0.8"/>
      <path id="Path_50" data-name="Path 50" d="M1766.386,446.173l.736.454a45.049,45.049,0,0,0-13.858-22.736l-.235-.173-.532-.235A44.923,44.923,0,0,1,1766.386,446.173Z" transform="translate(-231.445 -113.464)" fill="#197139" stroke="#197139" stroke-width="0.8"/>
      <path id="Path_51" data-name="Path 51" d="M1751.206,422.307l-.188-.143.125.11Z" transform="translate(-230.67 -112.772)" fill="#197139"/>
      <path id="Path_52" data-name="Path 52" d="M1713.417,470.016l.955.438a36.688,36.688,0,0,0,1.723-17.366c-.125-.861-.3-1.707-.485-2.552l-.987-.143a25.252,25.252,0,0,1,.486,2.505A36.441,36.441,0,0,1,1713.417,470.016Z" transform="translate(-210.967 -127.565)" fill="#197139"/>
      <path id="Path_53" data-name="Path 53" d="M1630.307,394.564l.547-.219a62.462,62.462,0,0,0-23.487-.642c0,.079-.143.157-.2.251A61.316,61.316,0,0,1,1630.307,394.564Z" transform="translate(-155.289 -97.43)" fill="#197139"/>
      <path id="Path_54" data-name="Path 54" d="M1579.094,395.1a1.588,1.588,0,0,1,.2-.235,71.779,71.779,0,0,0-7.391,1.566,76.565,76.565,0,0,0-17.021,6.89l.157.109a75.485,75.485,0,0,1,16.786-6.78A73.572,73.572,0,0,1,1579.094,395.1Z" transform="translate(-127.895 -98.467)" fill="#197139"/>
      <path id="Path_55" data-name="Path 55" d="M1675.727,405.25a43.006,43.006,0,0,0-18.133-9l-.564.219a42.4,42.4,0,0,1,17.866,8.879C1675.164,405.312,1675.445,405.265,1675.727,405.25Z" transform="translate(-181.419 -99.191)" fill="#197139" stroke="#197139" stroke-width="0.8"/>
      <path id="Path_56" data-name="Path 56" d="M1488.727,501.715l.626-.626a35.481,35.481,0,0,1,.925-14.518l-.611.407A36.261,36.261,0,0,0,1488.727,501.715Z" transform="translate(-93.037 -146.522)" fill="#197139" stroke="#197139" stroke-width="0.8"/>
      <path id="Path_57" data-name="Path 57" d="M1533.057,413.528l-.172-.11a70.454,70.454,0,0,0-18.791,15.157l.454-.125A69.491,69.491,0,0,1,1533.057,413.528Z" transform="translate(-106.52 -108.189)" fill="#197139" stroke="#197139" stroke-width="0.8"/>
      <path id="Path_58" data-name="Path 58" d="M1705.155,431.78l.987.157a31.726,31.726,0,0,0-9.724-16.019,7.03,7.03,0,0,0-.83.1A31.317,31.317,0,0,1,1705.155,431.78Z" transform="translate(-201.624 -109.499)" fill="#197139" stroke="#197139" stroke-width="0.8"/>
      <path id="Path_59" data-name="Path 59" d="M1501.858,446.16a51.07,51.07,0,0,0-10.429,18.947l.611-.407a50.389,50.389,0,0,1,10.272-18.649Z" transform="translate(-94.643 -125.289)" fill="#197139" stroke="#197139" stroke-width="0.8"/>
      <path id="Path_60" data-name="Path 60" d="M1508.041,554.685a41,41,0,0,0,17.224,9.959l.235-1.047a40.263,40.263,0,0,1-16.99-9.8Z" transform="translate(-103.348 -181.747)" fill="#197139" stroke="#197139" stroke-width="0.8"/>
      <path id="Path_61" data-name="Path 61" d="M1594.954,570.245c0,.36.079.72.11,1.065a73.956,73.956,0,0,0,10.632-2.065,78.175,78.175,0,0,0,14.093-5.355c-.172-.313-.328-.626-.485-.955a74.778,74.778,0,0,1-13.9,5.277A73.68,73.68,0,0,1,1594.954,570.245Z" transform="translate(-148.891 -186.537)" fill="#197139" stroke="#197139" stroke-width="0.8"/>
      <path id="Path_62" data-name="Path 62" d="M1545.763,574.81a5.043,5.043,0,0,1-.219,1.047,59.749,59.749,0,0,0,22.939,1.755l-.109-1.065A58.715,58.715,0,0,1,1545.763,574.81Z" transform="translate(-123 -192.76)" fill="#197139" stroke="#197139" stroke-width="0.8"/>
      <path id="Path_63" data-name="Path 63" d="M1647.459,546.54c.172.313.344.626.5.955a72.245,72.245,0,0,0,19.6-14.484l-.783-.736A70.954,70.954,0,0,1,1647.459,546.54Z" transform="translate(-176.404 -170.471)" fill="#197139" stroke="#197139" stroke-width="0.8"/>
      <path id="Path_64" data-name="Path 64" d="M1489.323,518.788a31.313,31.313,0,0,0,8.535,16.817l.485-.892a30.834,30.834,0,0,1-8.393-16.551Z" transform="translate(-93.539 -163.076)" fill="#197139" stroke="#197139" stroke-width="0.8"/>
      <path id="Path_65" data-name="Path 65" d="M1700.438,492.769a53.353,53.353,0,0,1-11.431,18.352l.783.72a54.058,54.058,0,0,0,11.6-18.62Z" transform="translate(-198.176 -149.77)" fill="#197139" stroke="#197139" stroke-width="0.8"/>
      <path id="Path_66" data-name="Path 66" d="M1566.866,436.684l-.376-.5a27.433,27.433,0,0,0-7.33,5.888l.736.219A26.119,26.119,0,0,1,1566.866,436.684Z" transform="translate(-130.135 -120.118)" fill="#197139"/>
      <path id="Path_67" data-name="Path 67" d="M1549.331,470.492l.955-.438a13.547,13.547,0,0,1,.345-5.481l-.939.157A14.071,14.071,0,0,0,1549.331,470.492Z" transform="translate(-124.908 -134.995)" fill="#197139"/>
      <path id="Path_68" data-name="Path 68" d="M1713.35,671.678l.329.72A115.292,115.292,0,0,0,1745,649.286l-.344-.72A115.282,115.282,0,0,1,1713.35,671.678Z" transform="translate(-210.931 -231.409)" fill="#197139" stroke="#197139" stroke-width="0.8"/>
      <path id="Path_69" data-name="Path 69" d="M1799.182,584.384a86.564,86.564,0,0,1-18.524,29.749l.329.72a86.451,86.451,0,0,0,18.54-29.749Z" transform="translate(-246.201 -197.777)" fill="#197139" stroke="#197139" stroke-width="0.8"/>
      <path id="Path_70" data-name="Path 70" d="M1628.246,709.946c.1.251.2.5.3.736a116.193,116.193,0,0,0,16.927-3.3,123.3,123.3,0,0,0,22.533-8.55l-.329-.72a121.959,121.959,0,0,1-22.517,8.534A114.761,114.761,0,0,1,1628.246,709.946Z" transform="translate(-166.336 -257.369)" fill="#197139" stroke="#197139" stroke-width="0.8"/>
      <path id="Path_71" data-name="Path 71" d="M1819.641,551.382c.126.235.783,1.174.908,1.409a59.507,59.507,0,0,0,2.959-27.121c-.156-.548-.735-1.566-.908-2.051,0,.1-.36-.11-.344,0A58.918,58.918,0,0,1,1819.641,551.382Z" transform="translate(-266.629 -165.919)" fill="#197139" stroke="#197139" stroke-width="0.8"/>
      <path id="Path_72" data-name="Path 72" d="M1548.9,717.353c.1.235.143.469.235.7a95.745,95.745,0,0,0,36.7,2.834c-.109-.235-.2-.485-.313-.736A95.33,95.33,0,0,1,1548.9,717.353Z" transform="translate(-124.758 -267.454)" fill="#197139" stroke="#197139" stroke-width="0.8"/>
      <path id="Path_73" data-name="Path 73" d="M1489.342,684.074a65.551,65.551,0,0,0,27.543,15.909l-.282-.736a65.222,65.222,0,0,1-27.544-15.909Z" transform="translate(-93.401 -249.63)" fill="#197139" stroke="#197139" stroke-width="0.8"/>
      <path id="Path_74" data-name="Path 74" d="M1549.557,476.934a12.3,12.3,0,0,0,3.32,6.545l.8-.767a11.756,11.756,0,0,1-3.132-6.264Z" transform="translate(-125.102 -141.218)" fill="#197139"/>
      <path id="Path_75" data-name="Path 75" d="M1604.075,429.306l.532-.658a24.152,24.152,0,0,0-9.114-.25,1.447,1.447,0,0,1-.109.674A23.232,23.232,0,0,1,1604.075,429.306Z" transform="translate(-149.116 -115.872)" fill="#197139"/>
      <path id="Path_76" data-name="Path 76" d="M1554.435,448.98a19.925,19.925,0,0,0-4.056,7.359l.939-.143a18.9,18.9,0,0,1,3.868-7.015Z" transform="translate(-125.533 -126.824)" fill="#197139"/>
      <path id="Path_77" data-name="Path 77" d="M1584.483,429.62l.095-.674a27.642,27.642,0,0,0-2.866.626,29.739,29.739,0,0,0-6.624,2.677l.36.517a28.017,28.017,0,0,1,6.263-2.552A24.99,24.99,0,0,1,1584.483,429.62Z" transform="translate(-138.481 -116.326)" fill="#197139"/>
      <path id="Path_78" data-name="Path 78" d="M1556.861,490.649a15.66,15.66,0,0,0,6.7,3.915l.47-.955a15.3,15.3,0,0,1-6.389-3.743Z" transform="translate(-128.93 -148.249)" fill="#197139" stroke="#197139" stroke-width="0.8"/>
      <path id="Path_79" data-name="Path 79" d="M1630.4,466.84a19.9,19.9,0,0,1-4.29,6.905l.845.564a20.955,20.955,0,0,0,4.525-7.25Z" transform="translate(-165.216 -136.183)" fill="#197139" stroke="#197139" stroke-width="0.8"/>
      <path id="Path_80" data-name="Path 80" d="M1621.712,433a16.572,16.572,0,0,0-7.062-3.492l-.548.642a16.154,16.154,0,0,1,6.733,3.335Z" transform="translate(-158.925 -116.619)" fill="#197139" stroke="#197139" stroke-width="0.8"/>
      <path id="Path_81" data-name="Path 81" d="M1635.287,458.223l1.064.2a14.253,14.253,0,0,0,.674-6.749,9.268,9.268,0,0,0-.188-.986l-1.095.157a6.557,6.557,0,0,0,.173.94A13.532,13.532,0,0,1,1635.287,458.223Z" transform="translate(-170.026 -127.72)" fill="#197139" stroke="#197139" stroke-width="0.8"/>
      <path id="Path_82" data-name="Path 82" d="M1632.14,443.507l1.095-.172a12.368,12.368,0,0,0-3.821-6.264l-.908.486A11.786,11.786,0,0,1,1632.14,443.507Z" transform="translate(-166.473 -120.583)" fill="#197139" stroke="#197139" stroke-width="0.8"/>
      <path id="Path_83" data-name="Path 83" d="M1610.516,487.264l.469.861a27.978,27.978,0,0,0,7.626-5.637l-.845-.579A26.631,26.631,0,0,1,1610.516,487.264Z" transform="translate(-157.046 -144.079)" fill="#197139" stroke="#197139" stroke-width="0.8"/>
      <path id="Path_84" data-name="Path 84" d="M1590.777,496.063h0v1a28.321,28.321,0,0,0,4.134-.8,31.621,31.621,0,0,0,5.5-2.083l-.469-.861a28.452,28.452,0,0,1-5.214,1.989A28.017,28.017,0,0,1,1590.777,496.063Z" transform="translate(-146.702 -150.059)" fill="#197139" stroke="#197139" stroke-width="0.8"/>
      <path id="Path_85" data-name="Path 85" d="M1571.823,497.8c-.157.313-.313.642-.455.955a23.116,23.116,0,0,0,8.926.689v-1A22.147,22.147,0,0,1,1571.823,497.8Z" transform="translate(-136.532 -152.406)" fill="#197139" stroke="#197139" stroke-width="0.8"/>
      <path id="Path_86" data-name="Path 86" d="M1632.032,502.429a91.937,91.937,0,0,0,3.038-23.488,90.844,90.844,0,0,0-4.431-28.186s-1.566-4.51-1.785-5.042a91.615,91.615,0,0,0-28.013-37.941c-.783-.611-.8-.642-.971-.752a90.412,90.412,0,0,0-12.527-8.174c-.564-.313-1.143-.611-1.723-.908a90.565,90.565,0,0,0-21.014-7.83c.376.078.736.143,1.095.235l-.548-.143-.516-.11c-.376-.1-.752-.157-1.112-.219a91.585,91.585,0,0,0-19.62-1.989,90.6,90.6,0,0,0-44.188,11.416h0l-.752.423h0a91.338,91.338,0,0,0-23.206,18.79,12.069,12.069,0,0,0-1.095,1.095l-.61.724a14.135,14.135,0,0,1,1.065-1.112,90.929,90.929,0,0,0-17.82,31.3c-.25.564-.469,1.112-.673,1.691-.079.188-.143.391-.2.579-.172.5-.329.986-.47,1.566l-.329,1.19q.251-.94.564-1.879l.219-.6c.156-.454.329-.908.516-1.347-.438,1.394-.845,2.8-1.206,4.228-.172.611-.328,1.238-.469,1.864a91.42,91.42,0,0,0-2.507,21.25,89.485,89.485,0,0,0,.454,9.129,37.012,37.012,0,0,0,.407,4.134l.251,1.566a38.844,38.844,0,0,1-.47-4.071,90.633,90.633,0,0,0,5.371,21.922,1.757,1.757,0,0,0,.219.58,91.2,91.2,0,0,0,151.889,28.749l-.266.3.642-.689a3.914,3.914,0,0,0,.329-.391,90.923,90.923,0,0,0,18.227-30.382c.219-.595.423-1.19.626-1.785C1630.827,506.563,1631.94,503.086,1632.032,502.429Zm-6.263,14.781c-.3.626-.595,1.253-.908,1.879a90.118,90.118,0,0,1-11.384,17.554,15.66,15.66,0,0,0,.814-3.618v-.438c.391-4.964-1-11.368-4.447-19.151-.235-.532-.469-1.08-.736-1.566l-.329-.721a146.459,146.459,0,0,0-17.224-26.62l-.626-.783a249.354,249.354,0,0,0-25.056-26.837l-.783-.72a249.658,249.658,0,0,0-28.984-23.206l-.845-.564a176.226,176.226,0,0,0-15.925-9.552,182.85,182.85,0,0,1,15.752,9.724l.846.579a256.059,256.059,0,0,1,28.812,23.488l.783.736a256.4,256.4,0,0,1,24.85,27.042l.626.783a149.569,149.569,0,0,1,17.083,26.729l.345.72c.25.548.5,1.08.736,1.566,3.429,7.83,4.855,14.093,4.494,19.072v.438a14.906,14.906,0,0,1-.83,3.727q-2.349,2.795-4.964,5.386A90.921,90.921,0,0,1,1585.948,559a17.235,17.235,0,0,0-.971-4.072,2.939,2.939,0,0,1-.109-.344c-1.238-3.713-3.555-9.4-7-17.225-.235-.548-.469-1.095-.72-1.566l-.328-.72c-3.837-8.581-8.55-18.571-13.733-29.2l-.454-.908c-5.213-10.665-10.959-21.921-16.675-33.07-.157-.329-.329-.642-.5-.955-5.762-11.118-11.6-22.079-17.115-32.085l-.47-.861c-2.944-5.34-5.81-10.413-8.5-15.079,2.615,4.7,5.387,9.818,8.252,15.2l.469.861c5.371,10.084,11.07,21.108,16.739,32.272.156.329.313.642.485.955,5.653,11.2,11.243,22.517,16.4,33.212l.454.924c5.12,10.662,14.672,31,14.906,31.536,3.445,7.829,5.543,13.576,6.843,17.225a.4.4,0,0,0,.109.328,19.009,19.009,0,0,1,1.081,4.04,89.76,89.76,0,0,1-32.585,9.489,11.082,11.082,0,0,1-4.7-2.677l-.313-.266c-3.319-3.132-10.695-17.334-10.96-17.9-.1-.235-.2-.485-.3-.736a194.822,194.822,0,0,1-9.4-30.5l-.235-.986a333.482,333.482,0,0,1-6-36.312,3.6,3.6,0,0,0-.109-1.065,318.506,318.506,0,0,1-2.083-36.7v-1h0c0-6.264.36-12.292.892-17.945-.626,5.669-1,11.7-1.158,17.976v1a310.113,310.113,0,0,0,1.565,36.751l.11,1.065A323.13,323.13,0,0,0,1525.632,516a4.459,4.459,0,0,0,.22.986,190.277,190.277,0,0,0,9.285,30.519c.109.251.2.5.313.736.235.564,7.642,14.813,10.962,17.882l.313.282a11.556,11.556,0,0,0,4.7,2.646c-2.489.2-5.026.313-7.578.313a90.369,90.369,0,0,1-29.75-5.01l-.955-.532-.486-.282c-5.246-3.225-9.787-8.691-13.216-16.473-.25-.532-.469-1.08-.7-1.566l-.282-.736a89.66,89.66,0,0,1-5.386-30.221v-.972a157.2,157.2,0,0,1,3.79-35.608c.078-.344.143-.7.219-1.047a177.379,177.379,0,0,1,12.167-35.794c.143-.313.3-.642.454-.955h0a144.675,144.675,0,0,1,9.646-17.334,146.145,146.145,0,0,0-9.867,17.222l-.47.955a176.158,176.158,0,0,0-12.527,35.592l-.235,1.047a154.509,154.509,0,0,0-4.024,35.529v.971a88.386,88.386,0,0,0,5.355,30.315l.282.736.7,1.645c3.427,7.83,7.986,13.247,13.294,16.473l.486.3c.235.143.47.251.721.376-.862-.3-1.707-.626-2.552-.955l-1.895-.783a90.461,90.461,0,0,1-28.624-19.354,96.252,96.252,0,0,1-6.546-7.3,40.465,40.465,0,0,1-2.443-4.7c-.235-.532-.469-1.08-.689-1.566l-.282-.736a57.022,57.022,0,0,1-2.332-28.5l.143-.877a99.086,99.086,0,0,1,11.227-31.317l.485-.892a134.663,134.663,0,0,1,22.752-29.749l.783-.767a137.978,137.978,0,0,1,16.254-13.576,138.487,138.487,0,0,0-16.4,13.435l-.8.767a133.734,133.734,0,0,0-22.971,29.36l-.486.892a97.8,97.8,0,0,0-11.4,31.207l-.143.877a56.492,56.492,0,0,0,2.285,28.436,2.24,2.24,0,0,0,.266.72c.219.548.454,1.095.689,1.566a41.065,41.065,0,0,0,2.113,4.15,91.161,91.161,0,0,1-7.594-11.493c-.282-.486-.548-.971-.814-1.472a89.8,89.8,0,0,1-10.507-39.069,46.019,46.019,0,0,1,1.394-6.874c.078-.235.14-.486.219-.72a60.408,60.408,0,0,1,14.954-24.193l.626-.626a99.775,99.775,0,0,1,28.045-19.417l.955-.454a129.768,129.768,0,0,1,19.557-7.2c-37.236,10.1-62.447,33.619-65.766,58.015v-1.91a89.883,89.883,0,0,1,.8-12.025l.235-1.738a89.8,89.8,0,0,1,4.791-18.289,40.13,40.13,0,0,1,11.6-11.681l.611-.329a73.071,73.071,0,0,1,27.544-10.24l.94-.157a118.091,118.091,0,0,1,19.244-1.566,117.923,117.923,0,0,0-19.182,1.316l-.939.143a72.348,72.348,0,0,0-27.449,9.865l-.611.407a39.4,39.4,0,0,0-11.368,11.2,90.307,90.307,0,0,1,18.242-28.717,17.694,17.694,0,0,1,3.554-1.425l.454-.109c5.386-1.394,12.527-.971,21.233,1.394l.752.2a110.122,110.122,0,0,1,15.314,5.7,112.068,112.068,0,0,0-15.158-5.888l-.783-.219c-8.581-2.475-15.66-2.991-20.982-1.691l-.454.125a16.932,16.932,0,0,0-3.413,1.3c.469-.485.939-.955,1.393-1.441A90.956,90.956,0,0,1,1500.3,399.8l.454.235.172.11c2.067,1.333,5.371,4.9,9.818,10.726l.375.5q3.649,4.7,8.235,11.494-4.477-6.8-8.017-11.619l-.36-.517c-4.322-5.888-7.5-9.536-9.4-10.961l-.157-.109L1501,399.4a90.079,90.079,0,0,1,25.806-9.207,8.379,8.379,0,0,0-.971.986,1.59,1.59,0,0,0-.2.235c-2.271,2.865-4.04,8.221-5.1,15.988l-.1.674a140.988,140.988,0,0,0-1.033,14.766,140.172,140.172,0,0,1,1.221-14.781,1.457,1.457,0,0,1,.11-.674c1.221-7.83,3.132-13.169,5.527-16.05,0-.1.143-.172.2-.251a9.359,9.359,0,0,1,1.081-1.018,91.488,91.488,0,0,1,30.66-.36,26.916,26.916,0,0,0-8.189,2.02l-.548.219c-6.467,2.787-13.122,8.033-19.526,15.66l-.532.657a109.516,109.516,0,0,0-9.991,14.578,110.764,110.764,0,0,1,10.209-14.531l.548-.642c6.545-7.626,13.31-12.856,19.887-15.66l.563-.219a27.533,27.533,0,0,1,8.534-2,90.1,90.1,0,0,1,35.639,14.343l.191.143h0a50.532,50.532,0,0,0-26.166-3.445,2.457,2.457,0,0,0-.83.1,88.8,88.8,0,0,0-30.691,10.225l-.893.485a124.3,124.3,0,0,0-16.927,11.2,125.109,125.109,0,0,1,17.068-11.055l.908-.486a89.731,89.731,0,0,1,30.939-10.006,7.035,7.035,0,0,1,.83-.1,51.291,51.291,0,0,1,26.337,3.6l.532.235.235.173a90.446,90.446,0,0,1,31.317,39.287,51.989,51.989,0,0,0-17.6-16.5l-.736-.454a85.886,85.886,0,0,0-30.424-10.272l-.986-.157a124.148,124.148,0,0,0-36.766.47l-1.095.172a138.172,138.172,0,0,0-20.7,5.136,137.789,137.789,0,0,1,20.747-4.933l1.095-.157a124.261,124.261,0,0,1,36.845-.143l.987.143a87.346,87.346,0,0,1,30.487,10.523l.736.438a52.563,52.563,0,0,1,17.866,17.225c.83,2.1,1.566,4.243,2.24,6.436.172.532.328,1.081.486,1.565a90.824,90.824,0,0,1,1.471,43.844,38.792,38.792,0,0,0-3.539-15.11l-.751-1.566c-.126-.235-.235-.469-.345-.7a77.6,77.6,0,0,0-19.182-23.363l-.736-.611a137.083,137.083,0,0,0-29.971-18.79l-.949-.441a162.855,162.855,0,0,0-36.125-11.759l-1.065-.2a144.025,144.025,0,0,0-20.357-2.442,145.832,145.832,0,0,1,20.277,2.646l1.081.219a165,165,0,0,1,36.015,12.073l.955.454a139.277,139.277,0,0,1,29.892,19.057l.72.626a78.623,78.623,0,0,1,19.151,23.488l.345.7c.266.532.517,1.081.751,1.566a38.23,38.23,0,0,1,3.555,15.66,90.374,90.374,0,0,1-6.185,17.9Z" transform="translate(-74.37 -94.808)" fill="#197139" stroke="#197139" stroke-width="0.8"/>
      <path id="Path_87" data-name="Path 87" d="M1730.227,714.749a2.92,2.92,0,0,0,.109.345,105.508,105.508,0,0,0,28.671-21.186v-.439A105.955,105.955,0,0,1,1730.227,714.749Z" transform="translate(-219.775 -254.938)" fill="#197139" stroke="#197139" stroke-width="0.8"/>
      <path id="Path_88" data-name="Path 88" d="M1792.139,675.448a86.117,86.117,0,0,0,10.632-13.983c.313-.626.611-1.253.908-1.879a86.141,86.141,0,0,1-11.493,15.422Z" transform="translate(-252.218 -237.183)" fill="#197139" stroke="#197139" stroke-width="0.8"/>
      <path id="Path_89" data-name="Path 89" d="M1651.275,749.977l.3.281a107.075,107.075,0,0,0,15.549-3.022,116.206,116.206,0,0,0,20.9-7.939v-.266a122.772,122.772,0,0,1-21.045,7.83A99.93,99.93,0,0,1,1651.275,749.977Z" transform="translate(-178.404 -278.814)" fill="#197139" stroke="#197139" stroke-width="0.8"/>
      <path id="Path_90" data-name="Path 90" d="M1579.067,757.027c0,.109.517.25.751.344a93.47,93.47,0,0,0,14.328,2.537,94.609,94.609,0,0,0,19.417-.219c0-.1-.1-.143,0-.235a101.624,101.624,0,0,1-19.432.143A103.217,103.217,0,0,1,1579.067,757.027Z" transform="translate(-140.566 -288.243)" fill="#197139" stroke="#197139" stroke-width="0.8"/>
      <path id="Path_91" data-name="Path 91" d="M1488.984,340.351c-61.8-62.65-136.058-89.6-165.841-60.223s-3.727,103.989,58,166.639c60.677,61.491,133.349,88.6,164.165,61.774.564-.5,1.127-1.033,1.676-1.566C1576.766,477.6,1550.789,402.986,1488.984,340.351Zm51.376,164.416c-.5.469-1.018.908-1.566,1.333-28.342,22.924-94.923-.078-150.479-52.5-56.543-53.38-80.2-117.064-52.816-142.243s95.517-2.285,152.014,51.094,80.235,117.079,52.848,142.243Z" transform="translate(0 -32.116)" fill="#e42127"/>
      <path id="Path_92" data-name="Path 92" d="M1488.984,340.351c-61.8-62.65-136.058-89.6-165.841-60.223s-3.727,103.989,58,166.639c60.677,61.491,133.349,88.6,164.165,61.774.564-.5,1.127-1.033,1.676-1.566C1576.766,477.6,1550.789,402.986,1488.984,340.351Zm51.376,164.416c-.5.469-1.018.908-1.566,1.333-28.342,22.924-94.923-.078-150.479-52.5-56.543-53.38-80.2-117.064-52.816-142.243s95.517-2.285,152.014,51.094,80.235,117.079,52.848,142.243Z" transform="translate(0 -32.116)" fill="none" stroke="#e42127" stroke-width="1"/>
      <path id="Path_93" data-name="Path 93" d="M1666.725,261.759c-33.04-25.664-103.6,9.881-157.573,79.373s-70.949,146.658-37.909,172.245c.595.469,1.206.923,1.832,1.347,33.776,23,102.737-12.527,155.725-80.72C1682.76,364.574,1699.765,287.424,1666.725,261.759Zm-44.267,179.964c-48.949,58.594-112.382,89.3-143.261,69.868-.579-.376-1.142-.752-1.691-1.142-30.175-21.765-14.2-87.8,35.67-147.5s114.778-90.475,144.968-68.725,14.2,87.814-35.686,147.5Z" transform="translate(-75.224 -24.348)" fill="#3f459a"/>
      <path id="Path_94" data-name="Path 94" d="M1666.725,261.759c-33.04-25.664-103.6,9.881-157.573,79.373s-70.949,146.658-37.909,172.245c.595.469,1.206.923,1.832,1.347,33.776,23,102.737-12.527,155.725-80.72C1682.76,364.574,1699.765,287.424,1666.725,261.759Zm-44.267,179.964c-48.949,58.594-112.382,89.3-143.261,69.868-.579-.376-1.142-.752-1.691-1.142-30.175-21.765-14.2-87.8,35.67-147.5s114.778-90.475,144.968-68.725,14.2,87.814-35.686,147.5Z" transform="translate(-75.224 -24.348)" fill="none" stroke="#3f459a" stroke-width="1"/>
    </g>
  </g>
</svg>
