<svg xmlns="http://www.w3.org/2000/svg" viewBox="0 0 544.96 185.96"><defs><style>.cls-1{fill:#f15822;}.cls-2,.cls-3{fill:#197139;}.cls-3{stroke:#197139;stroke-width:0.8px;}.cls-4{fill:#e42127;}.cls-5,.cls-7{fill:none;}.cls-5{stroke:#e42127;}.cls-6{fill:#3f459a;}.cls-7{stroke:#3f459a;}</style></defs><title>Asset 1</title><g id="Layer_2" data-name="Layer 2"><g id="Layer_1-2" data-name="Layer 1"><g id="Layer_2-2" data-name="Layer 2"><g id="Layer_1-2-2" data-name="Layer 1-2"><path class="cls-1" d="M226.58,61.79h34V77.1H247V91.59h12.74v14.55H247V123h15v15.3H226.58Z"/><path class="cls-1" d="M309.19,61.79,302,95.61l10.81,42.64H293.9a247.87,247.87,0,0,1-6.21-27.86q-.75,7.27-2.15,15.4l-1.92,12.46H263.78l7.42-42.64-7.42-33.82h19.73q.54,3.16,2.12,10.53c.86,3.75,1.55,7.19,2.09,10.35l4.36-20.88Z"/><path class="cls-1" d="M336.12,61.79v76.46H315.71V61.79Z"/><path class="cls-1" d="M407.26,61.79v76.46H389.43V86.64l-7.1,51.61H369.65l-7.48-50.43v50.43H344.31V61.79h26.4q1.17,6.9,2.42,16.26L376,97.5l4.69-35.71Z"/><path class="cls-2" d="M415.45,61.79h20.36q9.66,0,14.61,1.47a14.4,14.4,0,0,1,8,5.92q3.06,4.45,3.06,14.37c0,4.47-.72,7.58-2.16,9.35s-4.27,3.11-8.51,4q7.08,1.56,9.6,5.18T463,113.21v7.09q0,7.74-1.82,11.48a9.65,9.65,0,0,1-5.79,5.1q-4,1.38-16.28,1.37H415.45Zm20.41,13.09v17h2c2,0,3.28-.48,3.83-1.44s.83-3.71.83-8.24a13.06,13.06,0,0,0-.68-5,3.17,3.17,0,0,0-1.77-1.82A16.12,16.12,0,0,0,435.86,74.88Zm0,28.9v21.39c2.87-.09,4.71-.53,5.5-1.32s1.19-2.72,1.19-5.81v-7.13c0-3.27-.36-5.26-1.07-6S438.9,103.87,435.86,103.78Z"/><path class="cls-2" d="M515.83,61.79v76.46H498l-10.61-34.76v34.76H470.27V61.79h17.06l11.44,34.43V61.79Z"/><path class="cls-2" d="M544.42,61.79v76.46H524V61.79Z"/><path class="cls-2" d="M226,149.12a22.66,22.66,0,0,1,4.11-.35c2.26,0,3.71.38,4.79,1.23a3.52,3.52,0,0,1,1.45,3,4,4,0,0,1-3,3.73h0A4.42,4.42,0,0,1,237,161a4.53,4.53,0,0,1-1.47,3.41c-1.22,1.08-3.19,1.59-6,1.59a25.54,25.54,0,0,1-3.49-.21Zm2.25,7h2c2.39,0,3.79-1.21,3.79-2.85,0-2-1.56-2.78-3.84-2.78a9.58,9.58,0,0,0-2,.15Zm0,8.15a13.3,13.3,0,0,0,1.89.1c2.33,0,4.48-.83,4.48-3.31,0-2.32-2-3.28-4.51-3.28h-1.86Z"/><path class="cls-2" d="M251.05,162.57a30.57,30.57,0,0,0,.11,3.33h-2l-.13-2h0a4.71,4.71,0,0,1-4.14,2.27c-2,0-4.32-1.06-4.32-5.35v-7.14h2.28v6.76c0,2.33.72,3.89,2.79,3.89a3.29,3.29,0,0,0,3-2,2.9,2.9,0,0,0,.2-1.13v-7.5h2.28Z"/><path class="cls-2" d="M255.1,163.63a6,6,0,0,0,3,.89c1.66,0,2.43-.81,2.43-1.82s-.64-1.64-2.33-2.25c-2.25-.78-3.31-2-3.31-3.45,0-2,1.63-3.59,4.32-3.59a6.33,6.33,0,0,1,3.08.76l-.57,1.61a5,5,0,0,0-2.56-.7c-1.35,0-2.1.75-2.1,1.66s.75,1.47,2.39,2.07c2.17.81,3.28,1.87,3.28,3.69,0,2.14-1.7,3.66-4.68,3.66a7.34,7.34,0,0,1-3.52-.84Z"/><path class="cls-2" d="M268.77,150.26a1.41,1.41,0,1,1-2.82,0,1.37,1.37,0,0,1,1.33-1.39h.09a1.32,1.32,0,0,1,1.4,1.26Zm-2.54,15.64V153.69h2.28V165.9Z"/><path class="cls-2" d="M272.86,157c0-1.27,0-2.3-.1-3.31h2l.13,2h.1a4.64,4.64,0,0,1,4.14-2.3c1.74,0,4.43,1,4.43,5.2v7.29h-2.28v-7c0-2-.75-3.61-2.9-3.61a3.23,3.23,0,0,0-3.05,2.28,3.08,3.08,0,0,0-.16,1v7.34h-2.28Z"/><path class="cls-2" d="M289.08,160.2a4,4,0,0,0,3.74,4.24h.55a8.42,8.42,0,0,0,3.47-.63l.39,1.59a10.26,10.26,0,0,1-4.17.76c-3.86,0-6.16-2.48-6.16-6.16s2.23-6.59,5.88-6.59c4.09,0,5.18,3.51,5.18,5.76a6.74,6.74,0,0,1-.08,1Zm6.68-1.59c0-1.41-.6-3.61-3.16-3.61-2.31,0-3.32,2.07-3.5,3.61Z"/><path class="cls-2" d="M301,163.63a6.13,6.13,0,0,0,3,.89c1.66,0,2.44-.81,2.44-1.82s-.65-1.64-2.33-2.25c-2.25-.78-3.32-2-3.32-3.45,0-2,1.64-3.59,4.33-3.59a6.33,6.33,0,0,1,3.08.76l-.57,1.61a5,5,0,0,0-2.56-.7c-1.35,0-2.1.75-2.1,1.66s.75,1.47,2.38,2.07c2.18.81,3.29,1.87,3.29,3.69,0,2.14-1.71,3.66-4.69,3.66a7.34,7.34,0,0,1-3.52-.84Z"/><path class="cls-2" d="M311.87,163.63a6,6,0,0,0,3,.89c1.66,0,2.43-.81,2.43-1.82s-.64-1.64-2.33-2.25c-2.25-.78-3.31-2-3.31-3.45,0-2,1.63-3.59,4.32-3.59a6.4,6.4,0,0,1,3.09.76l-.57,1.61a5,5,0,0,0-2.57-.7c-1.34,0-2.1.75-2.1,1.66s.76,1.47,2.39,2.07c2.17.81,3.29,1.87,3.29,3.69,0,2.14-1.71,3.66-4.69,3.66a7.34,7.34,0,0,1-3.52-.84Z"/><path class="cls-2" d="M329.14,149.12a22.77,22.77,0,0,1,4.12-.35c2.25,0,3.7.38,4.79,1.23a3.54,3.54,0,0,1,1.45,3,4,4,0,0,1-2.95,3.73h0a4.44,4.44,0,0,1,3.6,4.27,4.5,4.5,0,0,1-1.48,3.41c-1.22,1.08-3.18,1.59-6,1.59a25.59,25.59,0,0,1-3.5-.21Zm2.25,7h2.05c2.38,0,3.78-1.21,3.78-2.85,0-2-1.55-2.78-3.83-2.78a9.58,9.58,0,0,0-2,.15Zm0,8.15a13.3,13.3,0,0,0,1.89.1c2.33,0,4.48-.83,4.48-3.31,0-2.32-2-3.28-4.5-3.28h-1.87Z"/><path class="cls-2" d="M345,160.2a4,4,0,0,0,3.74,4.24,3.49,3.49,0,0,0,.56,0,8.42,8.42,0,0,0,3.47-.63l.39,1.59a10.43,10.43,0,0,1-4.17.76c-3.86,0-6.16-2.48-6.16-6.16s2.22-6.59,5.88-6.59c4.09,0,5.17,3.51,5.17,5.76a8.4,8.4,0,0,1-.07,1Zm6.68-1.59c0-1.41-.59-3.61-3.16-3.61-2.3,0-3.31,2.07-3.49,3.61Z"/><path class="cls-2" d="M358.15,153.69l2.74,7.22c.29.81.6,1.76.81,2.5h.05c.23-.74.49-1.67.8-2.55l2.49-7.17h2.4L364,162.4c-1.64,4.19-2.75,6.33-4.3,7.64a6.21,6.21,0,0,1-2.8,1.44l-.57-1.87a6.06,6.06,0,0,0,2-1.08,6.62,6.62,0,0,0,1.92-2.47,1.66,1.66,0,0,0,.18-.53,1.91,1.91,0,0,0-.15-.58l-4.64-11.26Z"/><path class="cls-2" d="M381.17,159.7c0,4.51-3.21,6.48-6.24,6.48-3.39,0-6-2.42-6-6.28,0-4.09,2.75-6.49,6.22-6.49A5.94,5.94,0,0,1,381.17,159.7Zm-9.94.12c0,2.68,1.58,4.7,3.8,4.7s3.81-2,3.81-4.75c0-2.07-1.06-4.69-3.76-4.69s-3.85,2.42-3.85,4.74Z"/><path class="cls-2" d="M384.62,157a30.75,30.75,0,0,0-.11-3.31h2l.13,2h.05a4.65,4.65,0,0,1,4.15-2.3c1.73,0,4.43,1,4.43,5.2v7.29H393v-7c0-2-.75-3.61-2.9-3.61a3.23,3.23,0,0,0-3.06,2.28,3.37,3.37,0,0,0-.15,1v7.34H384.6Z"/><path class="cls-2" d="M410.38,148v14.76a27.75,27.75,0,0,0,.11,3.15h-2.05l-.1-2.12h0a4.64,4.64,0,0,1-4.28,2.4c-3,0-5.35-2.5-5.35-6.21,0-4.06,2.56-6.56,5.61-6.56a4.21,4.21,0,0,1,3.78,1.87h.06V148Zm-2.27,10.67a3.25,3.25,0,0,0-.11-.93,3.32,3.32,0,0,0-3.29-2.58c-2.35,0-3.75,2-3.75,4.72,0,2.48,1.24,4.52,3.7,4.52a3.4,3.4,0,0,0,3.34-2.65,3.74,3.74,0,0,0,.11-1Z"/><path class="cls-2" d="M420.88,149.12a22.66,22.66,0,0,1,4.11-.35c2.26,0,3.71.38,4.79,1.23a3.52,3.52,0,0,1,1.45,3,4,4,0,0,1-3,3.73h0a4.42,4.42,0,0,1,3.6,4.27,4.53,4.53,0,0,1-1.47,3.41c-1.22,1.08-3.19,1.59-6,1.59a25.54,25.54,0,0,1-3.49-.21Zm2.25,7h2c2.39,0,3.78-1.21,3.78-2.85,0-2-1.55-2.78-3.83-2.78a9.58,9.58,0,0,0-2,.15Zm0,8.15a13.3,13.3,0,0,0,1.89.1c2.33,0,4.48-.83,4.48-3.31,0-2.32-2.05-3.28-4.51-3.28h-1.86Z"/><path class="cls-2" d="M446.85,159.7c0,4.51-3.21,6.48-6.24,6.48-3.39,0-6-2.42-6-6.28,0-4.09,2.75-6.49,6.22-6.49A5.94,5.94,0,0,1,446.85,159.7Zm-9.94.12c0,2.68,1.58,4.7,3.8,4.7s3.81-2,3.81-4.75c0-2.07-1.06-4.69-3.76-4.69s-3.85,2.42-3.85,4.74Z"/><path class="cls-2" d="M460.78,162.57a30.57,30.57,0,0,0,.11,3.33h-2l-.13-2h-.05a4.76,4.76,0,0,1-4.15,2.27c-2,0-4.32-1.06-4.32-5.35v-7.14h2.28v6.76c0,2.33.72,3.89,2.79,3.89a3.29,3.29,0,0,0,3-2,3.1,3.1,0,0,0,.21-1.13v-7.5h2.27Z"/><path class="cls-2" d="M465.14,157a30.75,30.75,0,0,0-.11-3.31h2l.13,2h0a4.65,4.65,0,0,1,4.15-2.3c1.73,0,4.43,1,4.43,5.2v7.29h-2.28v-7c0-2-.75-3.61-2.9-3.61a3.23,3.23,0,0,0-3.06,2.28,3.37,3.37,0,0,0-.15,1v7.34h-2.28Z"/><path class="cls-2" d="M490.91,148v14.76a30.51,30.51,0,0,0,.1,3.15h-2l-.1-2.12h-.05a4.62,4.62,0,0,1-4.27,2.4c-3,0-5.36-2.5-5.36-6.21,0-4.06,2.56-6.56,5.61-6.56a4.25,4.25,0,0,1,3.79,1.87h.05V148Zm-2.28,10.67a3.25,3.25,0,0,0-.11-.93,3.32,3.32,0,0,0-3.29-2.58c-2.35,0-3.75,2-3.75,4.72,0,2.48,1.24,4.52,3.7,4.52a3.4,3.4,0,0,0,3.34-2.65,3.74,3.74,0,0,0,.11-1Z"/><path class="cls-2" d="M502.2,165.9l-.18-1.53h0a4.75,4.75,0,0,1-3.83,1.81,3.52,3.52,0,0,1-3.82-3.21c0-.1,0-.2,0-.3,0-2.95,2.7-4.56,7.54-4.54v-.25a2.54,2.54,0,0,0-2.23-2.83,2.15,2.15,0,0,0-.62,0,6.46,6.46,0,0,0-3.26.91l-.52-1.46a8,8,0,0,1,4.12-1.09c3.83,0,4.76,2.55,4.76,5V163a15.88,15.88,0,0,0,.21,2.92Zm-.34-6.23c-2.48,0-5.31.38-5.31,2.75a2,2,0,0,0,1.87,2.12,1.31,1.31,0,0,0,.28,0,3.1,3.1,0,0,0,3-2,2.17,2.17,0,0,0,.13-.71Z"/><path class="cls-2" d="M508.31,157.5c0-1.44,0-2.67-.1-3.81h2l.08,2.4h.1a3.76,3.76,0,0,1,3.47-2.68,2.82,2.82,0,0,1,.65.08v2.09a3.38,3.38,0,0,0-.78-.07,3.17,3.17,0,0,0-3.05,2.85,6.65,6.65,0,0,0-.11,1v6.51h-2.25Z"/><path class="cls-2" d="M520,150.26a1.41,1.41,0,0,1-2.82,0,1.37,1.37,0,0,1,1.33-1.39h.09a1.32,1.32,0,0,1,1.4,1.26Zm-2.54,15.64V153.69h2.28V165.9Z"/><path class="cls-2" d="M525.35,160.2a4,4,0,0,0,3.74,4.24,3.49,3.49,0,0,0,.56,0,8.42,8.42,0,0,0,3.47-.63l.39,1.59a10.43,10.43,0,0,1-4.17.76c-3.86,0-6.16-2.48-6.16-6.16s2.22-6.59,5.88-6.59c4.09,0,5.17,3.51,5.17,5.76a8.4,8.4,0,0,1-.07,1Zm6.68-1.59c0-1.41-.59-3.61-3.16-3.61-2.3,0-3.31,2.07-3.49,3.61Z"/><path class="cls-2" d="M537.32,163.63a6,6,0,0,0,3,.89c1.66,0,2.44-.81,2.44-1.82s-.65-1.64-2.33-2.25c-2.26-.78-3.32-2-3.32-3.45,0-2,1.63-3.59,4.33-3.59a6.33,6.33,0,0,1,3.08.76l-.57,1.61a5,5,0,0,0-2.57-.7c-1.34,0-2.09.75-2.09,1.66s.75,1.47,2.38,2.07c2.17.81,3.29,1.87,3.29,3.69,0,2.14-1.71,3.66-4.69,3.66a7.34,7.34,0,0,1-3.52-.84Z"/><path class="cls-1" d="M109.7,11.64A11.65,11.65,0,1,1,98,0h0A11.63,11.63,0,0,1,109.7,11.63Z"/><path class="cls-2" d="M82,167.18l.31.18A55.94,55.94,0,0,0,103.69,169l-.2-.18A56.13,56.13,0,0,1,82,167.18Z"/><path class="cls-2" d="M157.08,131.68c-.13.38-.26.76-.4,1.14C157,132,157.31,131.1,157.08,131.68Z"/><path class="cls-2" d="M80.53,166.83l1.17.37-.31-.2c-.7-.21-1.39-.44-2.07-.68Z"/><path class="cls-2" d="M51.41,141.23a11.18,11.18,0,0,0,2.26,4c-.06-.15.35-.16.29-.31-1.25-1.29-1.55-2.56-2.54-4.19C51.58,141,51.23,140.92,51.41,141.23Z"/><path class="cls-2" d="M47.16,133.16l.39,1a.21.21,0,0,0,.07.19c0-.12-.09-.25-.14-.37S47.26,133.44,47.16,133.16Z"/><path class="cls-2" d="M45,110.43a1.53,1.53,0,0,1,.14-.46,30.75,30.75,0,0,1-.33-5.59l-.15,1.11A30.24,30.24,0,0,0,45,110.43Z"/><path class="cls-2" d="M46.76,94l-.13.36c-.24.68-.45,1.37-.64,2a1.09,1.09,0,0,1,.13-.37C46.31,95.38,46.52,94.7,46.76,94Z"/><path class="cls-2" d="M125.6,59.93l-1.11-.47a40.06,40.06,0,0,1,4,2c.37.19.74.38,1.1.58A37.77,37.77,0,0,0,125.6,59.93Z"/><path class="cls-2" d="M46,96.57l-.14.38c-.23.88-.43,1.76-.6,2.65.09-.4.19-.8.3-1.19C45.67,97.79,45.81,97.18,46,96.57Z"/><path class="cls-2" d="M46.76,94l.29-.82A6.06,6.06,0,0,1,46.76,94Z"/><path class="cls-3" d="M53.19,126.61a37.4,37.4,0,0,0,15.71,9.08v-.62a37,37,0,0,1-15.61-9Z"/><path class="cls-3" d="M45.07,111a28.72,28.72,0,0,0,7.77,15.31l.09-.56a28.46,28.46,0,0,1-7.72-15.21A2.59,2.59,0,0,0,45.07,111Z"/><path class="cls-3" d="M142.46,99.34A48.84,48.84,0,0,1,132,116.2l.4.5A49.16,49.16,0,0,0,143,99.7Z"/><path class="cls-3" d="M69.42,135.23v.62a54.6,54.6,0,0,0,20.9,1.6,3.56,3.56,0,0,0-.14-.63A54.06,54.06,0,0,1,69.42,135.23Z"/><path class="cls-3" d="M90.83,136.75l.15.63a67.44,67.44,0,0,0,9.67-1.89,70.2,70.2,0,0,0,12.85-4.87l-.29-.59a69.06,69.06,0,0,1-12.77,4.84A64,64,0,0,1,90.83,136.75Z"/><path class="cls-3" d="M142.63,98.84l.47.39a33.61,33.61,0,0,0,1.56-15.82c-.12-.79-.26-1.56-.44-2.32l-.47-.28c.17.75.32,1.52.44,2.3A33.36,33.36,0,0,1,142.63,98.84Z"/><path class="cls-3" d="M113.8,129.74l.29.58A65.52,65.52,0,0,0,132,117.14l-.4-.5A65.5,65.5,0,0,1,113.8,129.74Z"/><path class="cls-3" d="M143.63,80.31l.47.29a28.76,28.76,0,0,0-8.85-14.52L135.1,66l-.34-.15A28.67,28.67,0,0,1,143.63,80.31Z"/><path class="cls-2" d="M134.43,65.51l-.12-.09.08.07Z"/><path class="cls-2" d="M122.88,86.53l.61.28a23.35,23.35,0,0,0,1.1-11.09c-.08-.55-.19-1.09-.31-1.63l-.63-.09a14.57,14.57,0,0,1,.31,1.6A23.19,23.19,0,0,1,122.88,86.53Z"/><path class="cls-2" d="M105.36,57.59l.35-.14a40.05,40.05,0,0,0-15-.41c0,.05-.09.1-.13.16A39.09,39.09,0,0,1,105.36,57.59Z"/><path class="cls-2" d="M90.15,57.27l.13-.15a45,45,0,0,0-4.72,1,49.25,49.25,0,0,0-10.87,4.4l.1.07a48.36,48.36,0,0,1,10.72-4.33A46.14,46.14,0,0,1,90.15,57.27Z"/><path class="cls-3" d="M117.68,63.29a27.41,27.41,0,0,0-11.58-5.75l-.36.14a27.15,27.15,0,0,1,11.41,5.67C117.32,63.33,117.5,63.3,117.68,63.29Z"/><path class="cls-3" d="M54.7,94.67l.4-.4A22.84,22.84,0,0,1,55.69,85l-.39.26A23.35,23.35,0,0,0,54.7,94.67Z"/><path class="cls-3" d="M74.4,62.83l-.11-.07a45.23,45.23,0,0,0-12,9.68l.29-.08A44.42,44.42,0,0,1,74.4,62.83Z"/><path class="cls-3" d="M123.57,73.65l.63.1A20.2,20.2,0,0,0,118,63.52a4.78,4.78,0,0,0-.53.06A20,20,0,0,1,123.57,73.65Z"/><path class="cls-3" d="M62.06,72.75a32.59,32.59,0,0,0-6.66,12.1l.39-.26a32.31,32.31,0,0,1,6.56-11.91Z"/><path class="cls-3" d="M60.45,106a26.17,26.17,0,0,0,11,6.36l.15-.67a25.71,25.71,0,0,1-10.85-6.26Z"/><path class="cls-3" d="M86.87,112.88c0,.23,0,.46.07.68a46.27,46.27,0,0,0,6.79-1.32,49.64,49.64,0,0,0,9-3.42c-.11-.2-.21-.4-.31-.61a47.92,47.92,0,0,1-15.55,4.67Z"/><path class="cls-3" d="M72,111.82a3.2,3.2,0,0,1-.14.67,38.13,38.13,0,0,0,14.65,1.12l-.07-.68A37.64,37.64,0,0,1,72,111.82Z"/><path class="cls-3" d="M102.83,108c.11.2.22.4.32.61a46.07,46.07,0,0,0,12.52-9.25l-.5-.47A45.09,45.09,0,0,1,102.83,108Z"/><path class="cls-3" d="M54.76,95a20,20,0,0,0,5.45,10.74l.31-.57A19.7,19.7,0,0,1,55.16,94.6Z"/><path class="cls-3" d="M122.76,86.88a34.13,34.13,0,0,1-7.3,11.72l.5.46a34.48,34.48,0,0,0,7.41-11.89Z"/><path class="cls-2" d="M80.91,70l-.24-.32A17.53,17.53,0,0,0,76,73.44l.47.14A16.74,16.74,0,0,1,80.91,70Z"/><path class="cls-2" d="M73.05,82.09l.61-.28a8.79,8.79,0,0,1,.22-3.5l-.6.1A9,9,0,0,0,73.05,82.09Z"/><path class="cls-3" d="M122.86,149l.21.46a73.46,73.46,0,0,0,20-14.76l-.22-.46A73.56,73.56,0,0,1,122.86,149Z"/><path class="cls-3" d="M155.15,114.73a55.18,55.18,0,0,1-11.83,19l.21.46a55.11,55.11,0,0,0,11.84-19Z"/><path class="cls-3" d="M97,156.86c.06.16.13.32.19.47A73.48,73.48,0,0,0,108,155.22a78.36,78.36,0,0,0,14.39-5.46l-.21-.46a77.78,77.78,0,0,1-14.38,5.45A73.35,73.35,0,0,1,97,156.86Z"/><path class="cls-3" d="M155.17,114c.08.15.5.75.58.9a37.91,37.91,0,0,0,1.89-17.32c-.1-.35-.47-1-.58-1.31,0,.06-.23-.07-.22,0A37.59,37.59,0,0,1,155.17,114Z"/><path class="cls-3" d="M72.87,155.15c.06.15.09.3.15.45a61.21,61.21,0,0,0,23.44,1.81c-.07-.15-.13-.31-.2-.47A60.74,60.74,0,0,1,72.87,155.15Z"/><path class="cls-3" d="M54.86,145.28a41.83,41.83,0,0,0,17.59,10.16l-.18-.47a41.62,41.62,0,0,1-17.59-10.16Z"/><path class="cls-2" d="M73.07,82.23a7.94,7.94,0,0,0,2.12,4.18l.51-.49a7.51,7.51,0,0,1-2-4Z"/><path class="cls-2" d="M92.55,68l.34-.42a15.4,15.4,0,0,0-5.82-.16.93.93,0,0,1-.07.43A14.8,14.8,0,0,1,92.55,68Z"/><path class="cls-2" d="M75.91,73.57a12.69,12.69,0,0,0-2.59,4.7l.6-.09a12.24,12.24,0,0,1,2.47-4.48Z"/><path class="cls-2" d="M86.83,67.91l.06-.43a16.6,16.6,0,0,0-1.83.4,19.13,19.13,0,0,0-4.23,1.71l.23.33a18.27,18.27,0,0,1,4-1.63A15.5,15.5,0,0,1,86.83,67.91Z"/><path class="cls-3" d="M75.29,86.5A10,10,0,0,0,79.57,89l.3-.61A9.82,9.82,0,0,1,75.79,86Z"/><path class="cls-3" d="M99.08,79a12.73,12.73,0,0,1-2.74,4.41l.54.36a13.3,13.3,0,0,0,2.89-4.63Z"/><path class="cls-3" d="M97.55,69.88A10.52,10.52,0,0,0,93,67.65l-.35.41A10.24,10.24,0,0,1,97,70.19Z"/><path class="cls-3" d="M99.13,78.9l.68.13a9,9,0,0,0,.43-4.31q0-.31-.12-.63l-.7.1a4.21,4.21,0,0,0,.11.6A8.58,8.58,0,0,1,99.13,78.9Z"/><path class="cls-3" d="M99.39,74.06l.7-.11a7.91,7.91,0,0,0-2.44-4l-.58.31A7.49,7.49,0,0,1,99.39,74.06Z"/><path class="cls-3" d="M91.6,87l.3.55A17.6,17.6,0,0,0,96.77,84l-.54-.37A17.11,17.11,0,0,1,91.6,87Z"/><path class="cls-3" d="M85.6,88.8h0v.64a16.86,16.86,0,0,0,2.64-.51,19.81,19.81,0,0,0,3.51-1.33l-.3-.55a17.86,17.86,0,0,1-3.33,1.27A18.06,18.06,0,0,1,85.6,88.8Z"/><path class="cls-3" d="M80,88.41c-.1.2-.2.41-.29.61a14.64,14.64,0,0,0,5.7.44v-.64A14.31,14.31,0,0,1,80,88.41Z"/><path class="cls-3" d="M158.14,128.15a58.79,58.79,0,0,0-.89-33s-1-2.88-1.14-3.22A58.43,58.43,0,0,0,138.22,67.7c-.5-.39-.51-.41-.62-.48a57.82,57.82,0,0,0-8-5.22c-.36-.2-.73-.39-1.1-.58a57.38,57.38,0,0,0-13.42-5c.24,0,.47.09.7.15l-.35-.09-.33-.07c-.24-.06-.48-.1-.71-.14A58.62,58.62,0,0,0,101.86,55a57.83,57.83,0,0,0-28.22,7.29h0l-.48.27h0a58.36,58.36,0,0,0-14.82,12,7.71,7.71,0,0,0-.7.7l-.39.46a9.16,9.16,0,0,1,.68-.71A58,58,0,0,0,46.55,95c-.16.36-.3.71-.43,1.08,0,.12-.09.25-.13.37-.11.32-.21.63-.3,1l-.21.76q.17-.6.36-1.2l.14-.38c.1-.29.21-.58.33-.86-.28.89-.54,1.79-.77,2.7-.11.39-.21.79-.3,1.19a58.46,58.46,0,0,0-1.31,19.4,25.92,25.92,0,0,0,.26,2.64l.16,1c-.14-.86-.24-1.73-.3-2.6a58.26,58.26,0,0,0,3.43,14,1.12,1.12,0,0,0,.14.37,58.24,58.24,0,0,0,97,18.36l-.17.19.41-.44a1.64,1.64,0,0,0,.21-.25,57.93,57.93,0,0,0,11.64-19.4c.14-.38.27-.76.4-1.14C157.37,130.79,158.08,128.57,158.14,128.15Zm-4,9.44c-.19.4-.38.8-.58,1.2A57.41,57.41,0,0,1,146.29,150a9.66,9.66,0,0,0,.52-2.31v-.28c.25-3.17-.64-7.26-2.84-12.23-.15-.34-.3-.69-.47-1l-.21-.46a93.42,93.42,0,0,0-11-17l-.4-.5a158.14,158.14,0,0,0-16-17.14l-.5-.46A159,159,0,0,0,96.88,83.8l-.54-.36a111.2,111.2,0,0,0-10.17-6.1,115.15,115.15,0,0,1,10.06,6.21l.54.37a163.41,163.41,0,0,1,18.4,15l.5.47a163.15,163.15,0,0,1,15.87,17.27l.4.5a95.65,95.65,0,0,1,10.91,17.07l.22.46.47,1c2.19,5,3.1,9,2.87,12.18v.28a9.31,9.31,0,0,1-.53,2.38q-1.5,1.78-3.17,3.44a57.84,57.84,0,0,1-14,10.31,11.07,11.07,0,0,0-.62-2.6,1.87,1.87,0,0,1-.07-.22c-.79-2.37-2.27-6-4.47-11-.15-.35-.3-.7-.46-1l-.21-.46c-2.45-5.48-5.46-11.86-8.77-18.65l-.29-.58c-3.33-6.81-7-14-10.65-21.12-.1-.21-.21-.41-.32-.61-3.68-7.1-7.41-14.1-10.93-20.49l-.3-.55c-1.88-3.41-3.71-6.65-5.43-9.63,1.67,3,3.44,6.27,5.27,9.71l.3.55c3.43,6.44,7.07,13.48,10.69,20.61.1.21.2.41.31.61,3.61,7.15,7.18,14.38,10.47,21.21l.29.59c3.27,6.81,9.37,19.8,9.52,20.14,2.2,5,3.54,8.67,4.37,11a.26.26,0,0,0,.07.21,11.57,11.57,0,0,1,.69,2.58,57.46,57.46,0,0,1-20.81,6.06,7.1,7.1,0,0,1-3-1.71l-.2-.17c-2.12-2-6.83-11.07-7-11.43-.06-.15-.13-.31-.19-.47a125,125,0,0,1-6-19.48l-.15-.63A213.93,213.93,0,0,1,87,113.56a2.28,2.28,0,0,0-.07-.68,204,204,0,0,1-1.33-23.44V88.8h0c0-4,.23-7.85.57-11.46-.4,3.62-.64,7.47-.74,11.48v.64a199.93,199.93,0,0,0,1,23.47l.07.68a206.81,206.81,0,0,0,3.7,23.21,2.85,2.85,0,0,0,.14.63,121.69,121.69,0,0,0,5.93,19.49c.07.16.13.32.2.47.15.36,4.88,9.46,7,11.42l.2.18a7.46,7.46,0,0,0,3,1.69c-1.59.13-3.21.2-4.84.2a57.69,57.69,0,0,1-19-3.2l-.61-.34-.31-.18c-3.35-2.06-6.25-5.55-8.44-10.52-.16-.34-.3-.69-.45-1l-.18-.47a57.26,57.26,0,0,1-3.44-19.3v-.62a100.49,100.49,0,0,1,2.42-22.74c0-.22.09-.45.14-.67A113.69,113.69,0,0,1,79.72,89c.09-.2.19-.41.29-.61h0a92.68,92.68,0,0,1,6.16-11.07,94.19,94.19,0,0,0-6.3,11l-.3.61a113,113,0,0,0-8,22.73l-.15.67A99,99,0,0,0,68.85,135v.62A56.56,56.56,0,0,0,72.27,155l.18.47.45,1.05c2.19,5,5.1,8.46,8.49,10.52l.31.19c.15.09.3.16.46.24-.55-.19-1.09-.4-1.63-.61l-1.21-.5A57.85,57.85,0,0,1,61,154c-1.47-1.48-2.86-3-4.18-4.66a27.49,27.49,0,0,1-1.56-3l-.44-1-.18-.47a36.55,36.55,0,0,1-1.49-18.2l.09-.56a63.46,63.46,0,0,1,7.17-20l.31-.57a86.39,86.39,0,0,1,14.53-19l.5-.49a89.47,89.47,0,0,1,10.38-8.67A89.62,89.62,0,0,0,75.7,86l-.51.49A85.42,85.42,0,0,0,60.52,105.2l-.31.57a62.54,62.54,0,0,0-7.28,19.93l-.09.56a36.16,36.16,0,0,0,1.46,18.16,1.43,1.43,0,0,0,.17.46c.14.35.29.7.44,1a26.39,26.39,0,0,0,1.35,2.65,57.86,57.86,0,0,1-4.85-7.34c-.18-.31-.35-.62-.52-.94a57.43,57.43,0,0,1-6.71-25,30,30,0,0,1,.89-4.39c0-.15.09-.31.14-.46A38.57,38.57,0,0,1,54.76,95l.4-.4A63.69,63.69,0,0,1,73.07,82.2l.61-.29a83.11,83.11,0,0,1,12.49-4.6c-23.78,6.45-39.88,21.47-42,37.05v-1.22a58,58,0,0,1,.51-7.68l.15-1.11a57.4,57.4,0,0,1,3.06-11.68,25.7,25.7,0,0,1,7.41-7.46l.39-.21a46.74,46.74,0,0,1,17.59-6.54l.6-.1a75.56,75.56,0,0,1,12.29-1,76.13,76.13,0,0,0-12.25.84l-.6.09a46.24,46.24,0,0,0-17.53,6.3l-.39.26A25.23,25.23,0,0,0,48.14,92,57.7,57.7,0,0,1,59.79,73.66a11.7,11.7,0,0,1,2.27-.91l.29-.07c3.44-.89,8-.62,13.56.89l.48.13a70.43,70.43,0,0,1,9.78,3.64,71,71,0,0,0-9.68-3.76l-.5-.14c-5.48-1.58-10-1.91-13.4-1.08l-.29.08a11.51,11.51,0,0,0-2.18.83c.3-.31.6-.61.89-.92a58.07,58.07,0,0,1,13-9.74l.29.15.11.07c1.32.85,3.43,3.13,6.27,6.85l.24.32q2.34,3,5.26,7.34Q83.33,73,81.06,69.92l-.23-.33c-2.76-3.76-4.79-6.09-6-7l-.1-.07-.27-.17a57.54,57.54,0,0,1,16.48-5.88,5.28,5.28,0,0,0-.62.63l-.13.15c-1.45,1.83-2.58,5.25-3.26,10.21l-.06.43a93,93,0,0,0-.66,9.43A93.12,93.12,0,0,1,87,67.88a.93.93,0,0,1,.07-.43c.78-5,2-8.41,3.53-10.25,0-.06.09-.11.13-.16a7.07,7.07,0,0,1,.69-.65A58.24,58.24,0,0,1,111,56.16a17.22,17.22,0,0,0-5.23,1.29l-.35.14c-4.13,1.78-8.38,5.13-12.47,10L92.6,68a70.34,70.34,0,0,0-6.38,9.31A70.37,70.37,0,0,1,92.74,68l.35-.41c4.18-4.87,8.5-8.21,12.7-10l.36-.14a17.69,17.69,0,0,1,5.45-1.28,57.56,57.56,0,0,1,22.76,9.16l.12.09h0a32.26,32.26,0,0,0-16.71-2.2,1.57,1.57,0,0,0-.53.06,56.71,56.71,0,0,0-19.6,6.53l-.57.31a79.3,79.3,0,0,0-10.81,7.15,79.29,79.29,0,0,1,10.9-7.06l.58-.31a57.23,57.23,0,0,1,19.76-6.39,4.78,4.78,0,0,1,.53-.06,32.81,32.81,0,0,1,16.82,2.3l.34.15.15.11a57.8,57.8,0,0,1,20,25.09A33.16,33.16,0,0,0,144.1,80.6l-.47-.29a54.88,54.88,0,0,0-19.43-6.56l-.63-.1a79.31,79.31,0,0,0-23.48.3l-.7.11a88.66,88.66,0,0,0-13.22,3.28,88.64,88.64,0,0,1,13.25-3.15l.7-.1A79.31,79.31,0,0,1,123.65,74l.63.09a55.68,55.68,0,0,1,19.47,6.72l.47.28a33.55,33.55,0,0,1,11.41,11c.53,1.34,1,2.71,1.43,4.11.11.34.21.69.31,1a58,58,0,0,1,.94,28,24.58,24.58,0,0,0-2.26-9.65l-.48-1c-.08-.15-.15-.3-.22-.45A49.45,49.45,0,0,0,143.1,99.18l-.47-.39a87.59,87.59,0,0,0-19.14-12l-.61-.28A103.94,103.94,0,0,0,99.81,79l-.68-.13a91.53,91.53,0,0,0-13-1.56,92.53,92.53,0,0,1,13,1.69l.69.14a105.3,105.3,0,0,1,23,7.71l.61.29a89.11,89.11,0,0,1,19.09,12.17l.46.4a50.1,50.1,0,0,1,12.23,15l.22.45c.17.34.33.69.48,1a24.35,24.35,0,0,1,2.27,10,57,57,0,0,1-3.95,11.43Z"/><path class="cls-3" d="M128,161.48a1.87,1.87,0,0,0,.07.22,67.24,67.24,0,0,0,18.31-13.53v-.28A67.42,67.42,0,0,1,128,161.48Z"/><path class="cls-3" d="M146.81,147.72a55.05,55.05,0,0,0,6.79-8.93c.2-.4.39-.8.58-1.2a54.73,54.73,0,0,1-7.34,9.85Z"/><path class="cls-3" d="M104,168.73l.19.18a68.3,68.3,0,0,0,9.93-1.93,73.69,73.69,0,0,0,13.35-5.07v-.17a78.36,78.36,0,0,1-13.44,5A63.35,63.35,0,0,1,104,168.73Z"/><path class="cls-3" d="M82,167.21c0,.07.33.16.48.22a59.24,59.24,0,0,0,9.15,1.62,60.46,60.46,0,0,0,12.4-.14c0-.06-.06-.09,0-.15a64.32,64.32,0,0,1-12.41.09A66.67,66.67,0,0,1,82,167.21Z"/><path class="cls-4" d="M114.28,64.68C74.81,24.67,27.39,7.46,8.37,26.22S6,92.63,45.41,132.64c38.75,39.27,85.16,56.58,104.84,39.45.36-.32.72-.66,1.07-1C170.34,152.33,153.75,104.68,114.28,64.68Zm32.81,105c-.32.3-.65.58-1,.85C128,185.17,85.47,170.48,50,137,13.88,102.91-1.23,62.24,16.26,46.16s61-1.46,97.08,32.63,51.24,74.77,33.75,90.84Z"/><path class="cls-5" d="M114.28,64.68C74.81,24.67,27.39,7.46,8.37,26.22S6,92.63,45.41,132.64c38.75,39.27,85.16,56.58,104.84,39.45.36-.32.72-.66,1.07-1C170.34,152.33,153.75,104.68,114.28,64.68Zm32.81,105c-.32.3-.65.58-1,.85C128,185.17,85.47,170.48,50,137,13.88,102.91-1.23,62.24,16.26,46.16s61-1.46,97.08,32.63,51.24,74.77,33.75,90.84Z"/><path class="cls-6" d="M179.75,19.45c-21.1-16.39-66.16,6.31-100.63,50.69s-45.31,93.66-24.21,110c.38.3.77.59,1.17.86,21.57,14.69,65.61-8,99.45-51.55C190,85.11,200.85,35.84,179.75,19.45ZM151.48,134.38C120.22,171.8,79.71,191.41,60,179c-.37-.24-.73-.48-1.08-.73-19.27-13.9-9.07-56.07,22.78-94.2S155,26.29,174.27,40.18,183.34,96.26,151.48,134.38Z"/><path class="cls-7" d="M179.75,19.45c-21.1-16.39-66.16,6.31-100.63,50.69s-45.31,93.66-24.21,110c.38.3.77.59,1.17.86,21.57,14.69,65.61-8,99.45-51.55C190,85.11,200.85,35.84,179.75,19.45ZM151.48,134.38C120.22,171.8,79.71,191.41,60,179c-.37-.24-.73-.48-1.08-.73-19.27-13.9-9.07-56.07,22.78-94.2S155,26.29,174.27,40.18,183.34,96.26,151.48,134.38Z"/></g></g></g></g></svg>