<svg xmlns="http://www.w3.org/2000/svg" width="92" height="33" viewBox="0 0 92 33">
  <g id="Group_513" data-name="Group 513" transform="translate(-268 -93)">
    <g id="Rectangle_1549" data-name="Rectangle 1549" transform="translate(268 93)" fill="none" stroke="#1f3689" stroke-width="1">
      <rect width="92" height="33" rx="5" stroke="none"/>
      <rect x="0.5" y="0.5" width="91" height="32" rx="4.5" fill="none"/>
    </g>
    <text id="Full_Name" data-name="Full Name" transform="translate(301 117)" fill="#1f3689" font-size="20" font-family="SourceSansPro-Bold, Source Sans Pro" font-weight="700"><tspan x="0" y="0">Seller</tspan></text>
    <g id="Group_236" data-name="Group 236" transform="translate(158.233 21.011)">
      <g id="Group_171" data-name="Group 171" transform="translate(119.093 80.989)">
        <path id="Subtraction_9" data-name="Subtraction 9" d="M12.767,9.753H.431a.416.416,0,0,0-.064-.025A.411.411,0,0,1,.3,9.7.539.539,0,0,1,0,9.207c0-2.567,0-5.175,0-7.7V.151A.627.627,0,0,1,0,.073.073.073,0,0,1,.075,0,.642.642,0,0,1,.152,0H13.026c.168,0,.172,0,.172.178q0,3.81,0,7.619V9.14a.6.6,0,0,1-.431.613Zm-6.2-8.288A3.451,3.451,0,0,0,3.194,4.928,3.434,3.434,0,0,0,6.572,8.284H6.59a3.409,3.409,0,1,0-.021-6.819Z" transform="translate(0.655 5.55)" fill="none" stroke="#1f3689" stroke-width="0.5"/>
        <path id="Path_1964" data-name="Path 1964" d="M-1503.281,2485.379a.962.962,0,0,1-.738.467,2.963,2.963,0,0,1-.924.023,2.1,2.1,0,0,1-.967-.318.645.645,0,0,1-.308-.421c-.115-.485-.2-.976-.295-1.466-.139-.738-.275-1.476-.415-2.212a.186.186,0,0,1,.04-.171.726.726,0,0,1,.339-.211,2.38,2.38,0,0,1,1.086-.086,2.1,2.1,0,0,1,.7.2.57.57,0,0,1,.306.343c.384,1.173.77,2.345,1.116,3.53.021.071.039.143.059.214Z" transform="translate(1517.796 -2480.959)" fill="#1f3689" stroke="#1f3689" stroke-width="0.5"/>
        <path id="Path_1966" data-name="Path 1966" d="M-1840,2483.432c-.016.6-.036,1.191-.053,1.786a.594.594,0,0,1-.288.512,1.756,1.756,0,0,1-.731.269,3.17,3.17,0,0,1-1.071-.007,1.5,1.5,0,0,1-.626-.263.476.476,0,0,1-.2-.475c.111-.861.25-1.718.381-2.576.053-.346.112-.692.173-1.038a.411.411,0,0,1,.223-.308,1.682,1.682,0,0,1,.558-.188,2.657,2.657,0,0,1,1.3.1c.031.011.063.025.093.039a.4.4,0,0,1,.261.392c0,.495-.015.989-.02,1.483C-1840,2483.25-1840,2483.341-1840,2483.432Z" transform="translate(1846.84 -2481.106)" fill="#1f3689" stroke="#1f3689" stroke-width="0.5"/>
        <path id="Path_1967" data-name="Path 1967" d="M-1661.349,2483.538q-.01-.773-.019-1.544a2.207,2.207,0,0,1,.026-.381.237.237,0,0,1,.122-.179,1.714,1.714,0,0,1,.739-.222,2.716,2.716,0,0,1,1.086.109,1.7,1.7,0,0,1,.267.126.383.383,0,0,1,.2.283c.1.51.171,1.024.248,1.538.084.563.164,1.126.244,1.689.021.146.036.294.056.441a.4.4,0,0,1-.128.352,1.156,1.156,0,0,1-.595.305,2.724,2.724,0,0,1-1.638-.1,1.488,1.488,0,0,1-.292-.161.572.572,0,0,1-.269-.5c0-.531-.021-1.061-.033-1.591,0-.057,0-.114,0-.172Z" transform="translate(1669.016 -2481.196)" fill="#1f3689" stroke="#1f3689" stroke-width="0.5"/>
        <path id="Path_1968" data-name="Path 1968" d="M-2027.407,2486.026a1.962,1.962,0,0,1-.934-.171.729.729,0,0,1-.221-.144.368.368,0,0,1-.117-.392c.155-.571.344-1.131.524-1.694.217-.677.435-1.353.668-2.024a.422.422,0,0,1,.18-.226,1.824,1.824,0,0,1,.792-.261,2.925,2.925,0,0,1,.992.058.855.855,0,0,1,.4.207.225.225,0,0,1,.073.224c-.219,1.206-.455,2.408-.691,3.611a.662.662,0,0,1-.286.436,1.969,1.969,0,0,1-.947.346C-2027.121,2486.01-2027.264,2486.017-2027.407,2486.026Z" transform="translate(2028.695 -2481.093)" fill="#1f3689" stroke="#1f3689" stroke-width="0.5"/>
        <path id="Path_1969" data-name="Path 1969" d="M-1790.539,3026.817a2.96,2.96,0,0,1-1.53-.409,3.45,3.45,0,0,1-.748-.631.158.158,0,0,1-.023-.206,1.212,1.212,0,0,1,.483-.475,8.753,8.753,0,0,1,.9-.4c.055-.022.082,0,.111.038a1.115,1.115,0,0,0,.576.394.939.939,0,0,0,.912-.222c.069-.059.13-.128.193-.193.019-.02.034-.038.066-.024a6.187,6.187,0,0,1,1,.462,1.645,1.645,0,0,1,.357.346.189.189,0,0,1-.007.3,2.937,2.937,0,0,1-1.028.754A3.165,3.165,0,0,1-1790.539,3026.817Z" transform="translate(1797.778 -3013.367)" fill="#1f3689"/>
        <path id="Path_1970" data-name="Path 1970" d="M-1738.34,2888.666a.91.91,0,0,1-.752-.457c-.13-.218-.245-.445-.377-.663a.813.813,0,0,1-.109-.464.325.325,0,0,1,.068-.2.228.228,0,0,0,.042-.139,4.345,4.345,0,0,1,.035-.513.879.879,0,0,1,.532-.674,1.329,1.329,0,0,1,1.146.014.561.561,0,0,1,.331.38.292.292,0,0,0,.06.117.6.6,0,0,1,.128.361c.006.083.009.166.011.249a.446.446,0,0,0,.068.242.516.516,0,0,1,.026.394.716.716,0,0,1-.1.254c-.134.2-.24.425-.363.634A.916.916,0,0,1-1738.34,2888.666Z" transform="translate(1745.599 -2877.01)" fill="#1f3689"/>
      </g>
    </g>
  </g>
</svg>
