<?xml version="1.0" encoding="utf-8"?>
<!-- Generator: Adobe Illustrator 24.1.1, SVG Export Plug-In . SVG Version: 6.00 Build 0)  -->
<svg version="1.1" id="Layer_1" xmlns="http://www.w3.org/2000/svg" xmlns:xlink="http://www.w3.org/1999/xlink" x="0px" y="0px"
	 viewBox="0 0 581.81 248.17" style="enable-background:new 0 0 581.81 248.17;" xml:space="preserve">
<style type="text/css">
	.st0{fill:#1C8943;}
	.st1{fill:#26306A;}
	.st2{fill:#F15E22;}
	.st3{font-family:'Impact';}
	.st4{font-size:96.7183px;}
	.st5{fill:#1B8943;}
	.st6{fill:#252F6A;}
	.st7{font-family:'MyriadPro-Regular';}
	.st8{font-size:25.2369px;}
	.st9{fill:#197139;}
	.st10{fill:#FFFFFF;}
	.st11{fill:#F15F24;}
	.st12{fill:none;stroke:#F15F24;}
	.st13{fill:none;stroke:#1B8943;}
	.st14{fill:none;stroke:#5E6970;stroke-width:0.5;stroke-miterlimit:10;stroke-dasharray:1.9989,3.9978;}
</style>
<g>
	<g>
		<g>
			<path class="st0" d="M87.26,188.38c0.08,0.1,0.16,0.2,0.24,0.3c5.79,4.18,12.89,7.41,20.92,9.35c-0.04-0.08-0.09-0.16-0.13-0.25
				C100.21,195.84,93.08,192.58,87.26,188.38z"/>
			<path class="st0" d="M135.51,199.2c0,0.08,0,0.16,0,0.24c8.39-1.07,16.3-3.5,23.23-6.99c0.04-0.09,0.09-0.18,0.13-0.28
				C151.9,195.69,143.95,198.13,135.51,199.2z"/>
			<path class="st0" d="M108.98,197.94c0.04,0.08,0.09,0.17,0.13,0.25c3.4,0.78,6.96,1.33,10.65,1.62c5.1,0.4,10.14,0.29,15.02-0.28
				c0-0.08,0-0.16,0-0.24c-4.91,0.58-9.97,0.69-15.1,0.29C115.98,199.28,112.4,198.73,108.98,197.94z"/>
			<path class="st0" d="M159.33,192.15c3.65-1.89,7.01-4.08,10.02-6.52c0.34-0.33,0.68-0.66,1.01-1c-3.23,2.73-6.9,5.17-10.9,7.24
				C159.42,191.97,159.37,192.06,159.33,192.15z"/>
			<path class="st1" d="M176.83,178.12c0.81-1.02,1.56-2.07,2.26-3.14l0.64-1.02c-0.81,1.31-1.71,2.58-2.68,3.81
				C176.98,177.89,176.9,178,176.83,178.12z"/>
			<path class="st1" d="M175.39,179.74c-0.27,0.34-0.54,0.67-0.81,1c0.65-0.7,1.28-1.42,1.87-2.16c0.07-0.12,0.15-0.23,0.22-0.35
				C176.26,178.74,175.83,179.24,175.39,179.74z"/>
			<path class="st1" d="M85.97,187.53c0.34,0.27,0.69,0.53,1.04,0.79c-0.08-0.1-0.17-0.2-0.25-0.3c-0.63-0.46-1.24-0.94-1.83-1.43
				C85.27,186.91,85.62,187.22,85.97,187.53z"/>
			<path class="st0" d="M65.93,151.38c0.47,1.62,1.06,3.21,1.77,4.77c-0.01-0.18-0.01-0.35-0.01-0.53
				c-0.79-1.74-1.43-3.53-1.93-5.36C65.81,150.64,65.87,151.01,65.93,151.38z"/>
			<path class="st0" d="M134.85,184.8c0.01,0.18,0.03,0.36,0.04,0.54c9.16-1.17,17.8-3.81,25.37-7.63
				c-0.02-0.18-0.03-0.36-0.05-0.54C152.65,180.99,144.01,183.64,134.85,184.8z"/>
			<path class="st0" d="M179.54,162.04c-4.78,5.88-11.19,10.92-18.69,14.81c0.02,0.18,0.04,0.36,0.05,0.54
				c7.5-3.88,13.92-8.93,18.7-14.81C179.58,162.39,179.56,162.22,179.54,162.04z"/>
			<path class="st0" d="M106.06,183.44c0.01,0.18,0.02,0.36,0.03,0.54c3.71,0.85,7.6,1.45,11.63,1.77
				c5.56,0.44,11.07,0.32,16.4-0.31c-0.01-0.18-0.03-0.36-0.04-0.54c-5.33,0.63-10.83,0.75-16.39,0.31
				C113.65,184.89,109.76,184.29,106.06,183.44z"/>
			<path class="st0" d="M67.95,156.69c2.96,6.26,7.76,11.89,14,16.51c-0.01-0.18-0.01-0.36-0.02-0.54
				c-6.24-4.62-11.04-10.25-14-16.51C67.94,156.34,67.94,156.51,67.95,156.69z"/>
			<path class="st1" d="M64.57,141.76l0.02,1.16c0,0.07,0.01,0.15,0.01,0.22c0-0.14-0.01-0.29-0.01-0.43
				C64.58,142.39,64.57,142.08,64.57,141.76z"/>
			<path class="st0" d="M179.95,161.53c0.02,0.18,0.04,0.36,0.06,0.53c3.98-5.04,6.77-10.68,8.03-16.73
				c0.02-0.39,0.04-0.78,0.06-1.16c-0.01,0.07-0.02,0.14-0.04,0.22C186.84,150.59,184.02,156.38,179.95,161.53z"/>
			<path class="st0" d="M72.97,137.36c2.64,5.59,6.93,10.62,12.5,14.74c0.07-0.21,0.14-0.41,0.21-0.62
				c-5.54-4.1-9.8-9.1-12.42-14.65C73.16,137,73.07,137.18,72.97,137.36z"/>
			<path class="st0" d="M70.45,118.73c-1.13,6.36-0.25,12.53,2.3,18.15c0.1-0.18,0.19-0.35,0.29-0.53
				c-2.53-5.58-3.42-11.71-2.29-18.04C70.65,118.45,70.55,118.59,70.45,118.73z"/>
			<path class="st0" d="M70.55,118.18c0.1-0.14,0.2-0.28,0.3-0.42c0.38-1.96,0.95-3.87,1.68-5.72c-0.19,0.35-0.37,0.7-0.55,1.06
				C71.37,114.75,70.89,116.45,70.55,118.18z"/>
			<path class="st0" d="M172.33,142.05c-4.24,5.22-9.93,9.7-16.59,13.14c0.07,0.22,0.15,0.43,0.22,0.65
				c6.7-3.47,12.43-7.97,16.69-13.22C172.55,142.42,172.44,142.24,172.33,142.05z"/>
			<path class="st0" d="M86.16,151.83c-0.07,0.21-0.14,0.42-0.21,0.63c5.64,4.07,12.56,7.22,20.39,9.11
				c0.03-0.23,0.06-0.45,0.08-0.68C98.65,159.01,91.77,155.87,86.16,151.83z"/>
			<path class="st1" d="M78.22,102.35l-0.26,0.32c-0.48,0.6-0.94,1.21-1.38,1.83c0.09-0.11,0.18-0.22,0.27-0.33
				C77.28,103.55,77.74,102.94,78.22,102.35z"/>
			<path class="st1" d="M169.57,96.45l-0.95-0.88c1.2,1.09,2.33,2.24,3.37,3.42c0.3,0.32,0.6,0.65,0.9,0.98
				C171.86,98.75,170.76,97.58,169.57,96.45z"/>
			<path class="st0" d="M107.1,161.04c-0.03,0.23-0.05,0.45-0.08,0.68c3.31,0.76,6.78,1.3,10.38,1.58
				c4.97,0.39,9.88,0.28,14.64-0.28c-0.02-0.23-0.05-0.46-0.07-0.69c-4.73,0.56-9.61,0.67-14.55,0.28
				C113.84,162.33,110.39,161.8,107.1,161.04z"/>
			<path class="st0" d="M172.69,141.6c0.11,0.19,0.22,0.38,0.33,0.56c3.64-4.6,6.16-9.77,7.25-15.31c0.16-0.83,0.29-1.66,0.39-2.48
				c-0.12-0.15-0.25-0.3-0.37-0.45c-0.09,0.82-0.22,1.64-0.38,2.47C178.81,131.89,176.31,137.02,172.69,141.6z"/>
			<path class="st1" d="M76.52,104.62c-0.09,0.11-0.18,0.22-0.27,0.33c-0.55,0.8-1.07,1.61-1.56,2.44c0.24-0.37,0.48-0.73,0.73-1.09
				C75.77,105.74,76.13,105.18,76.52,104.62z"/>
			<path class="st0" d="M132.66,162.25c0.03,0.23,0.05,0.46,0.08,0.69c8.18-1.04,15.89-3.41,22.65-6.82
				c-0.07-0.22-0.14-0.43-0.22-0.65C148.46,158.87,140.79,161.22,132.66,162.25z"/>
			<path class="st1" d="M78.22,102.35l0.58-0.72C78.6,101.87,78.41,102.11,78.22,102.35z"/>
			<path class="st0" d="M180.34,123.37c0.13,0.15,0.25,0.3,0.37,0.45c0.61-6.27-0.73-12.3-3.67-17.74c-0.04-0.05-0.08-0.1-0.11-0.16
				c-0.1-0.09-0.19-0.19-0.29-0.28C179.6,111.08,180.95,117.11,180.34,123.37z"/>
			<path class="st1" d="M176.42,105.21c-0.03-0.04-0.06-0.08-0.09-0.13c0.02,0.03,0.04,0.06,0.05,0.09
				C176.4,105.19,176.41,105.2,176.42,105.21z"/>
			<path class="st0" d="M160.41,96.97c-2.15-3.81-5.42-7.2-9.55-9.93c-0.14,0.01-0.27,0.01-0.41,0.02c4.08,2.68,7.3,6.02,9.41,9.78
				C160.04,96.88,160.23,96.92,160.41,96.97z"/>
			<path class="st0" d="M85.95,105.85c0.18-0.09,0.36-0.17,0.55-0.26c0.64-3.26,2-6.33,3.94-9.13c-0.16,0.04-0.33,0.08-0.49,0.12
				C87.98,99.42,86.6,102.54,85.95,105.85z"/>
			<path class="st0" d="M117.15,80.98c-0.03-0.04-0.06-0.07-0.09-0.11c-5.65,0.97-10.92,2.84-15.47,5.41
				c0.1,0.01,0.21,0.02,0.31,0.03C106.39,83.77,111.59,81.93,117.15,80.98z"/>
			<path class="st0" d="M162.6,109.49c0.2,0.11,0.4,0.21,0.59,0.32c0.43-4.42-0.52-8.67-2.61-12.51c-0.18-0.05-0.37-0.09-0.56-0.13
				C162.09,100.94,163.03,105.13,162.6,109.49z"/>
			<path class="st0" d="M157.29,122.16c0.17,0.17,0.34,0.34,0.51,0.51c2.55-3.23,4.32-6.85,5.08-10.74c0.11-0.58,0.2-1.16,0.27-1.74
				c-0.2-0.11-0.39-0.22-0.59-0.32c-0.06,0.57-0.15,1.14-0.27,1.72C161.54,115.41,159.8,118.98,157.29,122.16z"/>
			<path class="st0" d="M101.2,86.5c-4.52,2.62-8.3,5.93-11.03,9.75c0.16-0.04,0.32-0.08,0.48-0.12c2.68-3.76,6.41-7.03,10.86-9.6
				C101.41,86.52,101.31,86.51,101.2,86.5z"/>
			<path class="st0" d="M150.09,86.83c0.14-0.01,0.27-0.02,0.41-0.02c-4.19-2.68-9.23-4.69-14.88-5.78
				c-0.06,0.03-0.13,0.07-0.19,0.11C141,82.21,145.97,84.19,150.09,86.83z"/>
			<path class="st0" d="M87.65,119.3c1.85,3.92,4.86,7.45,8.77,10.34c0.13-0.21,0.26-0.41,0.39-0.61
				c-3.85-2.85-6.81-6.33-8.64-10.18C87.99,118.99,87.82,119.14,87.65,119.3z"/>
			<path class="st0" d="M111.69,135.67c-0.06,0.24-0.11,0.47-0.17,0.71c2.32,0.54,4.76,0.91,7.28,1.11c3.48,0.27,6.93,0.2,10.27-0.2
				c-0.03-0.24-0.06-0.48-0.09-0.72c-3.29,0.39-6.68,0.46-10.11,0.19C116.38,136.57,113.98,136.2,111.69,135.67z"/>
			<path class="st0" d="M97.14,129.27c-0.13,0.2-0.26,0.41-0.39,0.61c3.96,2.85,8.81,5.07,14.3,6.39c0.06-0.24,0.12-0.47,0.18-0.71
				C105.82,134.26,101.04,132.08,97.14,129.27z"/>
			<path class="st0" d="M134.95,81.05c0.06-0.04,0.12-0.07,0.18-0.11c-1.65-0.3-3.35-0.52-5.1-0.66c-4.26-0.34-8.46-0.15-12.48,0.5
				c0.03,0.03,0.05,0.07,0.08,0.11c3.96-0.64,8.1-0.83,12.3-0.5C131.65,80.53,133.32,80.75,134.95,81.05z"/>
			<path class="st0" d="M129.46,136.52c0.03,0.24,0.07,0.48,0.1,0.72c5.74-0.73,11.14-2.39,15.88-4.78
				c-0.11-0.22-0.22-0.43-0.33-0.65C140.44,134.16,135.12,135.8,129.46,136.52z"/>
			<path class="st0" d="M85.88,106.24c-0.79,4.46-0.17,8.79,1.61,12.73c0.17-0.15,0.35-0.3,0.52-0.45
				c-1.76-3.88-2.37-8.14-1.59-12.54C86.24,106.06,86.06,106.15,85.88,106.24z"/>
			<path class="st0" d="M157.04,122.47c-2.95,3.63-6.91,6.74-11.53,9.14c0.11,0.22,0.23,0.43,0.34,0.65
				c4.7-2.43,8.71-5.59,11.71-9.27C157.38,122.81,157.21,122.64,157.04,122.47z"/>
			<path class="st0" d="M121.11,90.51c-0.04-0.14-0.09-0.28-0.13-0.41c-2.2,0.38-4.25,1.11-6.02,2.11c0.14,0.1,0.28,0.21,0.42,0.31
				C117.07,91.56,119.02,90.87,121.11,90.51z"/>
			<path class="st0" d="M108.88,99.82c0.24-0.02,0.48-0.04,0.72-0.06c0.24-1.22,0.75-2.38,1.48-3.43c-0.22-0.04-0.43-0.08-0.64-0.11
				C109.67,97.32,109.13,98.53,108.88,99.82z"/>
			<path class="st0" d="M108.85,99.97c-0.31,1.74-0.07,3.42,0.63,4.95c0.23-0.1,0.46-0.2,0.69-0.31c-0.66-1.46-0.89-3.06-0.6-4.71
				C109.33,99.92,109.09,99.94,108.85,99.97z"/>
			<path class="st0" d="M109.54,105.05c0.72,1.52,1.89,2.9,3.41,4.02c0.17-0.17,0.35-0.34,0.52-0.51c-1.45-1.07-2.56-2.38-3.24-3.83
				C110,104.84,109.77,104.94,109.54,105.05z"/>
			<path class="st0" d="M136.1,106.1c-1.11,1.36-2.59,2.53-4.33,3.43c0.14,0.19,0.28,0.37,0.41,0.56c1.83-0.94,3.39-2.17,4.55-3.61
				C136.52,106.35,136.31,106.22,136.1,106.1z"/>
			<path class="st0" d="M137.85,96.36c-0.84-1.48-2.11-2.8-3.72-3.86c-0.17,0.1-0.34,0.19-0.51,0.29c1.53,1.01,2.74,2.26,3.54,3.67
				C137.39,96.43,137.62,96.4,137.85,96.36z"/>
			<path class="st0" d="M136.19,105.98c0.21,0.12,0.43,0.25,0.64,0.38c0.99-1.25,1.68-2.66,1.98-4.18c0.05-0.23,0.08-0.45,0.11-0.68
				c-0.25-0.05-0.49-0.1-0.74-0.15c-0.02,0.22-0.06,0.43-0.1,0.65C137.79,103.44,137.14,104.78,136.19,105.98z"/>
			<path class="st0" d="M133.49,92.71c0.17-0.1,0.33-0.2,0.5-0.3c-1.63-1.04-3.59-1.82-5.79-2.25c-0.07,0.13-0.15,0.27-0.22,0.41
				C130.07,90.97,131.94,91.71,133.49,92.71z"/>
			<path class="st0" d="M114.81,92.29c-1.76,1.02-3.23,2.31-4.29,3.79c0.21,0.04,0.42,0.08,0.64,0.12c1.01-1.41,2.41-2.64,4.08-3.61
				C115.1,92.49,114.96,92.39,114.81,92.29z"/>
			<path class="st0" d="M138.19,101.22c0.25,0.05,0.49,0.09,0.74,0.14c0.17-1.72-0.2-3.38-1.01-4.87c-0.23,0.03-0.46,0.06-0.69,0.1
				C138,98.01,138.35,99.58,138.19,101.22z"/>
			<path class="st0" d="M127.8,90.54c0.07-0.14,0.14-0.28,0.21-0.41c-0.64-0.12-1.31-0.2-1.98-0.26c-1.66-0.13-3.29-0.06-4.86,0.19
				c0.04,0.14,0.08,0.27,0.12,0.41c1.49-0.24,3.04-0.31,4.62-0.19C126.56,90.34,127.19,90.42,127.8,90.54z"/>
			<path class="st0" d="M125.74,111.37c0.03,0.22,0.07,0.44,0.1,0.66c2.23-0.29,4.33-0.93,6.18-1.86c-0.13-0.19-0.27-0.38-0.41-0.57
				C129.86,110.49,127.86,111.1,125.74,111.37z"/>
			<path class="st0" d="M119.06,111.06L119.06,111.06c-0.08,0.21-0.16,0.42-0.23,0.64c0.9,0.21,1.85,0.36,2.83,0.43
				c1.35,0.11,2.7,0.08,3.99-0.08c-0.03-0.22-0.06-0.44-0.1-0.66c-1.24,0.15-2.51,0.17-3.8,0.07
				C120.82,111.39,119.92,111.26,119.06,111.06z"/>
			<path class="st0" d="M113.59,108.65c-0.17,0.17-0.34,0.34-0.51,0.51c1.54,1.11,3.43,1.97,5.56,2.49
				c0.08-0.21,0.16-0.42,0.24-0.64C116.86,110.53,115.06,109.71,113.59,108.65z"/>
			<path class="st1" d="M188.57,148.49l0.11-1.07c0.15-1.54,0.17-3.11,0.05-4.69c-0.01-0.18-0.03-0.36-0.05-0.54
				c0.01-0.48,0.01-0.95,0-1.43c0-0.4-0.01-0.8-0.02-1.19c-0.32-10.98-3.56-21.59-9.23-30.79c0.77,1.01,1.45,2.08,2.06,3.2
				l-0.45-0.82c-0.61-1.08-1.29-2.11-2.05-3.09c-1.81-2.85-3.85-5.56-6.11-8.1c-0.29-0.33-0.59-0.65-0.9-0.98
				c-3.44-3.69-7.35-6.98-11.69-9.78c0.22,0.13,0.43,0.26,0.64,0.4l-0.33-0.21l-0.3-0.19c-0.22-0.14-0.44-0.27-0.67-0.4
				c-3.74-2.35-7.79-4.33-12.12-5.88c-10.28-3.68-20.88-4.47-30.94-2.82c0,0-0.01,0-0.01,0l-0.58,0.1c0.01,0,0.01,0,0.02,0
				c-6.74,1.17-13.23,3.46-19.19,6.72c-0.32,0.13-0.64,0.28-0.95,0.45l-0.56,0.32c0.3-0.18,0.62-0.32,0.94-0.46
				c-7.12,3.99-13.48,9.4-18.61,15.99c-0.28,0.3-0.55,0.6-0.82,0.92c-0.09,0.11-0.18,0.22-0.27,0.33c-0.22,0.28-0.43,0.56-0.64,0.85
				l-0.49,0.69c0.25-0.37,0.52-0.73,0.8-1.08c0.09-0.11,0.18-0.22,0.27-0.33c0.21-0.25,0.42-0.5,0.65-0.74
				c-0.6,0.79-1.18,1.6-1.75,2.43c-0.25,0.36-0.49,0.72-0.73,1.09c-2.61,4-4.79,8.36-6.47,13.04c-0.71,1.97-1.3,3.96-1.8,5.95
				c-0.28,0.9-0.51,1.81-0.69,2.75l-0.2,1.06c0.16-0.92,0.38-1.82,0.63-2.72c-1.17,5.08-1.67,10.18-1.56,15.22
				c0,0.14,0,0.29,0.01,0.43c0.72,24.79,16.37,47.77,41.13,56.63c16.94,6.06,34.78,4.31,49.57-3.4c-0.08,0.05-0.16,0.09-0.24,0.14
				l0.57-0.29c0.1-0.05,0.2-0.12,0.3-0.18c7.08-3.79,13.44-8.96,18.64-15.29c0.27-0.33,0.54-0.66,0.81-1
				c0.62-0.78,1.22-1.58,1.8-2.4c-0.16,0.3-0.33,0.6-0.51,0.9c-0.07,0.12-0.14,0.23-0.22,0.35c-0.36,0.57-0.75,1.11-1.17,1.62
				l0.52-0.65c0.36-0.46,0.7-0.94,1.02-1.43c0.08-0.12,0.15-0.23,0.22-0.35c0.24-0.39,0.46-0.79,0.67-1.19
				c2.99-4.34,5.47-9.13,7.33-14.32c2.25-6.29,3.42-12.71,3.61-19.04c0,0.04,0.01,0.08,0.01,0.12 M170.36,184.63
				c-0.33,0.34-0.67,0.67-1.01,1c-3.46,3.33-7.28,6.23-11.38,8.65c0.51-0.61,0.96-1.32,1.36-2.13c0.04-0.09,0.09-0.18,0.13-0.28
				c1.39-3.08,1.96-7.51,1.55-13.28c-0.03-0.4-0.06-0.8-0.1-1.21c-0.02-0.18-0.03-0.36-0.05-0.54c-0.65-6.33-2.36-13.51-4.89-21.01
				c-0.07-0.22-0.15-0.43-0.22-0.65c-2.57-7.52-5.96-15.34-9.9-22.94c-0.11-0.21-0.23-0.43-0.34-0.65
				c-3.97-7.59-8.5-14.93-13.32-21.52c-0.14-0.19-0.28-0.37-0.41-0.56c-2.6-3.51-5.28-6.79-8.01-9.77c2.68,3,5.31,6.31,7.86,9.84
				c0.14,0.19,0.27,0.38,0.41,0.57c4.74,6.63,9.18,14.02,13.08,21.64c0.11,0.22,0.22,0.43,0.33,0.65c3.87,7.63,7.2,15.48,9.73,23.02
				c0.07,0.22,0.14,0.43,0.22,0.65c2.49,7.52,4.18,14.71,4.82,21.04c0.02,0.18,0.04,0.36,0.05,0.54c0.04,0.41,0.07,0.81,0.1,1.21
				c0.42,5.77-0.14,10.19-1.5,13.25c-0.04,0.09-0.08,0.19-0.13,0.28c-0.4,0.84-0.87,1.57-1.39,2.19c-1.44,0.83-2.91,1.61-4.42,2.32
				c-5.59,2.64-11.57,4.44-17.74,5.32c0.17-0.49,0.27-1.44,0.31-2.83c0-0.08,0-0.16,0-0.24c0.06-2.67-0.11-6.88-0.53-12.65
				c-0.03-0.4-0.06-0.8-0.09-1.22c-0.01-0.18-0.03-0.36-0.04-0.54c-0.49-6.38-1.22-13.86-2.11-21.86c-0.03-0.23-0.05-0.46-0.08-0.69
				c-0.9-8.03-1.96-16.56-3.1-25.02c-0.03-0.24-0.07-0.48-0.1-0.72c-1.15-8.45-2.38-16.8-3.62-24.49c-0.04-0.22-0.07-0.44-0.1-0.66
				c-0.66-4.1-1.33-8-1.99-11.61c0.59,3.62,1.2,7.53,1.8,11.64c0.03,0.22,0.06,0.44,0.1,0.66c1.13,7.69,2.26,16.06,3.32,24.52
				c0.03,0.24,0.06,0.48,0.09,0.72c1.06,8.47,2.05,17.01,2.9,25.04c0.02,0.23,0.05,0.46,0.07,0.69c0.84,8.01,1.54,15.49,2.03,21.87
				c0.01,0.18,0.03,0.36,0.04,0.54c0.03,0.41,0.06,0.82,0.09,1.21c0.42,5.77,0.61,9.97,0.59,12.64c0,0.08,0,0.16,0,0.24
				c-0.02,1.4-0.09,2.35-0.23,2.83c-7.53,0.99-15.34,0.58-23.05-1.39c-0.89-0.58-1.69-1.5-2.39-2.78c-0.04-0.08-0.09-0.16-0.13-0.25
				c-1.42-2.74-2.4-6.98-2.82-12.75c-0.03-0.4-0.05-0.81-0.08-1.21c-0.01-0.18-0.02-0.36-0.03-0.54c-0.32-6.37,0.04-13.8,0.96-21.71
				c0.03-0.23,0.05-0.46,0.08-0.68c0.96-7.94,2.47-16.35,4.42-24.66c0.05-0.24,0.11-0.47,0.17-0.71c1.98-8.3,4.4-16.48,7.14-23.98
				c0.08-0.21,0.16-0.43,0.23-0.64l0,0c1.48-4,3.05-7.79,4.69-11.3c-1.7,3.49-3.33,7.27-4.87,11.26c-0.08,0.21-0.16,0.42-0.24,0.64
				c-2.84,7.47-5.36,15.63-7.42,23.91c-0.06,0.24-0.12,0.47-0.18,0.71c-2.04,8.29-3.62,16.68-4.62,24.61
				c-0.03,0.23-0.06,0.46-0.08,0.68c-0.97,7.9-1.36,15.32-1.04,21.69c0.01,0.18,0.02,0.36,0.03,0.54c0.02,0.41,0.05,0.82,0.08,1.21
				c0.42,5.77,1.42,10.02,2.88,12.77c0.05,0.08,0.09,0.17,0.13,0.25c0.71,1.27,1.52,2.19,2.42,2.77c-1.65-0.44-3.29-0.95-4.93-1.53
				c-6.68-2.39-12.69-5.82-17.91-10.04c-0.17-0.18-0.33-0.36-0.5-0.55c-0.08-0.1-0.16-0.2-0.24-0.3c-2.63-3.27-4.28-7.81-4.7-13.58
				c-0.03-0.4-0.05-0.8-0.07-1.21c-0.01-0.18-0.01-0.36-0.02-0.53c-0.18-6.31,1.07-13.34,3.48-20.6c0.07-0.21,0.14-0.42,0.21-0.63
				c2.47-7.27,6.1-14.76,10.59-21.95c0.13-0.2,0.26-0.41,0.39-0.61c4.54-7.17,9.95-14.04,15.95-20.1c0.17-0.17,0.34-0.34,0.51-0.51
				l0,0c3.23-3.22,6.64-6.22,10.16-8.89c-3.57,2.64-7.01,5.6-10.28,8.8c-0.17,0.17-0.35,0.34-0.52,0.51
				c-6.07,6.01-11.54,12.82-16.14,19.96c-0.13,0.2-0.26,0.41-0.39,0.61c-4.55,7.15-8.22,14.6-10.73,21.84
				c-0.07,0.21-0.14,0.42-0.21,0.62c-2.44,7.23-3.71,14.26-3.54,20.56c0,0.18,0.01,0.36,0.02,0.54c0.02,0.41,0.04,0.81,0.07,1.21
				c0.42,5.77,2.09,10.32,4.74,13.61c0.08,0.1,0.16,0.2,0.25,0.3c0.12,0.14,0.24,0.27,0.37,0.41c-0.48-0.39-0.95-0.8-1.41-1.2
				c-0.35-0.31-0.69-0.62-1.04-0.93c-5.85-5.4-10.55-11.85-13.91-18.94c-0.95-2.01-1.79-4.08-2.52-6.18
				c-0.24-1.16-0.4-2.35-0.49-3.58c-0.03-0.4-0.05-0.8-0.06-1.2c-0.01-0.18-0.01-0.35-0.01-0.53c-0.09-6.21,1.71-12.6,5.03-18.8
				c0.1-0.18,0.19-0.36,0.29-0.53c3.41-6.18,8.33-12.16,14.39-17.53c0.17-0.15,0.35-0.3,0.52-0.46
				c6.12-5.34,13.37-10.07,21.37-13.79c0.23-0.11,0.46-0.21,0.69-0.32c4.31-1.97,8.84-3.65,13.53-4.97
				c-4.7,1.28-9.25,2.92-13.59,4.85c-0.23,0.1-0.46,0.2-0.69,0.31c-8.04,3.65-15.32,8.31-21.47,13.59c-0.17,0.15-0.35,0.3-0.52,0.45
				c-6.08,5.31-11.03,11.24-14.45,17.39c-0.1,0.18-0.2,0.35-0.29,0.53c-3.34,6.16-5.15,12.54-5.06,18.74c0,0.18,0.01,0.35,0.01,0.53
				c0.01,0.4,0.03,0.8,0.06,1.2c0.08,1.07,0.22,2.12,0.41,3.14c-0.97-2.97-1.72-6.01-2.24-9.11c-0.06-0.37-0.12-0.75-0.18-1.12
				c-1.32-8.94-0.67-18.3,2.22-27.45c0.7-1.41,1.53-2.77,2.47-4.09c0.1-0.14,0.2-0.28,0.3-0.42c3.59-4.84,8.77-8.95,15.13-12.08
				c0.18-0.09,0.36-0.18,0.55-0.26c6.43-3.07,14.03-5.16,22.43-6.01c0.24-0.02,0.48-0.05,0.72-0.07c4.53-0.42,9.28-0.48,14.19-0.14
				c-26.18-2.06-47.73,7.22-55.46,22.09c0.14-0.41,0.27-0.82,0.42-1.22c0.94-2.61,2.03-5.12,3.27-7.52
				c0.18-0.35,0.36-0.71,0.55-1.06c2.08-3.85,4.54-7.41,7.3-10.64c2.78-2.18,6.19-3.81,10.11-4.82c0.16-0.04,0.32-0.08,0.49-0.12
				c5.72-1.4,12.51-1.53,20-0.25c0.21,0.04,0.43,0.08,0.64,0.11c4.04,0.73,8.29,1.87,12.68,3.44c-4.36-1.61-8.58-2.79-12.59-3.56
				c-0.21-0.04-0.43-0.08-0.64-0.12c-7.44-1.35-14.18-1.29-19.86,0.05c-0.16,0.04-0.32,0.08-0.48,0.12
				c-3.81,0.96-7.13,2.5-9.85,4.58c5.17-5.91,11.4-10.72,18.28-14.23c0.82-0.12,1.69-0.15,2.6-0.09c0.1,0.01,0.21,0.02,0.32,0.03
				c3.77,0.35,8.28,2.26,13.29,5.76c0.14,0.1,0.29,0.2,0.43,0.3c2.7,1.93,5.55,4.32,8.51,7.17c-2.91-2.88-5.71-5.29-8.37-7.25
				c-0.14-0.1-0.28-0.21-0.42-0.31c-4.93-3.55-9.36-5.5-13.06-5.89c-0.1-0.01-0.21-0.02-0.31-0.03c-0.87-0.07-1.7-0.05-2.48,0.05
				c0.41-0.2,0.81-0.4,1.22-0.6c5.21-2.47,10.77-4.2,16.5-5.13c0.08,0.08,0.15,0.16,0.23,0.26c0.03,0.04,0.06,0.07,0.09,0.11
				c1.02,1.33,2.32,4.38,3.83,9.12c0.04,0.13,0.09,0.27,0.13,0.41c0.82,2.6,1.7,5.68,2.64,9.25c-0.88-3.58-1.7-6.68-2.46-9.28
				c-0.04-0.14-0.08-0.28-0.12-0.41c-1.41-4.76-2.61-7.83-3.55-9.17c-0.03-0.04-0.05-0.08-0.08-0.11c-0.07-0.1-0.14-0.18-0.21-0.26
				c6.09-0.93,12.37-0.96,18.65,0.01c-0.28,0.1-0.57,0.23-0.86,0.4c-0.06,0.03-0.12,0.07-0.18,0.11c-2.12,1.32-4.47,4.35-6.94,9.08
				c-0.07,0.13-0.14,0.27-0.21,0.41c-1.33,2.59-2.68,5.66-4.05,9.22c1.43-3.55,2.84-6.61,4.23-9.19c0.07-0.14,0.15-0.27,0.22-0.41
				c2.57-4.71,5.03-7.72,7.23-9.02c0.06-0.04,0.12-0.07,0.19-0.11c0.31-0.17,0.62-0.31,0.92-0.41c3.62,0.6,7.24,1.52,10.82,2.8
				c3.1,1.11,6.05,2.44,8.85,3.97c-1.76-0.48-3.67-0.68-5.71-0.59c-0.14,0.01-0.27,0.01-0.41,0.02c-4.78,0.3-10.25,2.14-16.1,5.58
				c-0.17,0.1-0.33,0.2-0.5,0.3c-3.15,1.89-6.41,4.24-9.74,7.05c3.37-2.78,6.67-5.1,9.87-6.97c0.17-0.1,0.34-0.2,0.51-0.29
				c5.93-3.39,11.47-5.18,16.31-5.44c0.14-0.01,0.28-0.01,0.41-0.02c2.12-0.08,4.11,0.15,5.93,0.67
				c7.85,4.4,14.46,10.38,19.55,17.37c0.03,0.04,0.06,0.08,0.09,0.13c-0.01-0.01-0.02-0.02-0.04-0.04
				c-4.07-3.89-9.53-6.67-15.98-8.21c-0.18-0.05-0.37-0.09-0.55-0.13c-6.5-1.46-13.97-1.67-22.01-0.48
				c-0.23,0.03-0.46,0.07-0.69,0.11c-4.33,0.68-8.82,1.77-13.4,3.29c4.61-1.48,9.12-2.53,13.47-3.17c0.23-0.04,0.46-0.07,0.69-0.1
				c8.08-1.13,15.59-0.85,22.12,0.67c0.19,0.04,0.37,0.09,0.56,0.13c6.47,1.59,11.96,4.42,16.05,8.35c0.1,0.09,0.19,0.19,0.29,0.28
				c0.04,0.05,0.08,0.1,0.11,0.16c1.98,2.84,3.72,5.84,5.2,8.97c3.44,7.28,5.46,15.22,5.85,23.39c-1.16-5.18-3.72-10.11-7.39-14.61
				c-0.12-0.15-0.25-0.3-0.37-0.45c-4.36-5.21-10.22-9.82-17.14-13.57c-0.2-0.1-0.4-0.21-0.59-0.32c-6.98-3.69-15.02-6.5-23.67-8.13
				c-0.25-0.05-0.49-0.09-0.74-0.14c-4.66-0.84-9.49-1.34-14.44-1.46c4.94,0.17,9.77,0.71,14.42,1.6c0.25,0.05,0.49,0.1,0.74,0.15
				c8.64,1.72,16.67,4.6,23.65,8.36c0.2,0.11,0.4,0.21,0.59,0.32c6.92,3.81,12.77,8.48,17.12,13.73c0.13,0.15,0.25,0.3,0.37,0.45
				c3.78,4.68,6.38,9.8,7.49,15.17c0.05,1.54,0.03,3.08-0.04,4.63c-0.02,0.39-0.04,0.77-0.06,1.16c-0.37,5.58-1.5,11.21-3.48,16.74
				c-1.49,4.17-3.39,8.08-5.63,11.7c1.05-3.06,1.48-6.57,1.19-10.5c-0.03-0.4-0.07-0.8-0.11-1.2c-0.02-0.18-0.04-0.35-0.06-0.53
				c-0.76-6.24-3.2-12.84-6.93-19.37c-0.11-0.19-0.22-0.38-0.33-0.56c-3.8-6.53-8.89-12.98-14.89-18.93
				c-0.17-0.17-0.34-0.34-0.51-0.51c-6.05-5.92-12.99-11.33-20.45-15.8c-0.21-0.13-0.43-0.25-0.64-0.38
				c-4.02-2.37-8.18-4.46-12.44-6.22c4.22,1.8,8.36,3.93,12.35,6.34c0.21,0.13,0.42,0.26,0.63,0.39c7.41,4.54,14.3,10.01,20.3,15.99
				c0.17,0.17,0.34,0.34,0.51,0.51c5.95,6.01,11,12.5,14.78,19.07c0.11,0.19,0.22,0.38,0.32,0.57c3.71,6.56,6.13,13.18,6.89,19.42
				c0.02,0.18,0.04,0.36,0.06,0.53c0.04,0.4,0.08,0.81,0.11,1.2c0.29,4.07-0.17,7.68-1.29,10.81
				C176.07,178.25,173.36,181.61,170.36,184.63z"/>
			<path class="st0" d="M82.47,173.06c0,0.18,0.01,0.36,0.02,0.53c6.32,4.56,14.07,8.09,22.84,10.21c-0.01-0.18-0.02-0.36-0.03-0.54
				C96.54,181.15,88.79,177.62,82.47,173.06z"/>
		</g>
		<text transform="matrix(1.0263 0 0 1 233.7782 151.9328)"><tspan x="0" y="0" class="st2 st3 st4">EXIM</tspan><tspan x="184.04" y="0" class="st5 st3 st4">BNI</tspan></text>
		<text transform="matrix(1.0263 0 0 1 235.3353 179.5843)" class="st6 st7 st8">Business Beyond Boundaries</text>
		<path class="st6" d="M120.79,24.25c0,6.43-5.21,11.65-11.65,11.65c-6.43,0-11.65-5.21-11.65-11.65s5.21-11.64,11.65-11.64
			C115.58,12.6,120.79,17.82,120.79,24.25z"/>
		<path class="st9" d="M169.01,142.02"/>
		<path class="st9" d="M168.17,144.28c-0.13,0.38-0.26,0.76-0.4,1.14C168.12,144.59,168.4,143.7,168.17,144.28z"/>
		<path class="st9" d="M145.52,78.11c-0.04-0.03-0.08-0.06-0.12-0.08c0.03,0.02,0.05,0.04,0.08,0.06
			C145.49,78.1,145.51,78.11,145.52,78.11z"/>
		<path class="st10" d="M167.94,143.4c0,0,1.27-3.79,1.48-4.73c0.34-1.52,0.18-3.1,0.18-3.1l-2.91,3.76L167.94,143.4z"/>
		<path class="st9" d="M81.75,161.46"/>
		<g>
			<g>
				<path class="st11" d="M147.6,100.81C111.58,57.67,65.76,36.58,45.25,53.7c-20.51,17.13-7.93,65.98,28.09,109.12
					c35.36,42.35,80.18,63.45,101.21,48c0.39-0.29,0.77-0.59,1.15-0.9C196.21,192.8,183.62,143.94,147.6,100.81z M171.61,208.12
					c-0.34,0.27-0.69,0.52-1.05,0.77c-19.25,13.13-60.42-5.03-92.99-41.33C44.38,130.59,32.7,88.8,51.46,74.23
					c18.76-14.57,60.87,3.59,94.05,40.56C178.68,151.76,190.37,193.55,171.61,208.12z"/>
			</g>
			<g>
				<path class="st12" d="M147.6,100.81C111.58,57.67,65.76,36.58,45.25,53.7c-20.51,17.13-7.93,65.98,28.09,109.12
					c35.36,42.35,80.18,63.45,101.21,48c0.39-0.29,0.77-0.59,1.15-0.9C196.21,192.8,183.62,143.94,147.6,100.81z M171.61,208.12
					c-0.34,0.27-0.69,0.52-1.05,0.77c-19.25,13.13-60.42-5.03-92.99-41.33C44.38,130.59,32.7,88.8,51.46,74.23
					c18.76-14.57,60.87,3.59,94.05,40.56C178.68,151.76,190.37,193.55,171.61,208.12z"/>
			</g>
		</g>
		<g>
			<g>
				<path class="st5" d="M201.38,49.61c-21.1-16.39-66.15,6.31-100.62,50.69c-34.47,44.38-45.32,93.65-24.22,110.04
					c0.38,0.3,0.78,0.58,1.18,0.86c21.57,14.69,65.61-7.98,99.45-51.55C211.63,115.26,222.48,66,201.38,49.61z M173.11,164.53
					c-31.27,37.42-71.77,57.03-91.47,44.59c-0.37-0.23-0.73-0.48-1.08-0.73c-19.27-13.9-9.07-56.07,22.79-94.19
					c31.85-38.12,73.29-57.76,92.56-43.86C215.16,84.24,204.96,126.41,173.11,164.53z"/>
			</g>
			<g>
				<path class="st13" d="M201.38,49.61c-21.1-16.39-66.15,6.31-100.62,50.69c-34.47,44.38-45.32,93.65-24.22,110.04
					c0.38,0.3,0.78,0.58,1.18,0.86c21.57,14.69,65.61-7.98,99.45-51.55C211.63,115.26,222.48,66,201.38,49.61z M173.11,164.53
					c-31.27,37.42-71.77,57.03-91.47,44.59c-0.37-0.23-0.73-0.48-1.08-0.73c-19.27-13.9-9.07-56.07,22.79-94.19
					c31.85-38.12,73.29-57.76,92.56-43.86C215.16,84.24,204.96,126.41,173.11,164.53z"/>
			</g>
		</g>
	</g>
</g>
<g>
	<path class="st14" d="M-377.46,788.47h-725.62c-10.01,0-18.13-8.12-18.13-18.13v-1115.4c0-10.01,8.12-18.13,18.13-18.13h725.62
		c10.01,0,18.13,8.12,18.13,18.13v1115.4C-359.33,780.35-367.45,788.47-377.46,788.47z"/>
</g>
<g>
	<g>
		<g>
			<g>
				<path class="st0" d="M897.09,247.93c0.08,0.1,0.16,0.2,0.24,0.3c5.79,4.18,12.89,7.41,20.92,9.35
					c-0.04-0.08-0.09-0.16-0.13-0.25C910.05,255.38,902.92,252.13,897.09,247.93z"/>
				<path class="st0" d="M945.35,258.75c0,0.08,0,0.16,0,0.24c8.39-1.07,16.3-3.5,23.23-6.99c0.04-0.09,0.09-0.18,0.13-0.28
					C961.74,255.23,953.79,257.67,945.35,258.75z"/>
				<path class="st0" d="M918.82,257.49c0.04,0.08,0.09,0.17,0.13,0.25c3.4,0.78,6.96,1.33,10.65,1.62
					c5.1,0.4,10.14,0.29,15.02-0.28c0-0.08,0-0.16,0-0.24c-4.91,0.58-9.97,0.69-15.1,0.29
					C925.82,258.83,922.24,258.27,918.82,257.49z"/>
				<path class="st0" d="M969.17,251.69c3.65-1.89,7.01-4.08,10.02-6.52c0.34-0.33,0.68-0.66,1.01-1c-3.23,2.73-6.9,5.17-10.9,7.24
					C969.25,251.51,969.21,251.6,969.17,251.69z"/>
				<path class="st1" d="M986.67,237.66c0.81-1.02,1.56-2.07,2.26-3.14l0.64-1.02c-0.81,1.31-1.71,2.58-2.68,3.81
					C986.81,237.43,986.74,237.55,986.67,237.66z"/>
				<path class="st1" d="M985.23,239.28c-0.27,0.34-0.54,0.67-0.81,1c0.65-0.7,1.28-1.42,1.87-2.16c0.07-0.12,0.15-0.23,0.22-0.35
					C986.1,238.28,985.67,238.78,985.23,239.28z"/>
				<path class="st1" d="M895.8,247.07c0.34,0.27,0.69,0.53,1.04,0.79c-0.08-0.1-0.17-0.2-0.25-0.3c-0.63-0.46-1.24-0.94-1.83-1.43
					C895.11,246.45,895.46,246.76,895.8,247.07z"/>
				<path class="st0" d="M875.77,210.93c0.47,1.62,1.06,3.21,1.77,4.77c-0.01-0.18-0.01-0.35-0.01-0.53
					c-0.79-1.74-1.43-3.53-1.93-5.36C875.65,210.18,875.71,210.55,875.77,210.93z"/>
				<path class="st1" d="M998.4,193.86l-0.14-1.15c0.28,2.1,0.37,4.23,0.25,6.4c0.01,0.4,0.02,0.8,0.02,1.19
					C998.69,198.12,998.64,195.97,998.4,193.86z"/>
				<path class="st0" d="M944.69,244.34c0.01,0.18,0.03,0.36,0.04,0.54c9.16-1.17,17.8-3.81,25.37-7.63
					c-0.02-0.18-0.03-0.36-0.05-0.54C962.48,240.53,953.85,243.18,944.69,244.34z"/>
				<path class="st0" d="M989.38,221.58c-4.78,5.88-11.19,10.92-18.69,14.81c0.02,0.18,0.04,0.36,0.05,0.54
					c7.5-3.88,13.92-8.93,18.7-14.81C989.42,221.93,989.4,221.76,989.38,221.58z"/>
				<path class="st0" d="M915.89,242.98c0.01,0.18,0.02,0.36,0.03,0.54c3.71,0.85,7.6,1.45,11.63,1.77
					c5.56,0.44,11.07,0.32,16.4-0.31c-0.01-0.18-0.03-0.36-0.04-0.54c-5.33,0.63-10.83,0.75-16.39,0.31
					C923.48,244.43,919.6,243.83,915.89,242.98z"/>
				<path class="st0" d="M877.78,216.23c2.96,6.26,7.76,11.89,14,16.51c-0.01-0.18-0.01-0.36-0.02-0.54
					c-6.24-4.62-11.04-10.25-14-16.51C877.77,215.88,877.78,216.05,877.78,216.23z"/>
				<path class="st1" d="M874.41,201.3l0.02,1.16c0,0.07,0.01,0.15,0.01,0.22c0-0.14-0.01-0.29-0.01-0.43
					C874.42,201.94,874.41,201.62,874.41,201.3z"/>
				<path class="st0" d="M989.78,221.07c0.02,0.18,0.04,0.36,0.06,0.53c3.98-5.04,6.77-10.68,8.03-16.73
					c0.02-0.39,0.04-0.78,0.06-1.16c-0.01,0.07-0.02,0.14-0.04,0.22C996.68,210.13,993.86,215.92,989.78,221.07z"/>
				<path class="st0" d="M882.81,196.9c2.64,5.59,6.93,10.62,12.5,14.74c0.07-0.21,0.14-0.41,0.21-0.62
					c-5.54-4.1-9.8-9.1-12.42-14.65C883,196.55,882.9,196.72,882.81,196.9z"/>
				<path class="st0" d="M880.28,178.27c-1.13,6.36-0.25,12.53,2.3,18.15c0.1-0.18,0.19-0.35,0.29-0.53
					c-2.53-5.58-3.42-11.71-2.29-18.04C880.49,177.99,880.38,178.13,880.28,178.27z"/>
				<path class="st0" d="M880.39,177.72c0.1-0.14,0.2-0.28,0.3-0.42c0.38-1.96,0.95-3.87,1.68-5.72c-0.19,0.35-0.37,0.7-0.55,1.06
					C881.21,174.29,880.73,175.99,880.39,177.72z"/>
				<path class="st0" d="M982.17,201.59c-4.24,5.22-9.93,9.7-16.59,13.14c0.07,0.22,0.15,0.43,0.22,0.65
					c6.7-3.47,12.43-7.97,16.69-13.22C982.39,201.96,982.28,201.78,982.17,201.59z"/>
				<path class="st0" d="M896,211.37c-0.07,0.21-0.14,0.42-0.21,0.63c5.64,4.07,12.56,7.22,20.39,9.11
					c0.03-0.23,0.06-0.45,0.08-0.68C908.48,218.55,901.61,215.42,896,211.37z"/>
				<path class="st1" d="M888.05,161.89l-0.26,0.32c-0.48,0.6-0.94,1.21-1.38,1.83c0.09-0.11,0.18-0.22,0.27-0.33
					C887.12,163.09,887.58,162.49,888.05,161.89z"/>
				<path class="st1" d="M979.4,155.99l-0.95-0.88c1.2,1.09,2.33,2.24,3.37,3.42c0.3,0.32,0.6,0.65,0.9,0.98
					C981.7,158.3,980.59,157.12,979.4,155.99z"/>
				<path class="st0" d="M916.94,220.58c-0.03,0.23-0.05,0.45-0.08,0.68c3.31,0.76,6.78,1.3,10.38,1.58
					c4.97,0.39,9.88,0.28,14.64-0.28c-0.02-0.23-0.05-0.46-0.07-0.69c-4.73,0.56-9.61,0.67-14.55,0.28
					C923.68,221.87,920.23,221.34,916.94,220.58z"/>
				<path class="st0" d="M982.53,201.14c0.11,0.19,0.22,0.38,0.33,0.56c3.64-4.6,6.16-9.77,7.25-15.31
					c0.16-0.83,0.29-1.66,0.39-2.48c-0.12-0.15-0.25-0.3-0.37-0.45c-0.09,0.82-0.22,1.64-0.38,2.47
					C988.65,191.43,986.14,196.56,982.53,201.14z"/>
				<path class="st1" d="M886.36,164.17c-0.09,0.11-0.18,0.22-0.27,0.33c-0.55,0.8-1.07,1.61-1.56,2.44
					c0.24-0.37,0.48-0.73,0.73-1.09C885.61,165.28,885.97,164.72,886.36,164.17z"/>
				<path class="st0" d="M942.5,221.8c0.03,0.23,0.05,0.46,0.08,0.69c8.18-1.04,15.89-3.41,22.65-6.82
					c-0.07-0.22-0.14-0.43-0.22-0.65C958.3,218.41,950.63,220.76,942.5,221.8z"/>
				<path class="st1" d="M888.05,161.89l0.58-0.72C888.44,161.41,888.24,161.65,888.05,161.89z"/>
				<path class="st0" d="M990.17,182.91c0.13,0.15,0.25,0.3,0.37,0.45c0.61-6.27-0.73-12.3-3.67-17.74
					c-0.04-0.05-0.08-0.1-0.11-0.16c-0.1-0.09-0.19-0.19-0.29-0.28C989.43,170.62,990.78,176.65,990.17,182.91z"/>
				<path class="st1" d="M986.26,164.76c-0.03-0.04-0.06-0.08-0.09-0.13c0.02,0.03,0.04,0.06,0.05,0.09
					C986.24,164.73,986.25,164.75,986.26,164.76z"/>
				<path class="st0" d="M970.25,156.51c-2.15-3.81-5.42-7.2-9.55-9.93c-0.14,0.01-0.27,0.01-0.41,0.02
					c4.08,2.68,7.3,6.02,9.41,9.78C969.88,156.43,970.06,156.47,970.25,156.51z"/>
				<path class="st0" d="M895.79,165.39c0.18-0.09,0.36-0.17,0.55-0.26c0.64-3.26,2-6.33,3.94-9.13c-0.16,0.04-0.33,0.08-0.49,0.12
					C897.82,158.96,896.44,162.08,895.79,165.39z"/>
				<path class="st0" d="M926.99,140.52c-0.03-0.04-0.06-0.07-0.09-0.11c-5.65,0.97-10.92,2.84-15.47,5.41
					c0.1,0.01,0.21,0.02,0.31,0.03C916.23,143.31,921.42,141.47,926.99,140.52z"/>
				<path class="st0" d="M972.44,169.03c0.2,0.11,0.4,0.21,0.59,0.32c0.43-4.42-0.52-8.67-2.61-12.51
					c-0.18-0.05-0.37-0.09-0.56-0.13C971.92,160.49,972.86,164.68,972.44,169.03z"/>
				<path class="st0" d="M967.12,181.7c0.17,0.17,0.34,0.34,0.51,0.51c2.55-3.23,4.32-6.85,5.08-10.74c0.11-0.58,0.2-1.16,0.27-1.74
					c-0.2-0.11-0.39-0.22-0.59-0.32c-0.06,0.57-0.15,1.14-0.27,1.72C971.38,174.95,969.64,178.52,967.12,181.7z"/>
				<path class="st0" d="M911.04,146.04c-4.52,2.62-8.3,5.93-11.03,9.75c0.16-0.04,0.32-0.08,0.48-0.12
					c2.68-3.76,6.41-7.03,10.86-9.6C911.25,146.06,911.14,146.05,911.04,146.04z"/>
				<path class="st0" d="M959.93,146.38c0.14-0.01,0.27-0.02,0.41-0.02c-4.19-2.68-9.23-4.69-14.88-5.78
					c-0.06,0.03-0.13,0.07-0.19,0.11C950.83,141.75,955.8,143.73,959.93,146.38z"/>
				<path class="st0" d="M897.48,178.84c1.85,3.92,4.86,7.45,8.77,10.34c0.13-0.21,0.26-0.41,0.39-0.61
					c-3.85-2.85-6.81-6.33-8.64-10.18C897.83,178.54,897.66,178.69,897.48,178.84z"/>
				<path class="st0" d="M921.53,195.22c-0.06,0.24-0.11,0.47-0.17,0.71c2.32,0.54,4.76,0.91,7.28,1.11
					c3.48,0.27,6.93,0.2,10.27-0.2c-0.03-0.24-0.06-0.48-0.09-0.72c-3.29,0.39-6.68,0.46-10.11,0.19
					C926.21,196.11,923.82,195.74,921.53,195.22z"/>
				<path class="st0" d="M906.97,188.81c-0.13,0.2-0.26,0.41-0.39,0.61c3.96,2.85,8.81,5.07,14.3,6.39
					c0.06-0.24,0.12-0.47,0.18-0.71C915.65,193.8,910.87,191.62,906.97,188.81z"/>
				<path class="st0" d="M944.79,140.59c0.06-0.04,0.12-0.07,0.18-0.11c-1.65-0.3-3.35-0.52-5.1-0.66
					c-4.26-0.34-8.46-0.15-12.48,0.5c0.03,0.03,0.05,0.07,0.08,0.11c3.96-0.64,8.1-0.83,12.3-0.5
					C941.48,140.07,943.16,140.29,944.79,140.59z"/>
				<path class="st0" d="M939.3,196.06c0.03,0.24,0.07,0.48,0.1,0.72c5.74-0.73,11.14-2.39,15.88-4.78
					c-0.11-0.22-0.22-0.43-0.33-0.65C950.28,193.7,944.95,195.34,939.3,196.06z"/>
				<path class="st0" d="M895.71,165.78c-0.79,4.46-0.17,8.79,1.61,12.73c0.17-0.15,0.35-0.3,0.52-0.45
					c-1.76-3.88-2.37-8.14-1.59-12.54C896.08,165.6,895.9,165.69,895.71,165.78z"/>
				<path class="st0" d="M966.87,182.01c-2.95,3.63-6.91,6.74-11.53,9.14c0.11,0.22,0.23,0.43,0.34,0.65
					c4.7-2.43,8.71-5.59,11.71-9.27C967.22,182.35,967.05,182.18,966.87,182.01z"/>
				<path class="st0" d="M930.95,150.05c-0.04-0.14-0.09-0.28-0.13-0.41c-2.2,0.38-4.25,1.11-6.02,2.11
					c0.14,0.1,0.28,0.21,0.42,0.31C926.91,151.1,928.86,150.41,930.95,150.05z"/>
				<path class="st0" d="M918.72,159.36c0.24-0.02,0.48-0.04,0.72-0.06c0.24-1.22,0.75-2.38,1.48-3.43
					c-0.22-0.04-0.43-0.08-0.64-0.11C919.51,156.86,918.97,158.07,918.72,159.36z"/>
				<path class="st0" d="M918.69,159.51c-0.31,1.74-0.07,3.42,0.63,4.95c0.23-0.1,0.46-0.2,0.69-0.31c-0.66-1.46-0.89-3.06-0.6-4.71
					C919.17,159.46,918.93,159.48,918.69,159.51z"/>
				<path class="st0" d="M919.38,164.59c0.72,1.52,1.89,2.9,3.41,4.02c0.17-0.17,0.35-0.34,0.52-0.51
					c-1.45-1.07-2.56-2.38-3.24-3.83C919.83,164.38,919.61,164.49,919.38,164.59z"/>
				<path class="st0" d="M945.94,165.64c-1.11,1.36-2.59,2.53-4.33,3.43c0.14,0.19,0.28,0.37,0.41,0.56
					c1.83-0.94,3.39-2.17,4.55-3.61C946.36,165.89,946.15,165.77,945.94,165.64z"/>
				<path class="st0" d="M947.68,155.9c-0.83-1.48-2.11-2.8-3.72-3.86c-0.17,0.1-0.34,0.19-0.51,0.29c1.53,1.01,2.74,2.26,3.54,3.67
					C947.23,155.97,947.45,155.94,947.68,155.9z"/>
				<path class="st0" d="M946.03,165.52c0.21,0.12,0.43,0.25,0.64,0.38c0.99-1.25,1.68-2.66,1.98-4.18
					c0.05-0.23,0.08-0.45,0.11-0.68c-0.25-0.05-0.49-0.1-0.74-0.15c-0.02,0.22-0.06,0.43-0.1,0.65
					C947.63,162.99,946.97,164.33,946.03,165.52z"/>
				<path class="st0" d="M943.33,152.25c0.17-0.1,0.33-0.2,0.5-0.3c-1.63-1.04-3.59-1.82-5.79-2.25c-0.07,0.13-0.15,0.27-0.22,0.41
					C939.91,150.51,941.78,151.26,943.33,152.25z"/>
				<path class="st0" d="M924.65,151.83c-1.76,1.02-3.23,2.31-4.29,3.79c0.21,0.04,0.42,0.08,0.64,0.12
					c1.01-1.41,2.41-2.64,4.08-3.61C924.94,152.03,924.79,151.93,924.65,151.83z"/>
				<path class="st0" d="M948.03,160.76c0.25,0.05,0.49,0.09,0.74,0.14c0.17-1.72-0.2-3.38-1.01-4.87c-0.23,0.03-0.46,0.06-0.69,0.1
					C947.83,157.55,948.19,159.12,948.03,160.76z"/>
				<path class="st0" d="M937.64,150.08c0.07-0.14,0.14-0.28,0.21-0.41c-0.64-0.12-1.3-0.2-1.98-0.26
					c-1.66-0.13-3.29-0.06-4.86,0.19c0.04,0.14,0.08,0.27,0.12,0.41c1.49-0.24,3.04-0.31,4.62-0.19
					C936.4,149.88,937.03,149.96,937.64,150.08z"/>
				<path class="st0" d="M935.58,170.91c0.03,0.22,0.07,0.44,0.1,0.66c2.23-0.29,4.33-0.93,6.18-1.86
					c-0.13-0.19-0.27-0.38-0.41-0.57C939.7,170.03,937.7,170.64,935.58,170.91z"/>
				<path class="st0" d="M928.9,170.6L928.9,170.6c-0.08,0.21-0.16,0.42-0.23,0.64c0.9,0.21,1.85,0.36,2.83,0.43
					c1.35,0.11,2.7,0.08,3.99-0.08c-0.03-0.22-0.06-0.44-0.1-0.66c-1.24,0.15-2.51,0.17-3.8,0.07
					C930.66,170.94,929.76,170.8,928.9,170.6z"/>
				<path class="st0" d="M923.43,168.19c-0.17,0.17-0.34,0.34-0.51,0.51c1.54,1.11,3.43,1.97,5.56,2.49
					c0.08-0.21,0.16-0.42,0.24-0.64C926.69,170.07,924.9,169.25,923.43,168.19z"/>
				<path class="st1" d="M987.56,236.12c2.99-4.34,5.47-9.13,7.33-14.32c2.25-6.29,3.42-12.71,3.61-19.04
					c0,0.04,0.01,0.08,0.01,0.12c0.13,1.76,0.09,3.48-0.1,5.17l0.11-1.07c0.15-1.54,0.17-3.11,0.05-4.69
					c-0.01-0.18-0.03-0.36-0.05-0.54c0.01-0.48,0.01-0.95,0-1.43c0-0.4-0.01-0.8-0.02-1.19c-0.32-10.98-3.56-21.59-9.23-30.79
					c0.77,1.01,1.45,2.08,2.06,3.2l-0.45-0.82c-0.61-1.08-1.29-2.11-2.05-3.09c-1.81-2.85-3.85-5.56-6.11-8.1
					c-0.29-0.33-0.59-0.65-0.9-0.98c-3.44-3.69-7.35-6.98-11.69-9.78c0.22,0.13,0.43,0.26,0.64,0.4l-0.33-0.21l-0.3-0.19
					c-0.22-0.14-0.44-0.27-0.67-0.4c-3.74-2.35-7.79-4.33-12.12-5.88c-10.28-3.68-20.88-4.47-30.94-2.82c0,0-0.01,0-0.01,0
					l-0.58,0.1c0.01,0,0.01,0,0.02,0c-6.74,1.17-13.23,3.46-19.19,6.72c-0.32,0.13-0.64,0.28-0.95,0.45l-0.56,0.32
					c0.3-0.18,0.62-0.32,0.94-0.46c-7.12,3.99-13.48,9.4-18.61,15.99c-0.28,0.3-0.55,0.6-0.82,0.92c-0.09,0.11-0.18,0.22-0.27,0.33
					c-0.22,0.28-0.43,0.56-0.64,0.85l-0.49,0.69c0.25-0.37,0.52-0.73,0.8-1.08c0.09-0.11,0.18-0.22,0.27-0.33
					c0.21-0.25,0.42-0.5,0.65-0.74c-0.6,0.79-1.18,1.6-1.75,2.43c-0.25,0.36-0.49,0.72-0.73,1.09c-2.61,4-4.79,8.36-6.47,13.04
					c-0.71,1.97-1.3,3.96-1.8,5.95c-0.28,0.9-0.51,1.81-0.69,2.75l-0.2,1.06c0.16-0.92,0.38-1.82,0.63-2.72
					c-1.17,5.08-1.67,10.18-1.56,15.22c0,0.14,0,0.29,0.01,0.43c0.72,24.79,16.37,47.77,41.13,56.63
					c16.94,6.06,34.78,4.31,49.57-3.4c-0.08,0.05-0.16,0.09-0.24,0.14l0.57-0.29c0.1-0.05,0.2-0.12,0.3-0.18
					c7.08-3.79,13.44-8.96,18.64-15.29c0.27-0.33,0.54-0.66,0.81-1c0.62-0.78,1.22-1.58,1.8-2.4c-0.16,0.3-0.33,0.6-0.51,0.9
					c-0.07,0.12-0.14,0.23-0.22,0.35c-0.36,0.57-0.75,1.11-1.17,1.62l0.52-0.65c0.36-0.46,0.7-0.94,1.02-1.43
					c0.08-0.12,0.15-0.23,0.22-0.35C987.12,236.92,987.35,236.52,987.56,236.12z M980.2,244.17c-0.33,0.34-0.67,0.67-1.01,1
					c-3.46,3.33-7.28,6.23-11.38,8.65c0.51-0.61,0.96-1.32,1.36-2.13c0.04-0.09,0.09-0.18,0.13-0.28c1.39-3.08,1.96-7.51,1.55-13.28
					c-0.03-0.4-0.06-0.8-0.1-1.21c-0.02-0.18-0.03-0.36-0.05-0.54c-0.65-6.33-2.36-13.51-4.89-21.01c-0.07-0.22-0.15-0.43-0.22-0.65
					c-2.57-7.52-5.96-15.34-9.9-22.94c-0.11-0.21-0.23-0.43-0.34-0.65c-3.97-7.59-8.5-14.93-13.32-21.52
					c-0.14-0.19-0.28-0.37-0.41-0.56c-2.6-3.51-5.28-6.79-8.01-9.77c2.68,3,5.31,6.31,7.86,9.84c0.14,0.19,0.27,0.38,0.41,0.57
					c4.74,6.63,9.18,14.02,13.08,21.64c0.11,0.22,0.22,0.43,0.33,0.65c3.87,7.63,7.2,15.48,9.73,23.02
					c0.07,0.22,0.14,0.43,0.22,0.65c2.49,7.52,4.18,14.71,4.82,21.04c0.02,0.18,0.04,0.36,0.05,0.54c0.04,0.41,0.07,0.81,0.1,1.21
					c0.42,5.77-0.14,10.19-1.5,13.25c-0.04,0.09-0.08,0.19-0.13,0.28c-0.4,0.84-0.87,1.57-1.39,2.19c-1.44,0.83-2.91,1.61-4.42,2.32
					c-5.59,2.64-11.57,4.44-17.74,5.32c0.17-0.49,0.27-1.44,0.31-2.83c0-0.08,0-0.16,0-0.24c0.06-2.67-0.11-6.88-0.53-12.65
					c-0.03-0.4-0.06-0.8-0.09-1.22c-0.01-0.18-0.03-0.36-0.04-0.54c-0.49-6.38-1.22-13.86-2.11-21.86
					c-0.03-0.23-0.05-0.46-0.08-0.69c-0.9-8.03-1.96-16.56-3.1-25.02c-0.03-0.24-0.07-0.48-0.1-0.72
					c-1.15-8.45-2.38-16.8-3.62-24.49c-0.03-0.22-0.07-0.44-0.1-0.66c-0.66-4.1-1.33-8-1.99-11.61c0.59,3.62,1.2,7.53,1.8,11.64
					c0.03,0.22,0.06,0.44,0.1,0.66c1.13,7.69,2.26,16.06,3.32,24.52c0.03,0.24,0.06,0.48,0.09,0.72c1.06,8.47,2.05,17.01,2.9,25.04
					c0.02,0.23,0.05,0.46,0.07,0.69c0.84,8.01,1.54,15.49,2.03,21.87c0.01,0.18,0.03,0.36,0.04,0.54c0.03,0.41,0.06,0.82,0.09,1.21
					c0.42,5.77,0.61,9.97,0.59,12.64c0,0.08,0,0.16,0,0.24c-0.02,1.4-0.09,2.35-0.23,2.83c-7.53,0.99-15.34,0.58-23.05-1.39
					c-0.89-0.58-1.69-1.5-2.39-2.78c-0.04-0.08-0.09-0.16-0.13-0.25c-1.42-2.74-2.4-6.98-2.82-12.75c-0.03-0.4-0.05-0.81-0.08-1.21
					c-0.01-0.18-0.02-0.36-0.03-0.54c-0.32-6.37,0.04-13.8,0.96-21.71c0.03-0.23,0.05-0.46,0.08-0.68
					c0.96-7.94,2.47-16.35,4.42-24.66c0.05-0.24,0.11-0.47,0.17-0.71c1.98-8.3,4.4-16.48,7.14-23.98c0.08-0.21,0.16-0.43,0.23-0.64
					l0,0c1.48-4,3.05-7.79,4.69-11.3c-1.7,3.49-3.33,7.27-4.87,11.26c-0.08,0.21-0.16,0.42-0.24,0.64
					c-2.84,7.47-5.36,15.63-7.42,23.91c-0.06,0.24-0.12,0.47-0.18,0.71c-2.04,8.29-3.62,16.68-4.62,24.61
					c-0.03,0.23-0.06,0.46-0.08,0.68c-0.97,7.9-1.36,15.32-1.04,21.69c0.01,0.18,0.02,0.36,0.03,0.54c0.02,0.41,0.05,0.82,0.08,1.21
					c0.42,5.77,1.42,10.02,2.88,12.77c0.05,0.08,0.09,0.17,0.13,0.25c0.71,1.27,1.52,2.19,2.42,2.77c-1.65-0.44-3.29-0.95-4.93-1.53
					c-6.68-2.39-12.69-5.82-17.91-10.04c-0.17-0.18-0.33-0.36-0.5-0.55c-0.08-0.1-0.16-0.2-0.24-0.3c-2.63-3.27-4.28-7.81-4.7-13.58
					c-0.03-0.4-0.05-0.8-0.07-1.21c-0.01-0.18-0.01-0.36-0.02-0.53c-0.18-6.31,1.07-13.34,3.48-20.6c0.07-0.21,0.14-0.42,0.21-0.63
					c2.47-7.27,6.1-14.76,10.59-21.95c0.13-0.2,0.26-0.41,0.39-0.61c4.54-7.17,9.95-14.04,15.95-20.1c0.17-0.17,0.34-0.34,0.51-0.51
					l0,0c3.23-3.22,6.64-6.22,10.16-8.89c-3.57,2.64-7.01,5.6-10.28,8.8c-0.17,0.17-0.35,0.34-0.52,0.51
					c-6.07,6.01-11.54,12.82-16.14,19.96c-0.13,0.2-0.26,0.41-0.39,0.61c-4.55,7.15-8.22,14.6-10.73,21.84
					c-0.07,0.21-0.14,0.42-0.21,0.62c-2.44,7.23-3.71,14.26-3.54,20.56c0,0.18,0.01,0.36,0.02,0.54c0.02,0.41,0.04,0.81,0.07,1.21
					c0.42,5.77,2.09,10.32,4.74,13.61c0.08,0.1,0.16,0.2,0.25,0.3c0.12,0.14,0.24,0.27,0.37,0.41c-0.48-0.39-0.95-0.8-1.41-1.2
					c-0.35-0.31-0.69-0.62-1.04-0.93c-5.85-5.4-10.55-11.85-13.91-18.94c-0.95-2.01-1.79-4.08-2.52-6.18
					c-0.24-1.16-0.4-2.35-0.49-3.58c-0.03-0.4-0.05-0.8-0.06-1.2c-0.01-0.18-0.01-0.35-0.01-0.53c-0.09-6.21,1.71-12.6,5.03-18.8
					c0.1-0.18,0.19-0.36,0.29-0.53c3.41-6.18,8.33-12.16,14.39-17.53c0.17-0.15,0.35-0.3,0.52-0.46
					c6.12-5.34,13.37-10.07,21.37-13.79c0.23-0.11,0.46-0.21,0.69-0.32c4.31-1.97,8.84-3.65,13.53-4.97
					c-4.7,1.28-9.25,2.92-13.59,4.85c-0.23,0.1-0.46,0.2-0.69,0.31c-8.04,3.65-15.32,8.31-21.47,13.59
					c-0.17,0.15-0.35,0.3-0.52,0.45c-6.08,5.31-11.03,11.24-14.45,17.39c-0.1,0.18-0.2,0.35-0.29,0.53
					c-3.34,6.16-5.15,12.54-5.06,18.74c0,0.18,0.01,0.35,0.01,0.53c0.01,0.4,0.03,0.8,0.06,1.2c0.08,1.07,0.22,2.12,0.41,3.14
					c-0.97-2.97-1.72-6.01-2.24-9.11c-0.06-0.37-0.12-0.75-0.18-1.12c-1.32-8.94-0.67-18.3,2.22-27.45c0.7-1.41,1.53-2.77,2.47-4.09
					c0.1-0.14,0.2-0.28,0.3-0.42c3.59-4.84,8.77-8.95,15.13-12.08c0.18-0.09,0.36-0.18,0.55-0.26c6.43-3.07,14.03-5.16,22.43-6.01
					c0.24-0.02,0.48-0.05,0.72-0.07c4.53-0.42,9.28-0.48,14.19-0.14c-26.18-2.06-47.73,7.22-55.46,22.09
					c0.14-0.41,0.27-0.82,0.42-1.22c0.94-2.61,2.03-5.12,3.27-7.52c0.18-0.35,0.36-0.71,0.55-1.06c2.08-3.85,4.54-7.41,7.3-10.64
					c2.78-2.18,6.19-3.81,10.11-4.82c0.16-0.04,0.32-0.08,0.49-0.12c5.72-1.4,12.51-1.53,20-0.25c0.21,0.04,0.43,0.08,0.64,0.11
					c4.04,0.73,8.29,1.87,12.68,3.44c-4.36-1.61-8.58-2.79-12.59-3.56c-0.21-0.04-0.43-0.08-0.64-0.12
					c-7.44-1.35-14.18-1.29-19.86,0.05c-0.16,0.04-0.32,0.08-0.48,0.12c-3.81,0.96-7.13,2.5-9.85,4.58
					c5.17-5.91,11.4-10.72,18.28-14.23c0.82-0.12,1.69-0.15,2.6-0.09c0.1,0.01,0.21,0.02,0.32,0.03c3.77,0.35,8.28,2.26,13.29,5.76
					c0.14,0.1,0.29,0.2,0.43,0.3c2.7,1.93,5.55,4.32,8.51,7.17c-2.91-2.88-5.71-5.29-8.37-7.25c-0.14-0.1-0.28-0.21-0.42-0.31
					c-4.93-3.55-9.36-5.5-13.06-5.89c-0.1-0.01-0.21-0.02-0.31-0.03c-0.87-0.07-1.7-0.05-2.48,0.05c0.41-0.2,0.81-0.4,1.22-0.6
					c5.21-2.47,10.77-4.2,16.5-5.13c0.08,0.08,0.15,0.16,0.23,0.26c0.03,0.04,0.06,0.07,0.09,0.11c1.02,1.33,2.32,4.38,3.83,9.12
					c0.04,0.13,0.09,0.27,0.13,0.41c0.82,2.6,1.7,5.68,2.64,9.25c-0.88-3.58-1.7-6.68-2.46-9.28c-0.04-0.14-0.08-0.28-0.12-0.41
					c-1.41-4.76-2.61-7.83-3.55-9.17c-0.03-0.04-0.05-0.08-0.08-0.11c-0.07-0.1-0.14-0.18-0.21-0.26
					c6.09-0.93,12.37-0.96,18.65,0.01c-0.28,0.1-0.57,0.23-0.86,0.4c-0.06,0.03-0.12,0.07-0.18,0.11c-2.12,1.32-4.47,4.35-6.94,9.08
					c-0.07,0.13-0.14,0.27-0.21,0.41c-1.33,2.59-2.68,5.66-4.05,9.22c1.43-3.55,2.84-6.61,4.23-9.19c0.07-0.14,0.15-0.27,0.22-0.41
					c2.57-4.71,5.03-7.72,7.23-9.02c0.06-0.04,0.12-0.07,0.19-0.11c0.31-0.17,0.62-0.31,0.92-0.41c3.62,0.6,7.24,1.52,10.82,2.8
					c3.1,1.11,6.05,2.44,8.85,3.97c-1.76-0.48-3.67-0.68-5.71-0.59c-0.14,0.01-0.27,0.01-0.41,0.02c-4.78,0.3-10.25,2.14-16.1,5.58
					c-0.17,0.1-0.33,0.2-0.5,0.3c-3.15,1.89-6.41,4.24-9.74,7.05c3.37-2.78,6.67-5.1,9.87-6.97c0.17-0.1,0.34-0.2,0.51-0.29
					c5.93-3.39,11.47-5.18,16.31-5.44c0.14-0.01,0.28-0.01,0.41-0.02c2.12-0.08,4.11,0.15,5.93,0.67
					c7.85,4.4,14.46,10.38,19.55,17.37c0.03,0.04,0.06,0.08,0.09,0.13c-0.01-0.01-0.02-0.02-0.04-0.04
					c-4.07-3.89-9.53-6.67-15.98-8.21c-0.18-0.05-0.37-0.09-0.55-0.13c-6.5-1.46-13.97-1.67-22.01-0.48
					c-0.23,0.03-0.46,0.07-0.69,0.11c-4.33,0.68-8.82,1.77-13.4,3.29c4.61-1.48,9.12-2.53,13.47-3.17c0.23-0.04,0.46-0.07,0.69-0.1
					c8.08-1.13,15.59-0.85,22.12,0.67c0.19,0.04,0.37,0.09,0.56,0.13c6.47,1.59,11.96,4.42,16.05,8.35c0.1,0.09,0.19,0.19,0.29,0.28
					c0.04,0.05,0.08,0.1,0.11,0.16c1.98,2.84,3.72,5.84,5.2,8.97c3.44,7.28,5.46,15.22,5.85,23.39c-1.16-5.18-3.72-10.11-7.39-14.61
					c-0.12-0.15-0.25-0.3-0.37-0.45c-4.36-5.21-10.22-9.82-17.14-13.57c-0.2-0.1-0.4-0.21-0.59-0.32
					c-6.98-3.69-15.02-6.5-23.67-8.13c-0.25-0.05-0.49-0.09-0.74-0.14c-4.66-0.84-9.49-1.34-14.44-1.46
					c4.94,0.17,9.77,0.71,14.42,1.6c0.25,0.05,0.49,0.1,0.74,0.15c8.64,1.72,16.67,4.6,23.65,8.36c0.2,0.11,0.4,0.21,0.59,0.32
					c6.92,3.81,12.77,8.48,17.12,13.73c0.13,0.15,0.25,0.3,0.37,0.45c3.78,4.68,6.38,9.8,7.49,15.17c0.05,1.54,0.03,3.08-0.04,4.63
					c-0.02,0.39-0.04,0.77-0.06,1.16c-0.37,5.58-1.5,11.21-3.48,16.74c-1.49,4.17-3.39,8.08-5.63,11.7
					c1.05-3.06,1.48-6.57,1.19-10.5c-0.03-0.4-0.07-0.8-0.11-1.2c-0.02-0.18-0.04-0.35-0.06-0.53c-0.76-6.24-3.2-12.84-6.93-19.37
					c-0.11-0.19-0.22-0.38-0.33-0.56c-3.8-6.53-8.89-12.98-14.89-18.93c-0.17-0.17-0.34-0.34-0.51-0.51
					c-6.05-5.92-12.99-11.33-20.45-15.8c-0.21-0.13-0.43-0.25-0.64-0.38c-4.02-2.37-8.18-4.46-12.44-6.22
					c4.22,1.8,8.36,3.93,12.35,6.34c0.21,0.13,0.42,0.26,0.63,0.39c7.41,4.54,14.3,10.01,20.3,15.99c0.17,0.17,0.34,0.34,0.51,0.51
					c5.95,6.01,11,12.5,14.78,19.07c0.11,0.19,0.22,0.38,0.32,0.57c3.71,6.56,6.13,13.18,6.89,19.42c0.02,0.18,0.04,0.36,0.06,0.53
					c0.04,0.4,0.08,0.81,0.11,1.2c0.29,4.07-0.17,7.68-1.29,10.81C985.91,237.79,983.2,241.15,980.2,244.17z"/>
				<path class="st0" d="M892.31,232.6c0,0.18,0.01,0.36,0.02,0.53c6.32,4.56,14.07,8.09,22.84,10.21
					c-0.01-0.18-0.02-0.36-0.03-0.54C906.37,240.69,898.63,237.16,892.31,232.6z"/>
			</g>
		</g>
		<text transform="matrix(1.0263 0 0 1 1043.6154 211.4746)"><tspan x="0" y="0" class="st2 st3 st4">EXIM</tspan><tspan x="184.04" y="0" class="st5 st3 st4">BNI</tspan></text>
		<text transform="matrix(1.0263 0 0 1 1045.1724 239.1261)" class="st6 st7 st8">Business Beyond Boundaries</text>
		<path class="st6" d="M930.63,83.79c0,6.43-5.21,11.65-11.65,11.65c-6.43,0-11.65-5.21-11.65-11.65s5.21-11.64,11.65-11.64
			C925.42,72.15,930.63,77.36,930.63,83.79z"/>
		<path class="st9" d="M978.85,201.56"/>
		<path class="st9" d="M978.01,203.82c-0.13,0.38-0.26,0.76-0.4,1.14C977.96,204.13,978.24,203.25,978.01,203.82z"/>
		<path class="st9" d="M955.36,137.65c-0.04-0.03-0.08-0.06-0.12-0.08c0.03,0.02,0.05,0.04,0.08,0.06
			C955.33,137.64,955.35,137.65,955.36,137.65z"/>
		<path class="st10" d="M977.78,202.95c0,0,1.27-3.79,1.48-4.73c0.34-1.52,0.18-3.1,0.18-3.1l-2.91,3.76L977.78,202.95z"/>
		<path class="st9" d="M891.59,221"/>
		<g>
			<g>
				<path class="st11" d="M957.44,160.35c-36.02-43.14-81.85-64.23-102.35-47.1c-20.51,17.13-7.93,65.98,28.09,109.12
					c35.36,42.35,80.18,63.45,101.21,48c0.39-0.29,0.77-0.59,1.15-0.9C1006.04,252.34,993.46,203.49,957.44,160.35z M981.45,267.66
					c-0.34,0.27-0.69,0.52-1.05,0.77c-19.25,13.13-60.42-5.03-92.99-41.33c-33.18-36.97-44.86-78.76-26.1-93.33
					c18.76-14.57,60.87,3.59,94.05,40.56C988.52,211.3,1000.21,253.09,981.45,267.66z"/>
			</g>
			<g>
				<path class="st12" d="M957.44,160.35c-36.02-43.14-81.85-64.23-102.35-47.1c-20.51,17.13-7.93,65.98,28.09,109.12
					c35.36,42.35,80.18,63.45,101.21,48c0.39-0.29,0.77-0.59,1.15-0.9C1006.04,252.34,993.46,203.49,957.44,160.35z M981.45,267.66
					c-0.34,0.27-0.69,0.52-1.05,0.77c-19.25,13.13-60.42-5.03-92.99-41.33c-33.18-36.97-44.86-78.76-26.1-93.33
					c18.76-14.57,60.87,3.59,94.05,40.56C988.52,211.3,1000.21,253.09,981.45,267.66z"/>
			</g>
		</g>
		<g>
			<g>
				<path class="st5" d="M1011.21,109.15c-21.1-16.39-66.15,6.31-100.62,50.69c-34.48,44.38-45.32,93.65-24.22,110.04
					c0.38,0.3,0.77,0.58,1.18,0.86c21.57,14.69,65.61-7.98,99.45-51.55C1021.47,174.81,1032.31,125.54,1011.21,109.15z
					 M982.95,224.07c-31.27,37.42-71.77,57.03-91.47,44.59c-0.37-0.23-0.73-0.48-1.08-0.73c-19.27-13.9-9.07-56.07,22.79-94.19
					c31.85-38.12,73.29-57.76,92.56-43.86C1025,143.78,1014.8,185.95,982.95,224.07z"/>
			</g>
			<g>
				<path class="st13" d="M1011.21,109.15c-21.1-16.39-66.15,6.31-100.62,50.69c-34.48,44.38-45.32,93.65-24.22,110.04
					c0.38,0.3,0.77,0.58,1.18,0.86c21.57,14.69,65.61-7.98,99.45-51.55C1021.47,174.81,1032.31,125.54,1011.21,109.15z
					 M982.95,224.07c-31.27,37.42-71.77,57.03-91.47,44.59c-0.37-0.23-0.73-0.48-1.08-0.73c-19.27-13.9-9.07-56.07,22.79-94.19
					c31.85-38.12,73.29-57.76,92.56-43.86C1025,143.78,1014.8,185.95,982.95,224.07z"/>
			</g>
		</g>
	</g>
</g>
<path class="st1" d="M114.84,201.73v0.54c0,0,6.15,1.2,9.19,1.08c3.03-0.11-0.36-0.54-0.36-0.54s-3.57-0.21-3.86-0.31
	c-0.29-0.1-1.98-0.26-1.98-0.26S114.97,201.75,114.84,201.73z"/>
<polygon class="st0" points="109.85,198.14 109.85,198.36 113.39,199.04 115.75,199.39 116.98,199.54 116.95,199.31 115.6,199.14 
	113.42,198.82 111.53,198.48 "/>
<polygon class="st1" points="106.11,190.82 106.85,190.93 107.26,192.96 107.97,195.5 108.57,197.06 107.99,197.19 107.67,196.47 
	107.37,195.69 107.14,195.02 106.75,193.7 106.37,192.16 "/>
<polygon class="st1" points="81.95,169.54 82.47,169.54 82.47,172.36 82.54,174.56 82.65,175.84 82.15,175.84 82.08,175.18 
	82.03,174.56 81.95,173.76 81.93,172.66 81.92,171.45 81.95,170.25 "/>
<polyline class="st0" points="79.67,170.9 81.84,172.6 84.07,174.17 85.83,175.3 87.8,176.47 87.8,176.99 85.41,175.56 83.94,174.6 
	82.49,173.59 80.21,171.85 79.26,171.07 79.59,170.9 "/>
<polygon class="st1" points="134.56,202.37 134.56,202.89 131.95,203.18 129.9,203.36 126.78,203.41 125.59,203.4 125.68,202.89 
	127.53,202.89 127.95,202.89 131.4,202.7 "/>
<path class="st1" d="M134.66,195.97c0.07-0.07,0.07-0.07,0.07-0.07l0.76-0.17l0.02,4.16l-0.09,1.15l-0.08,0.63l-0.67,0.06l0.13-1.32
	V199v-1.74L134.66,195.97z"/>
<polygon class="st0" points="130.07,199.94 130.07,199.7 132.56,199.52 134.05,199.38 135.51,199.2 138.87,198.73 141.98,198.1 
	141.98,198.33 140.01,198.73 137.52,199.16 135.51,199.44 133.77,199.64 132.53,199.76 131.12,199.87 "/>
<polygon class="st0" points="160.85,176.84 162.85,175.77 165.58,174.15 165.75,174.62 163.85,175.76 162.66,176.44 161.06,177.3 
	160.9,177.38 "/>
<polyline class="st1" points="159.95,174.96 160.61,174.83 160.82,176.51 160.97,178.18 161.07,179.68 161.12,180.76 160.47,180.99 
	160.38,179.23 160.24,177.45 160.03,175.6 159.95,175.04 "/>
<polygon class="st10" points="134.9,185.34 142.17,184.63 148.62,182.39 152.54,181.06 157.11,179.21 160.26,177.71 160.5,181.97 
	160.31,186.31 159.24,191.24 158.87,192.17 142.94,197.37 139.64,198.46 139.33,198.6 136.96,199 135.51,199.2 135.55,197.54 
	135.39,193.14 135.15,188.88 "/>
<polygon class="st10" points="142.81,199.13 136.92,199.27 135.51,199.44 135.51,199.89 135.47,200.61 137.15,201.09 139.5,201.09 
	141.66,200.49 142.81,199.2 "/>
<polygon class="st10" points="131.17,196.6 134.75,196.81 134.75,197.94 134.79,199.13 134.79,199.29 133.92,199.39 132.87,199.49 
	131.76,199.58 "/>
<polygon class="st10" points="130.43,200.26 131.12,199.87 133.34,199.69 134.79,199.53 134.75,200.87 134.7,201.34 134.56,202.37 
	131.07,202.72 128.23,202.85 126.69,202.88 126.81,201.88 "/>
<polygon class="st10" points="167.16,177.38 167.32,175.58 165.54,174.83 163.99,175.68 162.66,176.44 160.9,177.38 161.06,179.49 
	161.13,181.26 "/>
<polygon class="st10" points="172.52,160.71 174.49,160.92 175.79,164.4 168.85,171.71 165.46,174.27 161.03,176.74 162.81,171.36 
	161.75,168.27 166.49,160.07 "/>
<polygon class="st10" points="181.01,157.21 179.95,154.28 180.56,148.51 186.78,140.31 188.1,142.6 187.63,146.31 184.31,153.41 
	"/>
<polygon class="st2" points="179.6,153.5 181.52,158.77 176.67,163.85 175.71,164.19 174.23,160.32 "/>
<polygon class="st10" points="74.68,165.47 74.68,165.25 75.22,163.74 79.1,166.83 81.95,170.47 81.93,172.66 78.97,170.3 
	76.68,168 "/>
<polygon class="st10" points="85.97,170.9 82.47,172.05 82.47,173.06 84.98,174.76 85.39,175.02 "/>
<polygon class="st10" points="83.39,177.3 82.52,173.94 82.49,173.59 84.08,174.71 86.72,176.36 89.2,177.89 98.61,184.43 
	102.54,186.87 106.18,191.65 106.55,193.05 106.99,194.58 107.42,195.87 107.42,196.46 103.33,194.88 90.65,188.38 "/>
<polyline class="st10" points="110.47,191.29 107.49,193.78 108.42,196.68 110.07,198.09 110.88,198.35 115.93,199.19 116.9,198.34 
	113.02,194.88 110.55,191.29 "/>
<polygon class="st10" points="111.39,200.41 111.39,198.65 112.8,198.92 114.45,199.2 116.09,199.43 116.52,199.49 119.72,200.96 
	121.89,202.02 122.16,202.71 120.39,202.55 118.05,202.26 116.23,202 115.37,201.73 "/>
</svg>
