<svg xmlns="http://www.w3.org/2000/svg" width="30" height="30" viewBox="0 0 30 30">
  <g id="Group_69" data-name="Group 69" transform="translate(2991 -2388)">
    <g id="Ellipse_35" data-name="Ellipse 35" transform="translate(-2991 2388)" fill="#fff" stroke="#d5d5d5" stroke-width="0.5">
      <circle cx="15" cy="15" r="15" stroke="none"/>
      <circle cx="15" cy="15" r="14.75" fill="none"/>
    </g>
    <g id="Group_1" data-name="Group 1" transform="translate(-3184.99 2184.765)">
      <path id="Path_32" data-name="Path 32" d="M483.944,210.415a1.181,1.181,0,0,1-2.361,0h0a1.181,1.181,0,0,1,1.18-1.182h0a1.18,1.18,0,0,1,1.181,1.179Z" transform="translate(-273.887)" fill="#f15822"/>
      <path id="Path_33" data-name="Path 33" d="M467.075,759.209l.031.018a5.666,5.666,0,0,0,2.168.166l-.02-.018A5.683,5.683,0,0,1,467.075,759.209Z" transform="translate(-259.826 -533.03)" fill="#197139"/>
      <path id="Path_34" data-name="Path 34" d="M712.822,641.837c-.013.039-.026.077-.041.116C712.813,641.869,712.846,641.778,712.822,641.837Z" transform="translate(-497.963 -419.256)" fill="#197139"/>
      <path id="Path_35" data-name="Path 35" d="M458.414,756.431l.119.037-.031-.02c-.071-.021-.141-.045-.21-.069Z" transform="translate(-251.312 -530.287)" fill="#197139"/>
      <path id="Path_36" data-name="Path 36" d="M366.308,672.247a1.13,1.13,0,0,0,.229.405c-.006-.015.035-.016.029-.031a2.039,2.039,0,0,1-.257-.425C366.325,672.223,366.29,672.215,366.308,672.247Z" transform="translate(-162.158 -448.698)" fill="#197139"/>
      <path id="Path_37" data-name="Path 37" d="M352.5,647.293l.039.1a.021.021,0,0,0,.007.019c-.005-.012-.009-.025-.014-.038C352.517,647.349,352.506,647.321,352.5,647.293Z" transform="translate(-148.777 -424.562)" fill="#197139"/>
      <path id="Path_38" data-name="Path 38" d="M344.263,553.229a.152.152,0,0,1,.014-.047,3.115,3.115,0,0,1-.033-.567l-.015.112A3.076,3.076,0,0,0,344.263,553.229Z" transform="translate(-140.764 -332.802)" fill="#197139"/>
      <path id="Path_39" data-name="Path 39" d="M348.729,518.47l-.013.036c-.024.069-.046.139-.065.208a.111.111,0,0,1,.013-.037C348.683,518.61,348.7,518.541,348.729,518.47Z" transform="translate(-145.05 -299.708)" fill="#197139"/>
      <path id="Path_40" data-name="Path 40" d="M607,404.891l-.112-.048a3.947,3.947,0,0,1,.41.2c.037.019.075.039.111.059A3.79,3.79,0,0,0,607,404.891Z" transform="translate(-395.331 -189.582)" fill="#197139"/>
      <path id="Path_41" data-name="Path 41" d="M346.288,526.924l-.014.039c-.023.089-.044.178-.061.269.009-.041.019-.081.03-.121C346.256,527.048,346.27,526.986,346.288,526.924Z" transform="translate(-142.687 -307.902)" fill="#197139"/>
      <path id="Path_42" data-name="Path 42" d="M351.18,515.853l.029-.083A.613.613,0,0,1,351.18,515.853Z" transform="translate(-147.501 -297.091)" fill="#197139"/>
      <path id="Path_43" data-name="Path 43" d="M372.333,624.025a3.787,3.787,0,0,0,1.592.92v-.063a3.75,3.75,0,0,1-1.582-.912Z" transform="translate(-168.002 -401.958)" fill="#197139"/>
      <path id="Path_44" data-name="Path 44" d="M345.62,572.927a2.9,2.9,0,0,0,.788,1.552l.009-.057a2.882,2.882,0,0,1-.783-1.542A.265.265,0,0,0,345.62,572.927Z" transform="translate(-142.112 -352.442)" fill="#197139"/>
      <path id="Path_45" data-name="Path 45" d="M632.621,536.037a4.965,4.965,0,0,1-1.061,1.709l.041.051a4.992,4.992,0,0,0,1.07-1.723Z" transform="translate(-419.243 -316.734)" fill="#197139"/>
      <path id="Path_46" data-name="Path 46" d="M425.724,654.1v.063a5.526,5.526,0,0,0,2.118.162.355.355,0,0,0-.014-.064A5.5,5.5,0,0,1,425.724,654.1Z" transform="translate(-219.749 -431.162)" fill="#197139"/>
      <path id="Path_47" data-name="Path 47" d="M496.156,637.679l.015.064a6.855,6.855,0,0,0,.98-.192,7.111,7.111,0,0,0,1.3-.494l-.029-.06a7,7,0,0,1-1.294.491A6.6,6.6,0,0,1,496.156,637.679Z" transform="translate(-288.011 -414.584)" fill="#197139"/>
      <path id="Path_48" data-name="Path 48" d="M666.562,476.906l.048.04a3.409,3.409,0,0,0,.158-1.6c-.012-.08-.026-.158-.045-.235l-.048-.028c.017.076.032.154.045.233A3.387,3.387,0,0,1,666.562,476.906Z" transform="translate(-453.167 -257.654)" fill="#197139"/>
      <path id="Path_49" data-name="Path 49" d="M571.721,594.276l.029.059A6.661,6.661,0,0,0,573.565,593l-.041-.051A6.623,6.623,0,0,1,571.721,594.276Z" transform="translate(-361.248 -371.891)" fill="#197139"/>
      <path id="Path_50" data-name="Path 50" d="M641.57,427.234l.048.029a2.915,2.915,0,0,0-.9-1.472l-.015-.011-.034-.015A2.909,2.909,0,0,1,641.57,427.234Z" transform="translate(-428.073 -209.859)" fill="#197139"/>
      <path id="Path_51" data-name="Path 51" d="M639.2,424.454l-.012-.009.008.007Z" transform="translate(-426.64 -208.58)" fill="#197139"/>
      <path id="Path_52" data-name="Path 52" d="M601.591,453.945l.062.028a2.374,2.374,0,0,0,.112-1.124c-.008-.056-.019-.11-.031-.165l-.064-.009a1.641,1.641,0,0,1,.031.162A2.359,2.359,0,0,1,601.591,453.945Z" transform="translate(-390.197 -235.94)" fill="#197139"/>
      <path id="Path_53" data-name="Path 53" d="M496.835,395.276l.035-.014a4.042,4.042,0,0,0-1.52-.042c0,.005-.009.01-.013.016A3.969,3.969,0,0,1,496.835,395.276Z" transform="translate(-287.217 -180.204)" fill="#197139"/>
      <path id="Path_54" data-name="Path 54" d="M444.627,397.161a.1.1,0,0,1,.013-.015,4.629,4.629,0,0,0-.478.1,4.957,4.957,0,0,0-1.1.446l.01.007a4.886,4.886,0,0,1,1.086-.439A4.77,4.77,0,0,1,444.627,397.161Z" transform="translate(-236.55 -182.122)" fill="#197139"/>
      <path id="Path_55" data-name="Path 55" d="M546.414,399.11a2.783,2.783,0,0,0-1.174-.583l-.036.014a2.745,2.745,0,0,1,1.156.575C546.378,399.114,546.4,399.111,546.414,399.11Z" transform="translate(-335.548 -183.46)" fill="#197139"/>
      <path id="Path_56" data-name="Path 56" d="M376.563,489.832l.041-.041a2.3,2.3,0,0,1,.06-.94l-.04.026A2.348,2.348,0,0,0,376.563,489.832Z" transform="translate(-172.079 -271.002)" fill="#197139"/>
      <path id="Path_57" data-name="Path 57" d="M403.5,415.706l-.011-.007a4.56,4.56,0,0,0-1.216.981l.029-.008A4.5,4.5,0,0,1,403.5,415.706Z" transform="translate(-197.016 -200.103)" fill="#197139"/>
      <path id="Path_58" data-name="Path 58" d="M584.38,419.226l.064.01a2.054,2.054,0,0,0-.629-1.037.452.452,0,0,0-.054.006A2.027,2.027,0,0,1,584.38,419.226Z" transform="translate(-372.917 -202.526)" fill="#197139"/>
      <path id="Path_59" data-name="Path 59" d="M380.278,448.339a3.305,3.305,0,0,0-.675,1.226l.039-.026a3.261,3.261,0,0,1,.665-1.207Z" transform="translate(-175.048 -231.731)" fill="#197139"/>
      <path id="Path_60" data-name="Path 60" d="M396.215,556.133a2.653,2.653,0,0,0,1.115.645l.015-.068a2.607,2.607,0,0,1-1.1-.634Z" transform="translate(-191.149 -336.154)" fill="#197139"/>
      <path id="Path_61" data-name="Path 61" d="M483.128,565.689c0,.023.005.047.007.069a4.8,4.8,0,0,0,.688-.134,5.059,5.059,0,0,0,.912-.347c-.011-.02-.021-.041-.031-.062a4.832,4.832,0,0,1-.9.341A4.769,4.769,0,0,1,483.128,565.689Z" transform="translate(-275.384 -345.014)" fill="#197139"/>
      <path id="Path_62" data-name="Path 62" d="M433.732,577.091a.325.325,0,0,1-.014.068,3.868,3.868,0,0,0,1.485.114l-.007-.069A3.8,3.8,0,0,1,433.732,577.091Z" transform="translate(-227.496 -356.523)" fill="#197139"/>
      <path id="Path_63" data-name="Path 63" d="M535.633,535.479c.011.02.022.041.032.062a4.677,4.677,0,0,0,1.269-.937l-.051-.048A4.591,4.591,0,0,1,535.633,535.479Z" transform="translate(-326.271 -315.298)" fill="#197139"/>
      <path id="Path_64" data-name="Path 64" d="M377.5,520.484a2.027,2.027,0,0,0,.552,1.089l.031-.058a2,2,0,0,1-.543-1.071Z" transform="translate(-173.007 -301.62)" fill="#197139"/>
      <path id="Path_65" data-name="Path 65" d="M577.921,495.05a3.453,3.453,0,0,1-.74,1.188l.051.047a3.5,3.5,0,0,0,.751-1.205Z" transform="translate(-366.539 -277.009)" fill="#197139"/>
      <path id="Path_66" data-name="Path 66" d="M447.833,438.5l-.024-.032a1.775,1.775,0,0,0-.474.381l.048.014A1.691,1.691,0,0,1,447.833,438.5Z" transform="translate(-240.693 -222.167)" fill="#197139"/>
      <path id="Path_67" data-name="Path 67" d="M437.369,467.237l.062-.028a.875.875,0,0,1,.022-.355l-.061.01A.911.911,0,0,0,437.369,467.237Z" transform="translate(-231.026 -249.682)" fill="#197139"/>
      <path id="Path_68" data-name="Path 68" d="M601.524,652.343l.021.047a7.466,7.466,0,0,0,2.027-1.5l-.022-.047A7.461,7.461,0,0,1,601.524,652.343Z" transform="translate(-390.132 -428.007)" fill="#197139"/>
      <path id="Path_69" data-name="Path 69" d="M670.031,586.665a5.6,5.6,0,0,1-1.2,1.926l.021.047a5.6,5.6,0,0,0,1.2-1.925Z" transform="translate(-455.367 -365.802)" fill="#197139"/>
      <path id="Path_70" data-name="Path 70" d="M516.42,701.155l.019.048a7.53,7.53,0,0,0,1.1-.214,7.982,7.982,0,0,0,1.458-.553l-.021-.047a7.9,7.9,0,0,1-1.457.552A7.428,7.428,0,0,1,516.42,701.155Z" transform="translate(-307.65 -476.022)" fill="#197139"/>
      <path id="Path_71" data-name="Path 71" d="M707.815,527.667c.008.015.051.076.059.091a3.851,3.851,0,0,0,.191-1.755c-.01-.035-.048-.1-.059-.133,0,.006-.023-.007-.022,0A3.813,3.813,0,0,1,707.815,527.667Z" transform="translate(-493.149 -306.878)" fill="#197139"/>
      <path id="Path_72" data-name="Path 72" d="M437.073,719.634c.006.015.009.03.015.046a6.2,6.2,0,0,0,2.376.183c-.007-.015-.013-.031-.02-.048A6.169,6.169,0,0,1,437.073,719.634Z" transform="translate(-230.748 -494.674)" fill="#197139"/>
      <path id="Path_73" data-name="Path 73" d="M377.252,685.667a4.243,4.243,0,0,0,1.783,1.03l-.018-.048a4.222,4.222,0,0,1-1.783-1.03Z" transform="translate(-172.752 -461.707)" fill="#197139"/>
      <path id="Path_74" data-name="Path 74" d="M437.731,478.761a.8.8,0,0,0,.215.424l.052-.05a.761.761,0,0,1-.2-.405Z" transform="translate(-231.386 -261.192)" fill="#197139"/>
      <path id="Path_75" data-name="Path 75" d="M484.12,430.44l.034-.043a1.562,1.562,0,0,0-.59-.016.094.094,0,0,1-.007.044A1.5,1.5,0,0,1,484.12,430.44Z" transform="translate(-275.801 -214.313)" fill="#197139"/>
      <path id="Path_76" data-name="Path 76" d="M438.816,451.261a1.29,1.29,0,0,0-.263.476l.061-.009a1.222,1.222,0,0,1,.25-.454Z" transform="translate(-232.182 -234.57)" fill="#197139"/>
      <path id="Path_77" data-name="Path 77" d="M463.871,431.271l.006-.044a1.783,1.783,0,0,0-.186.041,1.927,1.927,0,0,0-.429.173l.023.033a1.812,1.812,0,0,1,.405-.165A1.614,1.614,0,0,1,463.871,431.271Z" transform="translate(-256.131 -215.153)" fill="#197139"/>
      <path id="Path_78" data-name="Path 78" d="M445.035,492.2a1.014,1.014,0,0,0,.434.253l.03-.062a.991.991,0,0,1-.414-.242Z" transform="translate(-238.465 -274.196)" fill="#197139"/>
      <path id="Path_79" data-name="Path 79" d="M514.56,469.121a1.288,1.288,0,0,1-.278.447l.055.036a1.355,1.355,0,0,0,.293-.469Z" transform="translate(-305.578 -251.879)" fill="#197139"/>
      <path id="Path_80" data-name="Path 80" d="M502.768,432.012a1.072,1.072,0,0,0-.457-.226l-.035.042a1.046,1.046,0,0,1,.436.216Z" transform="translate(-293.942 -215.695)" fill="#197139"/>
      <path id="Path_81" data-name="Path 81" d="M523.461,453.459l.069.013a.923.923,0,0,0,.044-.437.581.581,0,0,0-.012-.064l-.071.01a.42.42,0,0,0,.011.061A.876.876,0,0,1,523.461,453.459Z" transform="translate(-314.474 -236.228)" fill="#197139"/>
      <path id="Path_82" data-name="Path 82" d="M516.915,439.769l.071-.011a.8.8,0,0,0-.247-.405l-.059.031A.763.763,0,0,1,516.915,439.769Z" transform="translate(-307.902 -223.027)" fill="#197139"/>
      <path id="Path_83" data-name="Path 83" d="M498.69,484.537l.03.056a1.815,1.815,0,0,0,.494-.365l-.055-.038A1.725,1.725,0,0,1,498.69,484.537Z" transform="translate(-290.467 -266.484)" fill="#197139"/>
      <path id="Path_84" data-name="Path 84" d="M478.951,495.779h0v.065a1.83,1.83,0,0,0,.268-.052,2.046,2.046,0,0,0,.356-.135l-.03-.056a1.84,1.84,0,0,1-.338.129A1.805,1.805,0,0,1,478.951,495.779Z" transform="translate(-271.336 -277.544)" fill="#197139"/>
      <path id="Path_85" data-name="Path 85" d="M459.571,500.08c-.01.02-.02.042-.029.062a1.5,1.5,0,0,0,.578.045v-.065A1.434,1.434,0,0,1,459.571,500.08Z" transform="translate(-252.525 -281.885)" fill="#197139"/>
      <path id="Path_86" data-name="Path 86" d="M352.519,397.577a5.951,5.951,0,0,0,.2-1.52,5.88,5.88,0,0,0-.287-1.824s-.1-.292-.116-.326a5.929,5.929,0,0,0-1.813-2.456c-.051-.04-.052-.042-.063-.049a5.849,5.849,0,0,0-.811-.529c-.037-.02-.074-.04-.111-.059a5.86,5.86,0,0,0-1.36-.507c.024.005.048.009.071.015l-.036-.009-.033-.007c-.024-.006-.049-.01-.072-.014a5.926,5.926,0,0,0-1.27-.129,5.864,5.864,0,0,0-2.86.739h0l-.049.027h0a5.911,5.911,0,0,0-1.5,1.216.769.769,0,0,0-.071.071l-.04.047a.913.913,0,0,1,.069-.072,5.885,5.885,0,0,0-1.153,2.026c-.016.036-.03.072-.044.109-.005.012-.009.025-.013.038-.011.032-.021.064-.03.1l-.021.077q.016-.061.036-.122l.014-.039c.01-.029.021-.059.033-.087-.028.09-.055.181-.078.274-.011.04-.021.08-.03.121a5.917,5.917,0,0,0-.162,1.375,5.807,5.807,0,0,0,.029.591,2.4,2.4,0,0,0,.026.268l.016.1a2.538,2.538,0,0,1-.03-.264,5.866,5.866,0,0,0,.348,1.419.114.114,0,0,0,.014.038,5.9,5.9,0,0,0,9.831,1.861l-.017.019.042-.045a.251.251,0,0,0,.021-.025,5.885,5.885,0,0,0,1.18-1.966c.014-.039.027-.077.041-.116C352.441,397.844,352.513,397.619,352.519,397.577Zm-.405.957c-.019.041-.038.081-.059.122a5.832,5.832,0,0,1-.737,1.136,1.013,1.013,0,0,0,.053-.234v-.028a2.678,2.678,0,0,0-.288-1.24c-.015-.034-.03-.07-.048-.1l-.021-.047a9.482,9.482,0,0,0-1.115-1.723l-.041-.051a16.137,16.137,0,0,0-1.622-1.737l-.051-.047a16.152,16.152,0,0,0-1.876-1.5l-.055-.037a11.393,11.393,0,0,0-1.031-.618,11.825,11.825,0,0,1,1.02.629l.055.038a16.566,16.566,0,0,1,1.865,1.52l.051.048a16.594,16.594,0,0,1,1.608,1.75l.041.051a9.68,9.68,0,0,1,1.106,1.73l.022.047.048.1a2.713,2.713,0,0,1,.291,1.234v.028a.966.966,0,0,1-.054.241q-.152.181-.321.349a5.886,5.886,0,0,1-1.419,1.045,1.115,1.115,0,0,0-.063-.264.192.192,0,0,1-.007-.022c-.08-.24-.23-.608-.453-1.115-.015-.035-.03-.071-.047-.1l-.021-.047c-.248-.555-.553-1.2-.889-1.89l-.029-.059c-.337-.69-.709-1.419-1.079-2.14-.01-.021-.021-.042-.032-.062-.373-.72-.751-1.429-1.108-2.077l-.03-.056c-.191-.346-.376-.674-.55-.976.169.3.349.635.534.984l.03.056c.348.653.717,1.366,1.083,2.089.01.021.02.042.031.062.366.725.728,1.457,1.061,2.15l.029.06c.331.69.95,2.007.965,2.041.223.507.359.879.443,1.115a.026.026,0,0,0,.007.021,1.23,1.23,0,0,1,.07.261,5.81,5.81,0,0,1-2.109.614.718.718,0,0,1-.3-.173l-.02-.017a7.4,7.4,0,0,1-.709-1.158c-.006-.015-.013-.031-.019-.048a12.615,12.615,0,0,1-.608-1.974l-.015-.064a21.6,21.6,0,0,1-.388-2.35.231.231,0,0,0-.007-.069,20.619,20.619,0,0,1-.135-2.376v-.065h0c0-.405.023-.8.058-1.161-.041.367-.065.757-.075,1.163v.065a20.083,20.083,0,0,0,.1,2.379l.007.069a20.921,20.921,0,0,0,.375,2.352.291.291,0,0,0,.014.064,12.323,12.323,0,0,0,.6,1.975c.007.016.013.032.02.048a7.072,7.072,0,0,0,.709,1.157l.02.018a.748.748,0,0,0,.3.171c-.161.013-.325.02-.491.02a5.849,5.849,0,0,1-1.926-.324l-.062-.034-.031-.018a2.291,2.291,0,0,1-.855-1.066c-.016-.034-.03-.07-.046-.1l-.018-.048a5.8,5.8,0,0,1-.349-1.956V398.3a10.175,10.175,0,0,1,.245-2.3c.005-.022.009-.046.014-.068a11.488,11.488,0,0,1,.787-2.317c.009-.02.019-.042.029-.062h0a9.366,9.366,0,0,1,.624-1.122,9.463,9.463,0,0,0-.639,1.115l-.03.062a11.4,11.4,0,0,0-.811,2.3l-.015.068a10,10,0,0,0-.26,2.3v.063a5.721,5.721,0,0,0,.347,1.962l.018.048.046.106a2.258,2.258,0,0,0,.86,1.066l.031.019c.015.009.03.016.047.024-.056-.019-.111-.041-.165-.062l-.123-.051a5.856,5.856,0,0,1-1.853-1.253,6.232,6.232,0,0,1-.424-.472,2.624,2.624,0,0,1-.158-.3l-.045-.1-.018-.048a3.691,3.691,0,0,1-.151-1.845l.009-.057a6.413,6.413,0,0,1,.727-2.027l.031-.058a8.713,8.713,0,0,1,1.473-1.926l.051-.05a8.932,8.932,0,0,1,1.052-.879,8.954,8.954,0,0,0-1.061.87l-.052.05a8.656,8.656,0,0,0-1.487,1.9l-.031.058a6.328,6.328,0,0,0-.738,2.02l-.009.057a3.656,3.656,0,0,0,.148,1.841.146.146,0,0,0,.017.047c.014.035.029.071.045.1a2.667,2.667,0,0,0,.137.269,5.894,5.894,0,0,1-.492-.744c-.018-.031-.036-.063-.053-.1a5.812,5.812,0,0,1-.68-2.529,2.974,2.974,0,0,1,.09-.445c.005-.015.009-.031.014-.047a3.909,3.909,0,0,1,.968-1.566l.041-.041a6.459,6.459,0,0,1,1.815-1.257l.062-.029a8.389,8.389,0,0,1,1.266-.466c-2.41.654-4.042,2.176-4.257,3.755v-.124a5.813,5.813,0,0,1,.052-.778l.015-.113a5.809,5.809,0,0,1,.31-1.184,2.6,2.6,0,0,1,.751-.756l.04-.021a4.73,4.73,0,0,1,1.783-.663l.061-.01a7.648,7.648,0,0,1,1.246-.1,7.632,7.632,0,0,0-1.242.085l-.061.009a4.682,4.682,0,0,0-1.777.639l-.04.026a2.551,2.551,0,0,0-.736.725,5.845,5.845,0,0,1,1.181-1.859,1.147,1.147,0,0,1,.23-.092l.029-.007a2.766,2.766,0,0,1,1.374.09l.049.013a7.12,7.12,0,0,1,.991.369,7.24,7.24,0,0,0-.981-.381l-.051-.014a2.731,2.731,0,0,0-1.358-.109l-.029.008a1.1,1.1,0,0,0-.221.084c.03-.031.061-.062.09-.093a5.885,5.885,0,0,1,1.318-.987l.029.015.011.007a3.361,3.361,0,0,1,.635.694l.024.032q.236.3.533.744-.29-.44-.519-.752l-.023-.033a3.972,3.972,0,0,0-.608-.709l-.01-.007-.027-.017a5.83,5.83,0,0,1,1.67-.6.533.533,0,0,0-.063.064.1.1,0,0,0-.013.015,2.251,2.251,0,0,0-.33,1.035l-.006.044a9.106,9.106,0,0,0-.067.956,9.05,9.05,0,0,1,.079-.957.093.093,0,0,1,.007-.044,2.237,2.237,0,0,1,.358-1.039c0-.006.009-.011.013-.016a.592.592,0,0,1,.07-.066,5.921,5.921,0,0,1,1.984-.023,1.743,1.743,0,0,0-.53.131l-.035.014a3.562,3.562,0,0,0-1.264,1.014l-.034.043a7.083,7.083,0,0,0-.647.944,7.166,7.166,0,0,1,.661-.94l.036-.042a3.649,3.649,0,0,1,1.287-1.014l.036-.014a1.782,1.782,0,0,1,.552-.13,5.832,5.832,0,0,1,2.307.928l.012.009h0a3.27,3.27,0,0,0-1.694-.223.158.158,0,0,0-.054.006,5.747,5.747,0,0,0-1.986.662l-.058.031a8.042,8.042,0,0,0-1.1.725,8.1,8.1,0,0,1,1.1-.716l.059-.031a5.807,5.807,0,0,1,2-.648.447.447,0,0,1,.054-.006,3.32,3.32,0,0,1,1.7.233l.034.015.015.011a5.854,5.854,0,0,1,2.027,2.543,3.365,3.365,0,0,0-1.139-1.068l-.048-.029a5.56,5.56,0,0,0-1.969-.665l-.064-.01a8.034,8.034,0,0,0-2.38.03l-.071.011a8.945,8.945,0,0,0-1.34.332,8.916,8.916,0,0,1,1.343-.319l.071-.01a8.043,8.043,0,0,1,2.385-.009l.064.009a5.653,5.653,0,0,1,1.973.681l.048.028a3.4,3.4,0,0,1,1.156,1.115c.054.136.1.275.145.417.011.034.021.07.031.1a5.878,5.878,0,0,1,.1,2.838,2.51,2.51,0,0,0-.229-.978l-.049-.1c-.008-.015-.015-.03-.022-.046a5.023,5.023,0,0,0-1.242-1.512l-.048-.04a8.869,8.869,0,0,0-1.94-1.216l-.061-.029a10.539,10.539,0,0,0-2.338-.761l-.069-.013a9.32,9.32,0,0,0-1.318-.158,9.427,9.427,0,0,1,1.312.171l.07.014a10.682,10.682,0,0,1,2.331.781l.062.029a9.016,9.016,0,0,1,1.935,1.233l.047.041a5.087,5.087,0,0,1,1.24,1.52l.022.046c.017.034.033.07.049.1a2.475,2.475,0,0,1,.23,1.014,5.852,5.852,0,0,1-.4,1.158Z" transform="translate(-137.552 -175.353)" fill="#197139"/>
      <path id="Path_87" data-name="Path 87" d="M618.4,697.126a.206.206,0,0,0,.007.022,6.827,6.827,0,0,0,1.856-1.371v-.028A6.858,6.858,0,0,1,618.4,697.126Z" transform="translate(-406.489 -471.525)" fill="#197139"/>
      <path id="Path_88" data-name="Path 88" d="M680.313,662.894a5.575,5.575,0,0,0,.688-.905c.02-.041.04-.081.059-.122a5.578,5.578,0,0,1-.744,1Z" transform="translate(-466.494 -438.687)" fill="#197139"/>
      <path id="Path_89" data-name="Path 89" d="M539.449,742.021l.019.018a6.941,6.941,0,0,0,1.006-.2,7.518,7.518,0,0,0,1.353-.514v-.017a7.957,7.957,0,0,1-1.362.507A6.481,6.481,0,0,1,539.449,742.021Z" transform="translate(-329.97 -515.686)" fill="#197139"/>
      <path id="Path_90" data-name="Path 90" d="M467.241,759.308c0,.007.033.016.049.022a6.047,6.047,0,0,0,.927.164,6.13,6.13,0,0,0,1.257-.014c0-.006-.006-.009,0-.015a6.58,6.58,0,0,1-1.258.009A6.684,6.684,0,0,1,467.241,759.308Z" transform="translate(-259.986 -533.126)" fill="#197139"/>
      <path id="Path_91" data-name="Path 91" d="M210.522,275.191c-4-4.055-8.806-5.8-10.734-3.9s-.241,6.731,3.754,10.786c3.927,3.98,8.631,5.734,10.626,4,.036-.032.073-.067.108-.1C216.2,284.075,214.522,279.245,210.522,275.191Zm3.325,10.642c-.032.03-.066.059-.1.086-1.834,1.484-6.144-.005-9.74-3.4-3.66-3.455-5.191-7.577-3.419-9.207s6.182-.148,9.839,3.307,5.193,7.578,3.421,9.207Z" transform="translate(0 -59.401)" fill="#e42127"/>
      <path id="Path_92" data-name="Path 92" d="M210.522,275.191c-4-4.055-8.806-5.8-10.734-3.9s-.241,6.731,3.754,10.786c3.927,3.98,8.631,5.734,10.626,4,.036-.032.073-.067.108-.1C216.2,284.075,214.522,279.245,210.522,275.191Zm3.325,10.642c-.032.03-.066.059-.1.086-1.834,1.484-6.144-.005-9.74-3.4-3.66-3.455-5.191-7.577-3.419-9.207s6.182-.148,9.839,3.307,5.193,7.578,3.421,9.207Z" transform="translate(0 -59.401)" fill="none"/>
      <path id="Path_93" data-name="Path 93" d="M356.29,256.239c-2.139-1.661-6.705.639-10.2,5.137s-4.592,9.492-2.454,11.149c.039.03.078.06.119.087,2.186,1.489,6.65-.811,10.079-5.225C357.328,262.894,358.428,257.9,356.29,256.239Zm-2.865,11.648c-3.168,3.793-7.274,5.78-9.273,4.522-.037-.024-.074-.049-.109-.074-1.953-1.409-.919-5.683,2.309-9.547s7.429-5.856,9.383-4.448.919,5.684-2.31,9.547Z" transform="translate(-139.132 -45.033)" fill="#3f459a"/>
      <path id="Path_94" data-name="Path 94" d="M356.29,256.239c-2.139-1.661-6.705.639-10.2,5.137s-4.592,9.492-2.454,11.149c.039.03.078.06.119.087,2.186,1.489,6.65-.811,10.079-5.225C357.328,262.894,358.428,257.9,356.29,256.239Zm-2.865,11.648c-3.168,3.793-7.274,5.78-9.273,4.522-.037-.024-.074-.049-.109-.074-1.953-1.409-.919-5.683,2.309-9.547s7.429-5.856,9.383-4.448.919,5.684-2.31,9.547Z" transform="translate(-139.132 -45.033)" fill="none"/>
    </g>
  </g>
</svg>
